<?xml version="1.0" encoding="utf-8"?>
<!-- Generator: Adobe Illustrator 24.1.2, SVG Export Plug-In . SVG Version: 6.00 Build 0)  -->
<svg version="1.1" id="Livello_1" xmlns="http://www.w3.org/2000/svg" xmlns:xlink="http://www.w3.org/1999/xlink" x="0px" y="0px"
	 viewBox="0 0 365.11 363.63" style="enable-background:new 0 0 365.11 363.63;" xml:space="preserve">
<style type="text/css">
	.st0{fill:url(#SVGID_1_);}
	.st1{fill:url(#SVGID_2_);}
	.st2{fill:url(#SVGID_3_);}
	.st3{fill:url(#SVGID_4_);}
</style>
<linearGradient id="SVGID_1_" gradientUnits="userSpaceOnUse" x1="312.7585" y1="304.9077" x2="361.1649" y2="304.9077">
	<stop  offset="0" style="stop-color:#640F00"/>
	<stop  offset="0.02" style="stop-color:#6D1103"/>
	<stop  offset="0.0889" style="stop-color:#86130E"/>
	<stop  offset="0.1584" style="stop-color:#9A1416"/>
	<stop  offset="0.2277" style="stop-color:#A8141C"/>
	<stop  offset="0.2969" style="stop-color:#B1141F"/>
	<stop  offset="0.3659" style="stop-color:#B41320"/>
	<stop  offset="1" style="stop-color:#B41320"/>
</linearGradient>
<path class="st0" d="M312.76,333.43c5.53-5.99,11.04-12.87,16.14-20.71c16.34-25.12,21.03-48.58,22.58-61.95
	c0.04-0.38,0.04-0.38,0.04-0.38h-0.25c2.36,4.48,4.32,9.16,5.86,14c3.43,10.79,3.75,19.45,3.95,25.87
	c0.15,5.04,0.39,14.58-2.14,26.84c-2.88,13.98-7.42,36.57-23.2,41.41c-2.71,0.83-5.13,0.95-6.64,0.93
	c-1.45-0.69-3.55-1.89-5.53-3.85c-1.64-1.63-2.56-3.14-3.3-4.38c-1.08-1.81-1.04-2.22-2.99-6.58c-1.33-2.98-1.49-3.08-2.28-4.97
	C313.99,337.27,313.28,335.15,312.76,333.43z"/>
<linearGradient id="SVGID_2_" gradientUnits="userSpaceOnUse" x1="187.5713" y1="2.8859" x2="48.1328" y2="244.4004">
	<stop  offset="0" style="stop-color:#640F00"/>
	<stop  offset="0.02" style="stop-color:#6D1103"/>
	<stop  offset="0.0889" style="stop-color:#86130E"/>
	<stop  offset="0.1584" style="stop-color:#9A1416"/>
	<stop  offset="0.2277" style="stop-color:#A8141C"/>
	<stop  offset="0.2969" style="stop-color:#B1141F"/>
	<stop  offset="0.3659" style="stop-color:#B41320"/>
	<stop  offset="1" style="stop-color:#B41320"/>
</linearGradient>
<path class="st1" d="M185.77,2.13c-0.07,0-0.14,0-0.22,0c-3.37,0.01-39.04,0.08-42.92,0.09c-0.05,0-0.1,0.01-0.15,0.02
	c-0.8,0.17-1.91,0.48-2.4,1.34c-0.23,0.41-0.36,0.75-0.42,0.91c-1.92,5.11-89.79,232.8-89.76,232.72c0,0,0,0,0-0.01
	c1.92,2.08,4.35,4.61,7.27,7.43c1.71,1.65,4.21,4.05,7.63,6.96c4.08,3.46,7.35,5.85,12.09,9.3c0.14,0.1,0.29,0.21,0.43,0.31
	c3.26,2.37,8.16,1.11,9.52-2.43l0.11-0.28c0.02-0.06,5.08-13.18,5.11-13.25c0.04-0.1,9.12-23.67,9.23-23.95
	c20.82-54.01,41.64-108.02,62.46-162.03c0,0,10.8-28.02,20.02-51.94c0-0.01,0.72-1.86,0.72-1.87c0,0,0.57-1.43,0.57-1.44
	c0.09-0.23,0.2-0.5,0.32-0.79c0,0,0.12-0.37,0.34-0.77c0.06-0.1,0.11-0.15,0.24-0.25c0.14-0.1,0.35-0.04,0.35-0.06
	c0-0.01-0.08-0.02-0.16-0.03C186.02,2.12,185.93,2.13,185.77,2.13z"/>
<linearGradient id="SVGID_3_" gradientUnits="userSpaceOnUse" x1="163.5333" y1="180.9961" x2="328.9644" y2="180.9961">
	<stop  offset="0" style="stop-color:#640F00"/>
	<stop  offset="0.02" style="stop-color:#6D1103"/>
	<stop  offset="0.0889" style="stop-color:#86130E"/>
	<stop  offset="0.1584" style="stop-color:#9A1416"/>
	<stop  offset="0.2277" style="stop-color:#A8141C"/>
	<stop  offset="0.2969" style="stop-color:#B1141F"/>
	<stop  offset="0.3659" style="stop-color:#B41320"/>
	<stop  offset="1" style="stop-color:#B41320"/>
</linearGradient>
<path class="st2" d="M278.43,354.03c0.76,0.99,2.13,2.47,4.3,3.62c1.97,1.05,3.93,1.46,7.37,1.81c4.39,0.44,7.82,0.42,10.45,0.39
	c6.92-0.09,9.7-0.29,15.61-0.38c3.54-0.05,6.41-0.03,8.2,0v-0.02c1.53,0.02,3.06,0.05,4.59,0.07c-1.92-0.93-4.66-2.58-6.9-5.37
	c-1.2-1.5-1.82-2.79-2.32-3.85c-4.12-8.7-5.29-11.85-5.29-11.85c-2.12-5.72-3.98-11-5.61-15.78
	c-40.8-106.75-81.6-213.51-122.4-320.26c-0.14-0.37-0.72-0.38-0.86-0.01c-3.74,9.22-7.57,19.48-11.26,28.47
	c-3.96,9.61-6.66,19.33-10.78,28.63c0,0.06,0,0.14-0.01,0.2c57.51,149.92,99.47,259.09,103.17,268.67
	c0.97,2.52,3.38,8.72,7.18,16.66C275.77,348.97,277.41,352.12,278.43,354.03z"/>
<linearGradient id="SVGID_4_" gradientUnits="userSpaceOnUse" x1="63.8951" y1="273.3985" x2="-1.6138" y2="159.9337">
	<stop  offset="0" style="stop-color:#640F00"/>
	<stop  offset="0.02" style="stop-color:#6D1103"/>
	<stop  offset="0.0889" style="stop-color:#86130E"/>
	<stop  offset="0.1584" style="stop-color:#9A1416"/>
	<stop  offset="0.2277" style="stop-color:#A8141C"/>
	<stop  offset="0.2969" style="stop-color:#B1141F"/>
	<stop  offset="0.3659" style="stop-color:#B41320"/>
	<stop  offset="1" style="stop-color:#B41320"/>
</linearGradient>
<path class="st3" d="M13.27,151.36c0.09,0.02,0.05,0.32,0.04,0.38c-0.16,1.56,1.21,19.99,22.58,61.95c3.86,7.57,8,15.19,14.37,23.1
	c3.86,4.8,7.52,8.42,8.59,9.47c3.35,3.28,6.03,5.44,10.32,8.91c2.56,2.07,3.19,2.48,3.69,2.79c4.24,2.59,8.68,3.3,11.73,3.5
	c-0.21,0.12-0.55,0.3-0.98,0.5c-2.29,1.05-4.39,1.3-5.6,1.41c-19.67,1.74-35.97-1.38-35.97-1.38c-0.81-0.16-1.46-0.29-1.84-0.37
	c-0.33-0.1-0.82-0.27-1.41-0.48c-17.78-6.5-24.13-25.85-29.43-39.35c-2.12-5.38-5.86-16.51-5.92-30.91
	c-0.02-4.98,0.02-14.56,3.95-25.88C9.11,160.02,12.79,151.22,13.27,151.36z"/>
</svg>
