<?xml version="1.0" encoding="utf-8" standalone="no"?>
<!DOCTYPE svg PUBLIC "-//W3C//DTD SVG 1.1//EN"
  "http://www.w3.org/Graphics/SVG/1.1/DTD/svg11.dtd">
<svg xmlns:xlink="http://www.w3.org/1999/xlink" width="1080pt" height="273.6pt" viewBox="0 0 1080 273.6" xmlns="http://www.w3.org/2000/svg" version="1.1">
 <metadata>
  <rdf:RDF xmlns:dc="http://purl.org/dc/elements/1.1/" xmlns:cc="http://creativecommons.org/ns#" xmlns:rdf="http://www.w3.org/1999/02/22-rdf-syntax-ns#">
   <cc:Work>
    <dc:type rdf:resource="http://purl.org/dc/dcmitype/StillImage"/>
    <dc:date>2022-02-15T09:22:08.623384</dc:date>
    <dc:format>image/svg+xml</dc:format>
    <dc:creator>
     <cc:Agent>
      <dc:title>Matplotlib v3.5.1, https://matplotlib.org/</dc:title>
     </cc:Agent>
    </dc:creator>
   </cc:Work>
  </rdf:RDF>
 </metadata>
 <defs>
  <style type="text/css">*{stroke-linejoin: round; stroke-linecap: butt}</style>
 </defs>
 <g id="figure_1">
  <g id="patch_1">
   <path d="M 0 273.6 
L 1080 273.6 
L 1080 0 
L 0 0 
z
" style="fill: #ffffff"/>
  </g>
  <g id="axes_1">
   <g id="patch_2">
    <path d="M 135 239.4 
L 279.310345 239.4 
L 279.310345 32.832 
L 135 32.832 
z
" style="fill: #ffffff"/>
   </g>
   <g id="matplotlib.axis_1">
    <g id="xtick_1">
     <g id="line2d_1">
      <defs>
       <path id="mf17a5f0bdf" d="M 0 0 
L 0 9 
" style="stroke: #262626; stroke-width: 1.875"/>
      </defs>
      <g>
       <use xlink:href="#mf17a5f0bdf" x="147.124022" y="239.4" style="fill: #262626; stroke: #262626; stroke-width: 1.875"/>
      </g>
     </g>
     <g id="text_1">
      <!-- −1 -->
      <g style="fill: #262626" transform="translate(141.480249 258.986234)scale(0.099 -0.099)">
       <defs>
        <path id="ArialMT-2212" d="M 3381 1997 
L 356 1997 
L 356 2522 
L 3381 2522 
L 3381 1997 
z
" transform="scale(0.015625)"/>
        <path id="ArialMT-31" d="M 2384 0 
L 1822 0 
L 1822 3584 
Q 1619 3391 1289 3197 
Q 959 3003 697 2906 
L 697 3450 
Q 1169 3672 1522 3987 
Q 1875 4303 2022 4600 
L 2384 4600 
L 2384 0 
z
" transform="scale(0.015625)"/>
       </defs>
       <use xlink:href="#ArialMT-2212"/>
       <use xlink:href="#ArialMT-31" x="58.398438"/>
      </g>
     </g>
    </g>
    <g id="xtick_2">
     <g id="line2d_2">
      <g>
       <use xlink:href="#mf17a5f0bdf" x="184.233015" y="239.4" style="fill: #262626; stroke: #262626; stroke-width: 1.875"/>
      </g>
     </g>
     <g id="text_2">
      <!-- 0 -->
      <g style="fill: #262626" transform="translate(181.480351 258.986234)scale(0.099 -0.099)">
       <defs>
        <path id="ArialMT-30" d="M 266 2259 
Q 266 3072 433 3567 
Q 600 4063 929 4331 
Q 1259 4600 1759 4600 
Q 2128 4600 2406 4451 
Q 2684 4303 2865 4023 
Q 3047 3744 3150 3342 
Q 3253 2941 3253 2259 
Q 3253 1453 3087 958 
Q 2922 463 2592 192 
Q 2263 -78 1759 -78 
Q 1097 -78 719 397 
Q 266 969 266 2259 
z
M 844 2259 
Q 844 1131 1108 757 
Q 1372 384 1759 384 
Q 2147 384 2411 759 
Q 2675 1134 2675 2259 
Q 2675 3391 2411 3762 
Q 2147 4134 1753 4134 
Q 1366 4134 1134 3806 
Q 844 3388 844 2259 
z
" transform="scale(0.015625)"/>
       </defs>
       <use xlink:href="#ArialMT-30"/>
      </g>
     </g>
    </g>
    <g id="xtick_3">
     <g id="line2d_3">
      <g>
       <use xlink:href="#mf17a5f0bdf" x="221.342008" y="239.4" style="fill: #262626; stroke: #262626; stroke-width: 1.875"/>
      </g>
     </g>
     <g id="text_3">
      <!-- 1 -->
      <g style="fill: #262626" transform="translate(218.589344 258.986234)scale(0.099 -0.099)">
       <use xlink:href="#ArialMT-31"/>
      </g>
     </g>
    </g>
    <g id="xtick_4">
     <g id="line2d_4">
      <g>
       <use xlink:href="#mf17a5f0bdf" x="258.451001" y="239.4" style="fill: #262626; stroke: #262626; stroke-width: 1.875"/>
      </g>
     </g>
     <g id="text_4">
      <!-- 2 -->
      <g style="fill: #262626" transform="translate(255.698337 258.986234)scale(0.099 -0.099)">
       <defs>
        <path id="ArialMT-32" d="M 3222 541 
L 3222 0 
L 194 0 
Q 188 203 259 391 
Q 375 700 629 1000 
Q 884 1300 1366 1694 
Q 2113 2306 2375 2664 
Q 2638 3022 2638 3341 
Q 2638 3675 2398 3904 
Q 2159 4134 1775 4134 
Q 1369 4134 1125 3890 
Q 881 3647 878 3216 
L 300 3275 
Q 359 3922 746 4261 
Q 1134 4600 1788 4600 
Q 2447 4600 2831 4234 
Q 3216 3869 3216 3328 
Q 3216 3053 3103 2787 
Q 2991 2522 2730 2228 
Q 2469 1934 1863 1422 
Q 1356 997 1212 845 
Q 1069 694 975 541 
L 3222 541 
z
" transform="scale(0.015625)"/>
       </defs>
       <use xlink:href="#ArialMT-32"/>
      </g>
     </g>
    </g>
    <g id="text_5">
     <!-- Effect Size -->
     <g style="fill: #262626" transform="translate(181.43936 272.684297)scale(0.108 -0.108)">
      <defs>
       <path id="ArialMT-45" d="M 506 0 
L 506 4581 
L 3819 4581 
L 3819 4041 
L 1113 4041 
L 1113 2638 
L 3647 2638 
L 3647 2100 
L 1113 2100 
L 1113 541 
L 3925 541 
L 3925 0 
L 506 0 
z
" transform="scale(0.015625)"/>
       <path id="ArialMT-66" d="M 556 0 
L 556 2881 
L 59 2881 
L 59 3319 
L 556 3319 
L 556 3672 
Q 556 4006 616 4169 
Q 697 4388 901 4523 
Q 1106 4659 1475 4659 
Q 1713 4659 2000 4603 
L 1916 4113 
Q 1741 4144 1584 4144 
Q 1328 4144 1222 4034 
Q 1116 3925 1116 3625 
L 1116 3319 
L 1763 3319 
L 1763 2881 
L 1116 2881 
L 1116 0 
L 556 0 
z
" transform="scale(0.015625)"/>
       <path id="ArialMT-65" d="M 2694 1069 
L 3275 997 
Q 3138 488 2766 206 
Q 2394 -75 1816 -75 
Q 1088 -75 661 373 
Q 234 822 234 1631 
Q 234 2469 665 2931 
Q 1097 3394 1784 3394 
Q 2450 3394 2872 2941 
Q 3294 2488 3294 1666 
Q 3294 1616 3291 1516 
L 816 1516 
Q 847 969 1125 678 
Q 1403 388 1819 388 
Q 2128 388 2347 550 
Q 2566 713 2694 1069 
z
M 847 1978 
L 2700 1978 
Q 2663 2397 2488 2606 
Q 2219 2931 1791 2931 
Q 1403 2931 1139 2672 
Q 875 2413 847 1978 
z
" transform="scale(0.015625)"/>
       <path id="ArialMT-63" d="M 2588 1216 
L 3141 1144 
Q 3050 572 2676 248 
Q 2303 -75 1759 -75 
Q 1078 -75 664 370 
Q 250 816 250 1647 
Q 250 2184 428 2587 
Q 606 2991 970 3192 
Q 1334 3394 1763 3394 
Q 2303 3394 2647 3120 
Q 2991 2847 3088 2344 
L 2541 2259 
Q 2463 2594 2264 2762 
Q 2066 2931 1784 2931 
Q 1359 2931 1093 2626 
Q 828 2322 828 1663 
Q 828 994 1084 691 
Q 1341 388 1753 388 
Q 2084 388 2306 591 
Q 2528 794 2588 1216 
z
" transform="scale(0.015625)"/>
       <path id="ArialMT-74" d="M 1650 503 
L 1731 6 
Q 1494 -44 1306 -44 
Q 1000 -44 831 53 
Q 663 150 594 308 
Q 525 466 525 972 
L 525 2881 
L 113 2881 
L 113 3319 
L 525 3319 
L 525 4141 
L 1084 4478 
L 1084 3319 
L 1650 3319 
L 1650 2881 
L 1084 2881 
L 1084 941 
Q 1084 700 1114 631 
Q 1144 563 1211 522 
Q 1278 481 1403 481 
Q 1497 481 1650 503 
z
" transform="scale(0.015625)"/>
       <path id="ArialMT-20" transform="scale(0.015625)"/>
       <path id="ArialMT-53" d="M 288 1472 
L 859 1522 
Q 900 1178 1048 958 
Q 1197 738 1509 602 
Q 1822 466 2213 466 
Q 2559 466 2825 569 
Q 3091 672 3220 851 
Q 3350 1031 3350 1244 
Q 3350 1459 3225 1620 
Q 3100 1781 2813 1891 
Q 2628 1963 1997 2114 
Q 1366 2266 1113 2400 
Q 784 2572 623 2826 
Q 463 3081 463 3397 
Q 463 3744 659 4045 
Q 856 4347 1234 4503 
Q 1613 4659 2075 4659 
Q 2584 4659 2973 4495 
Q 3363 4331 3572 4012 
Q 3781 3694 3797 3291 
L 3216 3247 
Q 3169 3681 2898 3903 
Q 2628 4125 2100 4125 
Q 1550 4125 1298 3923 
Q 1047 3722 1047 3438 
Q 1047 3191 1225 3031 
Q 1400 2872 2139 2705 
Q 2878 2538 3153 2413 
Q 3553 2228 3743 1945 
Q 3934 1663 3934 1294 
Q 3934 928 3725 604 
Q 3516 281 3123 101 
Q 2731 -78 2241 -78 
Q 1619 -78 1198 103 
Q 778 284 539 648 
Q 300 1013 288 1472 
z
" transform="scale(0.015625)"/>
       <path id="ArialMT-69" d="M 425 3934 
L 425 4581 
L 988 4581 
L 988 3934 
L 425 3934 
z
M 425 0 
L 425 3319 
L 988 3319 
L 988 0 
L 425 0 
z
" transform="scale(0.015625)"/>
       <path id="ArialMT-7a" d="M 125 0 
L 125 456 
L 2238 2881 
Q 1878 2863 1603 2863 
L 250 2863 
L 250 3319 
L 2963 3319 
L 2963 2947 
L 1166 841 
L 819 456 
Q 1197 484 1528 484 
L 3063 484 
L 3063 0 
L 125 0 
z
" transform="scale(0.015625)"/>
      </defs>
      <use xlink:href="#ArialMT-45"/>
      <use xlink:href="#ArialMT-66" x="66.699219"/>
      <use xlink:href="#ArialMT-66" x="92.732422"/>
      <use xlink:href="#ArialMT-65" x="120.515625"/>
      <use xlink:href="#ArialMT-63" x="176.130859"/>
      <use xlink:href="#ArialMT-74" x="226.130859"/>
      <use xlink:href="#ArialMT-20" x="253.914062"/>
      <use xlink:href="#ArialMT-53" x="281.697266"/>
      <use xlink:href="#ArialMT-69" x="348.396484"/>
      <use xlink:href="#ArialMT-7a" x="370.613281"/>
      <use xlink:href="#ArialMT-65" x="420.613281"/>
     </g>
    </g>
   </g>
   <g id="patch_3">
    <path d="M 141.559561 239.4 
L 148.119122 239.4 
L 148.119122 236.776914 
L 141.559561 236.776914 
z
" clip-path="url(#pb5c4011259)" style="fill: #f8f8ff; fill-opacity: 0.75; stroke: #000000; stroke-width: 0.655956; stroke-linejoin: miter"/>
   </g>
   <g id="patch_4">
    <path d="M 148.119122 239.4 
L 154.678683 239.4 
L 154.678683 234.153829 
L 148.119122 234.153829 
z
" clip-path="url(#pb5c4011259)" style="fill: #f8f8ff; fill-opacity: 0.75; stroke: #000000; stroke-width: 0.655956; stroke-linejoin: miter"/>
   </g>
   <g id="patch_5">
    <path d="M 154.678683 239.4 
L 161.238245 239.4 
L 161.238245 235.465371 
L 154.678683 235.465371 
z
" clip-path="url(#pb5c4011259)" style="fill: #f8f8ff; fill-opacity: 0.75; stroke: #000000; stroke-width: 0.655956; stroke-linejoin: miter"/>
   </g>
   <g id="patch_6">
    <path d="M 161.238245 239.4 
L 167.797806 239.4 
L 167.797806 226.284571 
L 161.238245 226.284571 
z
" clip-path="url(#pb5c4011259)" style="fill: #f8f8ff; fill-opacity: 0.75; stroke: #000000; stroke-width: 0.655956; stroke-linejoin: miter"/>
   </g>
   <g id="patch_7">
    <path d="M 167.797806 239.4 
L 174.357367 239.4 
L 174.357367 214.480686 
L 167.797806 214.480686 
z
" clip-path="url(#pb5c4011259)" style="fill: #f8f8ff; fill-opacity: 0.75; stroke: #000000; stroke-width: 0.655956; stroke-linejoin: miter"/>
   </g>
   <g id="patch_8">
    <path d="M 174.357367 239.4 
L 180.916928 239.4 
L 180.916928 168.576686 
L 174.357367 168.576686 
z
" clip-path="url(#pb5c4011259)" style="fill: #f8f8ff; fill-opacity: 0.75; stroke: #000000; stroke-width: 0.655956; stroke-linejoin: miter"/>
   </g>
   <g id="patch_9">
    <path d="M 180.916928 239.4 
L 187.476489 239.4 
L 187.476489 138.4112 
L 180.916928 138.4112 
z
" clip-path="url(#pb5c4011259)" style="fill: #f8f8ff; fill-opacity: 0.75; stroke: #000000; stroke-width: 0.655956; stroke-linejoin: miter"/>
   </g>
   <g id="patch_10">
    <path d="M 187.476489 239.4 
L 194.03605 239.4 
L 194.03605 74.1456 
L 187.476489 74.1456 
z
" clip-path="url(#pb5c4011259)" style="fill: #f8f8ff; fill-opacity: 0.75; stroke: #000000; stroke-width: 0.655956; stroke-linejoin: miter"/>
   </g>
   <g id="patch_11">
    <path d="M 194.03605 239.4 
L 200.595611 239.4 
L 200.595611 42.668571 
L 194.03605 42.668571 
z
" clip-path="url(#pb5c4011259)" style="fill: #f8f8ff; fill-opacity: 0.75; stroke: #000000; stroke-width: 0.655956; stroke-linejoin: miter"/>
   </g>
   <g id="patch_12">
    <path d="M 200.595611 239.4 
L 207.155172 239.4 
L 207.155172 53.160914 
L 200.595611 53.160914 
z
" clip-path="url(#pb5c4011259)" style="fill: #f8f8ff; fill-opacity: 0.75; stroke: #000000; stroke-width: 0.655956; stroke-linejoin: miter"/>
   </g>
   <g id="patch_13">
    <path d="M 207.155172 239.4 
L 213.714734 239.4 
L 213.714734 102.999543 
L 207.155172 102.999543 
z
" clip-path="url(#pb5c4011259)" style="fill: #f8f8ff; fill-opacity: 0.75; stroke: #000000; stroke-width: 0.655956; stroke-linejoin: miter"/>
   </g>
   <g id="patch_14">
    <path d="M 213.714734 239.4 
L 220.274295 239.4 
L 220.274295 79.391771 
L 213.714734 79.391771 
z
" clip-path="url(#pb5c4011259)" style="fill: #f8f8ff; fill-opacity: 0.75; stroke: #000000; stroke-width: 0.655956; stroke-linejoin: miter"/>
   </g>
   <g id="patch_15">
    <path d="M 220.274295 239.4 
L 226.833856 239.4 
L 226.833856 127.918857 
L 220.274295 127.918857 
z
" clip-path="url(#pb5c4011259)" style="fill: #f8f8ff; fill-opacity: 0.75; stroke: #000000; stroke-width: 0.655956; stroke-linejoin: miter"/>
   </g>
   <g id="patch_16">
    <path d="M 226.833856 239.4 
L 233.393417 239.4 
L 233.393417 190.872914 
L 226.833856 190.872914 
z
" clip-path="url(#pb5c4011259)" style="fill: #f8f8ff; fill-opacity: 0.75; stroke: #000000; stroke-width: 0.655956; stroke-linejoin: miter"/>
   </g>
   <g id="patch_17">
    <path d="M 233.393417 239.4 
L 239.952978 239.4 
L 239.952978 197.430629 
L 233.393417 197.430629 
z
" clip-path="url(#pb5c4011259)" style="fill: #f8f8ff; fill-opacity: 0.75; stroke: #000000; stroke-width: 0.655956; stroke-linejoin: miter"/>
   </g>
   <g id="patch_18">
    <path d="M 239.952978 239.4 
L 246.512539 239.4 
L 246.512539 217.103771 
L 239.952978 217.103771 
z
" clip-path="url(#pb5c4011259)" style="fill: #f8f8ff; fill-opacity: 0.75; stroke: #000000; stroke-width: 0.655956; stroke-linejoin: miter"/>
   </g>
   <g id="patch_19">
    <path d="M 246.512539 239.4 
L 253.0721 239.4 
L 253.0721 231.530743 
L 246.512539 231.530743 
z
" clip-path="url(#pb5c4011259)" style="fill: #f8f8ff; fill-opacity: 0.75; stroke: #000000; stroke-width: 0.655956; stroke-linejoin: miter"/>
   </g>
   <g id="patch_20">
    <path d="M 253.0721 239.4 
L 259.631661 239.4 
L 259.631661 231.530743 
L 253.0721 231.530743 
z
" clip-path="url(#pb5c4011259)" style="fill: #f8f8ff; fill-opacity: 0.75; stroke: #000000; stroke-width: 0.655956; stroke-linejoin: miter"/>
   </g>
   <g id="patch_21">
    <path d="M 259.631661 239.4 
L 266.191223 239.4 
L 266.191223 236.776914 
L 259.631661 236.776914 
z
" clip-path="url(#pb5c4011259)" style="fill: #f8f8ff; fill-opacity: 0.75; stroke: #000000; stroke-width: 0.655956; stroke-linejoin: miter"/>
   </g>
   <g id="patch_22">
    <path d="M 266.191223 239.4 
L 272.750784 239.4 
L 272.750784 236.776914 
L 266.191223 236.776914 
z
" clip-path="url(#pb5c4011259)" style="fill: #f8f8ff; fill-opacity: 0.75; stroke: #000000; stroke-width: 0.655956; stroke-linejoin: miter"/>
   </g>
   <g id="patch_23">
    <path d="M 135 239.4 
L 279.310345 239.4 
" style="fill: none; stroke: #262626; stroke-width: 1.875; stroke-linejoin: miter; stroke-linecap: square"/>
   </g>
   <g id="text_6">
    <!-- CI 95%:(-3.26, 1.03) -->
    <g transform="translate(91.460533 96.657652)scale(0.108 -0.108)">
     <defs>
      <path id="ArialMT-43" d="M 3763 1606 
L 4369 1453 
Q 4178 706 3683 314 
Q 3188 -78 2472 -78 
Q 1731 -78 1267 223 
Q 803 525 561 1097 
Q 319 1669 319 2325 
Q 319 3041 592 3573 
Q 866 4106 1370 4382 
Q 1875 4659 2481 4659 
Q 3169 4659 3637 4309 
Q 4106 3959 4291 3325 
L 3694 3184 
Q 3534 3684 3231 3912 
Q 2928 4141 2469 4141 
Q 1941 4141 1586 3887 
Q 1231 3634 1087 3207 
Q 944 2781 944 2328 
Q 944 1744 1114 1308 
Q 1284 872 1643 656 
Q 2003 441 2422 441 
Q 2931 441 3284 734 
Q 3638 1028 3763 1606 
z
" transform="scale(0.015625)"/>
      <path id="ArialMT-49" d="M 597 0 
L 597 4581 
L 1203 4581 
L 1203 0 
L 597 0 
z
" transform="scale(0.015625)"/>
      <path id="ArialMT-39" d="M 350 1059 
L 891 1109 
Q 959 728 1153 556 
Q 1347 384 1650 384 
Q 1909 384 2104 503 
Q 2300 622 2425 820 
Q 2550 1019 2634 1356 
Q 2719 1694 2719 2044 
Q 2719 2081 2716 2156 
Q 2547 1888 2255 1720 
Q 1963 1553 1622 1553 
Q 1053 1553 659 1965 
Q 266 2378 266 3053 
Q 266 3750 677 4175 
Q 1088 4600 1706 4600 
Q 2153 4600 2523 4359 
Q 2894 4119 3086 3673 
Q 3278 3228 3278 2384 
Q 3278 1506 3087 986 
Q 2897 466 2520 194 
Q 2144 -78 1638 -78 
Q 1100 -78 759 220 
Q 419 519 350 1059 
z
M 2653 3081 
Q 2653 3566 2395 3850 
Q 2138 4134 1775 4134 
Q 1400 4134 1122 3828 
Q 844 3522 844 3034 
Q 844 2597 1108 2323 
Q 1372 2050 1759 2050 
Q 2150 2050 2401 2323 
Q 2653 2597 2653 3081 
z
" transform="scale(0.015625)"/>
      <path id="ArialMT-35" d="M 266 1200 
L 856 1250 
Q 922 819 1161 601 
Q 1400 384 1738 384 
Q 2144 384 2425 690 
Q 2706 997 2706 1503 
Q 2706 1984 2436 2262 
Q 2166 2541 1728 2541 
Q 1456 2541 1237 2417 
Q 1019 2294 894 2097 
L 366 2166 
L 809 4519 
L 3088 4519 
L 3088 3981 
L 1259 3981 
L 1013 2750 
Q 1425 3038 1878 3038 
Q 2478 3038 2890 2622 
Q 3303 2206 3303 1553 
Q 3303 931 2941 478 
Q 2500 -78 1738 -78 
Q 1113 -78 717 272 
Q 322 622 266 1200 
z
" transform="scale(0.015625)"/>
      <path id="ArialMT-25" d="M 372 3481 
Q 372 3972 619 4315 
Q 866 4659 1334 4659 
Q 1766 4659 2048 4351 
Q 2331 4044 2331 3447 
Q 2331 2866 2045 2552 
Q 1759 2238 1341 2238 
Q 925 2238 648 2547 
Q 372 2856 372 3481 
z
M 1350 4272 
Q 1141 4272 1002 4090 
Q 863 3909 863 3425 
Q 863 2984 1003 2804 
Q 1144 2625 1350 2625 
Q 1563 2625 1702 2806 
Q 1841 2988 1841 3469 
Q 1841 3913 1700 4092 
Q 1559 4272 1350 4272 
z
M 1353 -169 
L 3859 4659 
L 4316 4659 
L 1819 -169 
L 1353 -169 
z
M 3334 1075 
Q 3334 1569 3581 1911 
Q 3828 2253 4300 2253 
Q 4731 2253 5014 1945 
Q 5297 1638 5297 1041 
Q 5297 459 5011 145 
Q 4725 -169 4303 -169 
Q 3888 -169 3611 142 
Q 3334 453 3334 1075 
z
M 4316 1866 
Q 4103 1866 3964 1684 
Q 3825 1503 3825 1019 
Q 3825 581 3965 400 
Q 4106 219 4313 219 
Q 4528 219 4667 400 
Q 4806 581 4806 1063 
Q 4806 1506 4665 1686 
Q 4525 1866 4316 1866 
z
" transform="scale(0.015625)"/>
      <path id="ArialMT-3a" d="M 578 2678 
L 578 3319 
L 1219 3319 
L 1219 2678 
L 578 2678 
z
M 578 0 
L 578 641 
L 1219 641 
L 1219 0 
L 578 0 
z
" transform="scale(0.015625)"/>
      <path id="ArialMT-28" d="M 1497 -1347 
Q 1031 -759 709 28 
Q 388 816 388 1659 
Q 388 2403 628 3084 
Q 909 3875 1497 4659 
L 1900 4659 
Q 1522 4009 1400 3731 
Q 1209 3300 1100 2831 
Q 966 2247 966 1656 
Q 966 153 1900 -1347 
L 1497 -1347 
z
" transform="scale(0.015625)"/>
      <path id="ArialMT-2d" d="M 203 1375 
L 203 1941 
L 1931 1941 
L 1931 1375 
L 203 1375 
z
" transform="scale(0.015625)"/>
      <path id="ArialMT-33" d="M 269 1209 
L 831 1284 
Q 928 806 1161 595 
Q 1394 384 1728 384 
Q 2125 384 2398 659 
Q 2672 934 2672 1341 
Q 2672 1728 2419 1979 
Q 2166 2231 1775 2231 
Q 1616 2231 1378 2169 
L 1441 2663 
Q 1497 2656 1531 2656 
Q 1891 2656 2178 2843 
Q 2466 3031 2466 3422 
Q 2466 3731 2256 3934 
Q 2047 4138 1716 4138 
Q 1388 4138 1169 3931 
Q 950 3725 888 3313 
L 325 3413 
Q 428 3978 793 4289 
Q 1159 4600 1703 4600 
Q 2078 4600 2393 4439 
Q 2709 4278 2876 4000 
Q 3044 3722 3044 3409 
Q 3044 3113 2884 2869 
Q 2725 2625 2413 2481 
Q 2819 2388 3044 2092 
Q 3269 1797 3269 1353 
Q 3269 753 2831 336 
Q 2394 -81 1725 -81 
Q 1122 -81 723 278 
Q 325 638 269 1209 
z
" transform="scale(0.015625)"/>
      <path id="ArialMT-2e" d="M 581 0 
L 581 641 
L 1222 641 
L 1222 0 
L 581 0 
z
" transform="scale(0.015625)"/>
      <path id="ArialMT-36" d="M 3184 3459 
L 2625 3416 
Q 2550 3747 2413 3897 
Q 2184 4138 1850 4138 
Q 1581 4138 1378 3988 
Q 1113 3794 959 3422 
Q 806 3050 800 2363 
Q 1003 2672 1297 2822 
Q 1591 2972 1913 2972 
Q 2475 2972 2870 2558 
Q 3266 2144 3266 1488 
Q 3266 1056 3080 686 
Q 2894 316 2569 119 
Q 2244 -78 1831 -78 
Q 1128 -78 684 439 
Q 241 956 241 2144 
Q 241 3472 731 4075 
Q 1159 4600 1884 4600 
Q 2425 4600 2770 4297 
Q 3116 3994 3184 3459 
z
M 888 1484 
Q 888 1194 1011 928 
Q 1134 663 1356 523 
Q 1578 384 1822 384 
Q 2178 384 2434 671 
Q 2691 959 2691 1453 
Q 2691 1928 2437 2201 
Q 2184 2475 1800 2475 
Q 1419 2475 1153 2201 
Q 888 1928 888 1484 
z
" transform="scale(0.015625)"/>
      <path id="ArialMT-2c" d="M 569 0 
L 569 641 
L 1209 641 
L 1209 0 
Q 1209 -353 1084 -570 
Q 959 -788 688 -906 
L 531 -666 
Q 709 -588 793 -436 
Q 878 -284 888 0 
L 569 0 
z
" transform="scale(0.015625)"/>
      <path id="ArialMT-29" d="M 791 -1347 
L 388 -1347 
Q 1322 153 1322 1656 
Q 1322 2244 1188 2822 
Q 1081 3291 891 3722 
Q 769 4003 388 4659 
L 791 4659 
Q 1378 3875 1659 3084 
Q 1900 2403 1900 1659 
Q 1900 816 1576 28 
Q 1253 -759 791 -1347 
z
" transform="scale(0.015625)"/>
     </defs>
     <use xlink:href="#ArialMT-43"/>
     <use xlink:href="#ArialMT-49" x="72.216797"/>
     <use xlink:href="#ArialMT-20" x="100"/>
     <use xlink:href="#ArialMT-39" x="127.783203"/>
     <use xlink:href="#ArialMT-35" x="183.398438"/>
     <use xlink:href="#ArialMT-25" x="239.013672"/>
     <use xlink:href="#ArialMT-3a" x="327.929688"/>
     <use xlink:href="#ArialMT-28" x="355.712891"/>
     <use xlink:href="#ArialMT-2d" x="389.013672"/>
     <use xlink:href="#ArialMT-33" x="422.314453"/>
     <use xlink:href="#ArialMT-2e" x="477.929688"/>
     <use xlink:href="#ArialMT-32" x="505.712891"/>
     <use xlink:href="#ArialMT-36" x="561.328125"/>
     <use xlink:href="#ArialMT-2c" x="616.943359"/>
     <use xlink:href="#ArialMT-20" x="644.726562"/>
     <use xlink:href="#ArialMT-31" x="672.509766"/>
     <use xlink:href="#ArialMT-2e" x="728.125"/>
     <use xlink:href="#ArialMT-30" x="755.908203"/>
     <use xlink:href="#ArialMT-33" x="811.523438"/>
     <use xlink:href="#ArialMT-29" x="867.138672"/>
    </g>
    <!-- Extremes gap: 4.29 -->
    <g transform="translate(91.460533 108.245714)scale(0.108 -0.108)">
     <defs>
      <path id="ArialMT-78" d="M 47 0 
L 1259 1725 
L 138 3319 
L 841 3319 
L 1350 2541 
Q 1494 2319 1581 2169 
Q 1719 2375 1834 2534 
L 2394 3319 
L 3066 3319 
L 1919 1756 
L 3153 0 
L 2463 0 
L 1781 1031 
L 1600 1309 
L 728 0 
L 47 0 
z
" transform="scale(0.015625)"/>
      <path id="ArialMT-72" d="M 416 0 
L 416 3319 
L 922 3319 
L 922 2816 
Q 1116 3169 1280 3281 
Q 1444 3394 1641 3394 
Q 1925 3394 2219 3213 
L 2025 2691 
Q 1819 2813 1613 2813 
Q 1428 2813 1281 2702 
Q 1134 2591 1072 2394 
Q 978 2094 978 1738 
L 978 0 
L 416 0 
z
" transform="scale(0.015625)"/>
      <path id="ArialMT-6d" d="M 422 0 
L 422 3319 
L 925 3319 
L 925 2853 
Q 1081 3097 1340 3245 
Q 1600 3394 1931 3394 
Q 2300 3394 2536 3241 
Q 2772 3088 2869 2813 
Q 3263 3394 3894 3394 
Q 4388 3394 4653 3120 
Q 4919 2847 4919 2278 
L 4919 0 
L 4359 0 
L 4359 2091 
Q 4359 2428 4304 2576 
Q 4250 2725 4106 2815 
Q 3963 2906 3769 2906 
Q 3419 2906 3187 2673 
Q 2956 2441 2956 1928 
L 2956 0 
L 2394 0 
L 2394 2156 
Q 2394 2531 2256 2718 
Q 2119 2906 1806 2906 
Q 1569 2906 1367 2781 
Q 1166 2656 1075 2415 
Q 984 2175 984 1722 
L 984 0 
L 422 0 
z
" transform="scale(0.015625)"/>
      <path id="ArialMT-73" d="M 197 991 
L 753 1078 
Q 800 744 1014 566 
Q 1228 388 1613 388 
Q 2000 388 2187 545 
Q 2375 703 2375 916 
Q 2375 1106 2209 1216 
Q 2094 1291 1634 1406 
Q 1016 1563 777 1677 
Q 538 1791 414 1992 
Q 291 2194 291 2438 
Q 291 2659 392 2848 
Q 494 3038 669 3163 
Q 800 3259 1026 3326 
Q 1253 3394 1513 3394 
Q 1903 3394 2198 3281 
Q 2494 3169 2634 2976 
Q 2775 2784 2828 2463 
L 2278 2388 
Q 2241 2644 2061 2787 
Q 1881 2931 1553 2931 
Q 1166 2931 1000 2803 
Q 834 2675 834 2503 
Q 834 2394 903 2306 
Q 972 2216 1119 2156 
Q 1203 2125 1616 2013 
Q 2213 1853 2448 1751 
Q 2684 1650 2818 1456 
Q 2953 1263 2953 975 
Q 2953 694 2789 445 
Q 2625 197 2315 61 
Q 2006 -75 1616 -75 
Q 969 -75 630 194 
Q 291 463 197 991 
z
" transform="scale(0.015625)"/>
      <path id="ArialMT-67" d="M 319 -275 
L 866 -356 
Q 900 -609 1056 -725 
Q 1266 -881 1628 -881 
Q 2019 -881 2231 -725 
Q 2444 -569 2519 -288 
Q 2563 -116 2559 434 
Q 2191 0 1641 0 
Q 956 0 581 494 
Q 206 988 206 1678 
Q 206 2153 378 2554 
Q 550 2956 876 3175 
Q 1203 3394 1644 3394 
Q 2231 3394 2613 2919 
L 2613 3319 
L 3131 3319 
L 3131 450 
Q 3131 -325 2973 -648 
Q 2816 -972 2473 -1159 
Q 2131 -1347 1631 -1347 
Q 1038 -1347 672 -1080 
Q 306 -813 319 -275 
z
M 784 1719 
Q 784 1066 1043 766 
Q 1303 466 1694 466 
Q 2081 466 2343 764 
Q 2606 1063 2606 1700 
Q 2606 2309 2336 2618 
Q 2066 2928 1684 2928 
Q 1309 2928 1046 2623 
Q 784 2319 784 1719 
z
" transform="scale(0.015625)"/>
      <path id="ArialMT-61" d="M 2588 409 
Q 2275 144 1986 34 
Q 1697 -75 1366 -75 
Q 819 -75 525 192 
Q 231 459 231 875 
Q 231 1119 342 1320 
Q 453 1522 633 1644 
Q 813 1766 1038 1828 
Q 1203 1872 1538 1913 
Q 2219 1994 2541 2106 
Q 2544 2222 2544 2253 
Q 2544 2597 2384 2738 
Q 2169 2928 1744 2928 
Q 1347 2928 1158 2789 
Q 969 2650 878 2297 
L 328 2372 
Q 403 2725 575 2942 
Q 747 3159 1072 3276 
Q 1397 3394 1825 3394 
Q 2250 3394 2515 3294 
Q 2781 3194 2906 3042 
Q 3031 2891 3081 2659 
Q 3109 2516 3109 2141 
L 3109 1391 
Q 3109 606 3145 398 
Q 3181 191 3288 0 
L 2700 0 
Q 2613 175 2588 409 
z
M 2541 1666 
Q 2234 1541 1622 1453 
Q 1275 1403 1131 1340 
Q 988 1278 909 1158 
Q 831 1038 831 891 
Q 831 666 1001 516 
Q 1172 366 1500 366 
Q 1825 366 2078 508 
Q 2331 650 2450 897 
Q 2541 1088 2541 1459 
L 2541 1666 
z
" transform="scale(0.015625)"/>
      <path id="ArialMT-70" d="M 422 -1272 
L 422 3319 
L 934 3319 
L 934 2888 
Q 1116 3141 1344 3267 
Q 1572 3394 1897 3394 
Q 2322 3394 2647 3175 
Q 2972 2956 3137 2557 
Q 3303 2159 3303 1684 
Q 3303 1175 3120 767 
Q 2938 359 2589 142 
Q 2241 -75 1856 -75 
Q 1575 -75 1351 44 
Q 1128 163 984 344 
L 984 -1272 
L 422 -1272 
z
M 931 1641 
Q 931 1000 1190 694 
Q 1450 388 1819 388 
Q 2194 388 2461 705 
Q 2728 1022 2728 1688 
Q 2728 2322 2467 2637 
Q 2206 2953 1844 2953 
Q 1484 2953 1207 2617 
Q 931 2281 931 1641 
z
" transform="scale(0.015625)"/>
      <path id="ArialMT-34" d="M 2069 0 
L 2069 1097 
L 81 1097 
L 81 1613 
L 2172 4581 
L 2631 4581 
L 2631 1613 
L 3250 1613 
L 3250 1097 
L 2631 1097 
L 2631 0 
L 2069 0 
z
M 2069 1613 
L 2069 3678 
L 634 1613 
L 2069 1613 
z
" transform="scale(0.015625)"/>
     </defs>
     <use xlink:href="#ArialMT-45"/>
     <use xlink:href="#ArialMT-78" x="66.699219"/>
     <use xlink:href="#ArialMT-74" x="116.699219"/>
     <use xlink:href="#ArialMT-72" x="144.482422"/>
     <use xlink:href="#ArialMT-65" x="177.783203"/>
     <use xlink:href="#ArialMT-6d" x="233.398438"/>
     <use xlink:href="#ArialMT-65" x="316.699219"/>
     <use xlink:href="#ArialMT-73" x="372.314453"/>
     <use xlink:href="#ArialMT-20" x="422.314453"/>
     <use xlink:href="#ArialMT-67" x="450.097656"/>
     <use xlink:href="#ArialMT-61" x="505.712891"/>
     <use xlink:href="#ArialMT-70" x="561.328125"/>
     <use xlink:href="#ArialMT-3a" x="616.943359"/>
     <use xlink:href="#ArialMT-20" x="644.726562"/>
     <use xlink:href="#ArialMT-34" x="672.509766"/>
     <use xlink:href="#ArialMT-2e" x="728.125"/>
     <use xlink:href="#ArialMT-32" x="755.908203"/>
     <use xlink:href="#ArialMT-39" x="811.523438"/>
    </g>
   </g>
  </g>
  <g id="axes_2">
   <g id="patch_24">
    <path d="M 365.896552 239.4 
L 510.206897 239.4 
L 510.206897 32.832 
L 365.896552 32.832 
z
" style="fill: #ffffff"/>
   </g>
   <g id="matplotlib.axis_2">
    <g id="xtick_5">
     <g id="line2d_5">
      <g>
       <use xlink:href="#mf17a5f0bdf" x="398.667487" y="239.4" style="fill: #262626; stroke: #262626; stroke-width: 1.875"/>
      </g>
     </g>
     <g id="text_7">
      <!-- 0.0 -->
      <g style="fill: #262626" transform="translate(391.786987 258.986234)scale(0.099 -0.099)">
       <use xlink:href="#ArialMT-30"/>
       <use xlink:href="#ArialMT-2e" x="55.615234"/>
       <use xlink:href="#ArialMT-30" x="83.398438"/>
      </g>
     </g>
    </g>
    <g id="xtick_6">
     <g id="line2d_6">
      <g>
       <use xlink:href="#mf17a5f0bdf" x="441.13854" y="239.4" style="fill: #262626; stroke: #262626; stroke-width: 1.875"/>
      </g>
     </g>
     <g id="text_8">
      <!-- 0.5 -->
      <g style="fill: #262626" transform="translate(434.25804 258.986234)scale(0.099 -0.099)">
       <use xlink:href="#ArialMT-30"/>
       <use xlink:href="#ArialMT-2e" x="55.615234"/>
       <use xlink:href="#ArialMT-35" x="83.398438"/>
      </g>
     </g>
    </g>
    <g id="xtick_7">
     <g id="line2d_7">
      <g>
       <use xlink:href="#mf17a5f0bdf" x="483.609593" y="239.4" style="fill: #262626; stroke: #262626; stroke-width: 1.875"/>
      </g>
     </g>
     <g id="text_9">
      <!-- 1.0 -->
      <g style="fill: #262626" transform="translate(476.729093 258.986234)scale(0.099 -0.099)">
       <use xlink:href="#ArialMT-31"/>
       <use xlink:href="#ArialMT-2e" x="55.615234"/>
       <use xlink:href="#ArialMT-30" x="83.398438"/>
      </g>
     </g>
    </g>
    <g id="text_10">
     <!-- Effect Size -->
     <g style="fill: #262626" transform="translate(412.335912 272.684297)scale(0.108 -0.108)">
      <use xlink:href="#ArialMT-45"/>
      <use xlink:href="#ArialMT-66" x="66.699219"/>
      <use xlink:href="#ArialMT-66" x="92.732422"/>
      <use xlink:href="#ArialMT-65" x="120.515625"/>
      <use xlink:href="#ArialMT-63" x="176.130859"/>
      <use xlink:href="#ArialMT-74" x="226.130859"/>
      <use xlink:href="#ArialMT-20" x="253.914062"/>
      <use xlink:href="#ArialMT-53" x="281.697266"/>
      <use xlink:href="#ArialMT-69" x="348.396484"/>
      <use xlink:href="#ArialMT-7a" x="370.613281"/>
      <use xlink:href="#ArialMT-65" x="420.613281"/>
     </g>
    </g>
   </g>
   <g id="patch_25">
    <path d="M 372.456113 239.4 
L 376.829154 239.4 
L 376.829154 237.164416 
L 372.456113 237.164416 
z
" clip-path="url(#p1bbcabcf1b)" style="fill: #d3d3d3; fill-opacity: 0.75; stroke: #000000; stroke-width: 0.6; stroke-linejoin: miter"/>
   </g>
   <g id="patch_26">
    <path d="M 376.829154 239.4 
L 381.202194 239.4 
L 381.202194 237.164416 
L 376.829154 237.164416 
z
" clip-path="url(#p1bbcabcf1b)" style="fill: #d3d3d3; fill-opacity: 0.75; stroke: #000000; stroke-width: 0.6; stroke-linejoin: miter"/>
   </g>
   <g id="patch_27">
    <path d="M 381.202194 239.4 
L 385.575235 239.4 
L 385.575235 232.693247 
L 381.202194 232.693247 
z
" clip-path="url(#p1bbcabcf1b)" style="fill: #d3d3d3; fill-opacity: 0.75; stroke: #000000; stroke-width: 0.6; stroke-linejoin: miter"/>
   </g>
   <g id="patch_28">
    <path d="M 385.575235 239.4 
L 389.948276 239.4 
L 389.948276 214.808571 
L 385.575235 214.808571 
z
" clip-path="url(#p1bbcabcf1b)" style="fill: #d3d3d3; fill-opacity: 0.75; stroke: #000000; stroke-width: 0.6; stroke-linejoin: miter"/>
   </g>
   <g id="patch_29">
    <path d="M 389.948276 239.4 
L 394.321317 239.4 
L 394.321317 214.808571 
L 389.948276 214.808571 
z
" clip-path="url(#p1bbcabcf1b)" style="fill: #d3d3d3; fill-opacity: 0.75; stroke: #000000; stroke-width: 0.6; stroke-linejoin: miter"/>
   </g>
   <g id="patch_30">
    <path d="M 394.321317 239.4 
L 398.694357 239.4 
L 398.694357 212.572987 
L 394.321317 212.572987 
z
" clip-path="url(#p1bbcabcf1b)" style="fill: #d3d3d3; fill-opacity: 0.75; stroke: #000000; stroke-width: 0.6; stroke-linejoin: miter"/>
   </g>
   <g id="patch_31">
    <path d="M 398.694357 239.4 
L 403.067398 239.4 
L 403.067398 203.630649 
L 398.694357 203.630649 
z
" clip-path="url(#p1bbcabcf1b)" style="fill: #d3d3d3; fill-opacity: 0.75; stroke: #000000; stroke-width: 0.6; stroke-linejoin: miter"/>
   </g>
   <g id="patch_32">
    <path d="M 403.067398 239.4 
L 407.440439 239.4 
L 407.440439 167.861299 
L 403.067398 167.861299 
z
" clip-path="url(#p1bbcabcf1b)" style="fill: #d3d3d3; fill-opacity: 0.75; stroke: #000000; stroke-width: 0.6; stroke-linejoin: miter"/>
   </g>
   <g id="patch_33">
    <path d="M 407.440439 239.4 
L 411.81348 239.4 
L 411.81348 187.981558 
L 407.440439 187.981558 
z
" clip-path="url(#p1bbcabcf1b)" style="fill: #d3d3d3; fill-opacity: 0.75; stroke: #000000; stroke-width: 0.6; stroke-linejoin: miter"/>
   </g>
   <g id="patch_34">
    <path d="M 411.81348 239.4 
L 416.18652 239.4 
L 416.18652 125.385195 
L 411.81348 125.385195 
z
" clip-path="url(#p1bbcabcf1b)" style="fill: #d3d3d3; fill-opacity: 0.75; stroke: #000000; stroke-width: 0.6; stroke-linejoin: miter"/>
   </g>
   <g id="patch_35">
    <path d="M 416.18652 239.4 
L 420.559561 239.4 
L 420.559561 123.14961 
L 416.18652 123.14961 
z
" clip-path="url(#p1bbcabcf1b)" style="fill: #d3d3d3; fill-opacity: 0.75; stroke: #000000; stroke-width: 0.6; stroke-linejoin: miter"/>
   </g>
   <g id="patch_36">
    <path d="M 420.559561 239.4 
L 424.932602 239.4 
L 424.932602 80.673506 
L 420.559561 80.673506 
z
" clip-path="url(#p1bbcabcf1b)" style="fill: #d3d3d3; fill-opacity: 0.75; stroke: #000000; stroke-width: 0.6; stroke-linejoin: miter"/>
   </g>
   <g id="patch_37">
    <path d="M 424.932602 239.4 
L 429.305643 239.4 
L 429.305643 87.38026 
L 424.932602 87.38026 
z
" clip-path="url(#p1bbcabcf1b)" style="fill: #d3d3d3; fill-opacity: 0.75; stroke: #000000; stroke-width: 0.6; stroke-linejoin: miter"/>
   </g>
   <g id="patch_38">
    <path d="M 429.305643 239.4 
L 433.678683 239.4 
L 433.678683 42.668571 
L 429.305643 42.668571 
z
" clip-path="url(#p1bbcabcf1b)" style="fill: #d3d3d3; fill-opacity: 0.75; stroke: #000000; stroke-width: 0.6; stroke-linejoin: miter"/>
   </g>
   <g id="patch_39">
    <path d="M 433.678683 239.4 
L 438.051724 239.4 
L 438.051724 44.904156 
L 433.678683 44.904156 
z
" clip-path="url(#p1bbcabcf1b)" style="fill: #d3d3d3; fill-opacity: 0.75; stroke: #000000; stroke-width: 0.6; stroke-linejoin: miter"/>
   </g>
   <g id="patch_40">
    <path d="M 438.051724 239.4 
L 442.424765 239.4 
L 442.424765 65.024416 
L 438.051724 65.024416 
z
" clip-path="url(#p1bbcabcf1b)" style="fill: #d3d3d3; fill-opacity: 0.75; stroke: #000000; stroke-width: 0.6; stroke-linejoin: miter"/>
   </g>
   <g id="patch_41">
    <path d="M 442.424765 239.4 
L 446.797806 239.4 
L 446.797806 78.437922 
L 442.424765 78.437922 
z
" clip-path="url(#p1bbcabcf1b)" style="fill: #d3d3d3; fill-opacity: 0.75; stroke: #000000; stroke-width: 0.6; stroke-linejoin: miter"/>
   </g>
   <g id="patch_42">
    <path d="M 446.797806 239.4 
L 451.170846 239.4 
L 451.170846 120.914026 
L 446.797806 120.914026 
z
" clip-path="url(#p1bbcabcf1b)" style="fill: #d3d3d3; fill-opacity: 0.75; stroke: #000000; stroke-width: 0.6; stroke-linejoin: miter"/>
   </g>
   <g id="patch_43">
    <path d="M 451.170846 239.4 
L 455.543887 239.4 
L 455.543887 109.736104 
L 451.170846 109.736104 
z
" clip-path="url(#p1bbcabcf1b)" style="fill: #d3d3d3; fill-opacity: 0.75; stroke: #000000; stroke-width: 0.6; stroke-linejoin: miter"/>
   </g>
   <g id="patch_44">
    <path d="M 455.543887 239.4 
L 459.916928 239.4 
L 459.916928 114.207273 
L 455.543887 114.207273 
z
" clip-path="url(#p1bbcabcf1b)" style="fill: #d3d3d3; fill-opacity: 0.75; stroke: #000000; stroke-width: 0.6; stroke-linejoin: miter"/>
   </g>
   <g id="patch_45">
    <path d="M 459.916928 239.4 
L 464.289969 239.4 
L 464.289969 143.26987 
L 459.916928 143.26987 
z
" clip-path="url(#p1bbcabcf1b)" style="fill: #d3d3d3; fill-opacity: 0.75; stroke: #000000; stroke-width: 0.6; stroke-linejoin: miter"/>
   </g>
   <g id="patch_46">
    <path d="M 464.289969 239.4 
L 468.663009 239.4 
L 468.663009 165.625714 
L 464.289969 165.625714 
z
" clip-path="url(#p1bbcabcf1b)" style="fill: #d3d3d3; fill-opacity: 0.75; stroke: #000000; stroke-width: 0.6; stroke-linejoin: miter"/>
   </g>
   <g id="patch_47">
    <path d="M 468.663009 239.4 
L 473.03605 239.4 
L 473.03605 187.981558 
L 468.663009 187.981558 
z
" clip-path="url(#p1bbcabcf1b)" style="fill: #d3d3d3; fill-opacity: 0.75; stroke: #000000; stroke-width: 0.6; stroke-linejoin: miter"/>
   </g>
   <g id="patch_48">
    <path d="M 473.03605 239.4 
L 477.409091 239.4 
L 477.409091 196.923896 
L 473.03605 196.923896 
z
" clip-path="url(#p1bbcabcf1b)" style="fill: #d3d3d3; fill-opacity: 0.75; stroke: #000000; stroke-width: 0.6; stroke-linejoin: miter"/>
   </g>
   <g id="patch_49">
    <path d="M 477.409091 239.4 
L 481.782132 239.4 
L 481.782132 210.337403 
L 477.409091 210.337403 
z
" clip-path="url(#p1bbcabcf1b)" style="fill: #d3d3d3; fill-opacity: 0.75; stroke: #000000; stroke-width: 0.6; stroke-linejoin: miter"/>
   </g>
   <g id="patch_50">
    <path d="M 481.782132 239.4 
L 486.155172 239.4 
L 486.155172 214.808571 
L 481.782132 214.808571 
z
" clip-path="url(#p1bbcabcf1b)" style="fill: #d3d3d3; fill-opacity: 0.75; stroke: #000000; stroke-width: 0.6; stroke-linejoin: miter"/>
   </g>
   <g id="patch_51">
    <path d="M 486.155172 239.4 
L 490.528213 239.4 
L 490.528213 232.693247 
L 486.155172 232.693247 
z
" clip-path="url(#p1bbcabcf1b)" style="fill: #d3d3d3; fill-opacity: 0.75; stroke: #000000; stroke-width: 0.6; stroke-linejoin: miter"/>
   </g>
   <g id="patch_52">
    <path d="M 490.528213 239.4 
L 494.901254 239.4 
L 494.901254 228.222078 
L 490.528213 228.222078 
z
" clip-path="url(#p1bbcabcf1b)" style="fill: #d3d3d3; fill-opacity: 0.75; stroke: #000000; stroke-width: 0.6; stroke-linejoin: miter"/>
   </g>
   <g id="patch_53">
    <path d="M 494.901254 239.4 
L 499.274295 239.4 
L 499.274295 234.928831 
L 494.901254 234.928831 
z
" clip-path="url(#p1bbcabcf1b)" style="fill: #d3d3d3; fill-opacity: 0.75; stroke: #000000; stroke-width: 0.6; stroke-linejoin: miter"/>
   </g>
   <g id="patch_54">
    <path d="M 499.274295 239.4 
L 503.647335 239.4 
L 503.647335 230.457662 
L 499.274295 230.457662 
z
" clip-path="url(#p1bbcabcf1b)" style="fill: #d3d3d3; fill-opacity: 0.75; stroke: #000000; stroke-width: 0.6; stroke-linejoin: miter"/>
   </g>
   <g id="patch_55">
    <path d="M 365.896552 239.4 
L 510.206897 239.4 
" style="fill: none; stroke: #262626; stroke-width: 1.875; stroke-linejoin: miter; stroke-linecap: square"/>
   </g>
   <g id="text_11">
    <!-- CI 95%:(-3.98, 0.07) -->
    <g transform="translate(271.254328 104.854795)scale(0.108 -0.108)">
     <defs>
      <path id="ArialMT-38" d="M 1131 2484 
Q 781 2613 612 2850 
Q 444 3088 444 3419 
Q 444 3919 803 4259 
Q 1163 4600 1759 4600 
Q 2359 4600 2725 4251 
Q 3091 3903 3091 3403 
Q 3091 3084 2923 2848 
Q 2756 2613 2416 2484 
Q 2838 2347 3058 2040 
Q 3278 1734 3278 1309 
Q 3278 722 2862 322 
Q 2447 -78 1769 -78 
Q 1091 -78 675 323 
Q 259 725 259 1325 
Q 259 1772 486 2073 
Q 713 2375 1131 2484 
z
M 1019 3438 
Q 1019 3113 1228 2906 
Q 1438 2700 1772 2700 
Q 2097 2700 2305 2904 
Q 2513 3109 2513 3406 
Q 2513 3716 2298 3927 
Q 2084 4138 1766 4138 
Q 1444 4138 1231 3931 
Q 1019 3725 1019 3438 
z
M 838 1322 
Q 838 1081 952 856 
Q 1066 631 1291 507 
Q 1516 384 1775 384 
Q 2178 384 2440 643 
Q 2703 903 2703 1303 
Q 2703 1709 2433 1975 
Q 2163 2241 1756 2241 
Q 1359 2241 1098 1978 
Q 838 1716 838 1322 
z
" transform="scale(0.015625)"/>
      <path id="ArialMT-37" d="M 303 3981 
L 303 4522 
L 3269 4522 
L 3269 4084 
Q 2831 3619 2401 2847 
Q 1972 2075 1738 1259 
Q 1569 684 1522 0 
L 944 0 
Q 953 541 1156 1306 
Q 1359 2072 1739 2783 
Q 2119 3494 2547 3981 
L 303 3981 
z
" transform="scale(0.015625)"/>
     </defs>
     <use xlink:href="#ArialMT-43"/>
     <use xlink:href="#ArialMT-49" x="72.216797"/>
     <use xlink:href="#ArialMT-20" x="100"/>
     <use xlink:href="#ArialMT-39" x="127.783203"/>
     <use xlink:href="#ArialMT-35" x="183.398438"/>
     <use xlink:href="#ArialMT-25" x="239.013672"/>
     <use xlink:href="#ArialMT-3a" x="327.929688"/>
     <use xlink:href="#ArialMT-28" x="355.712891"/>
     <use xlink:href="#ArialMT-2d" x="389.013672"/>
     <use xlink:href="#ArialMT-33" x="422.314453"/>
     <use xlink:href="#ArialMT-2e" x="477.929688"/>
     <use xlink:href="#ArialMT-39" x="505.712891"/>
     <use xlink:href="#ArialMT-38" x="561.328125"/>
     <use xlink:href="#ArialMT-2c" x="616.943359"/>
     <use xlink:href="#ArialMT-20" x="644.726562"/>
     <use xlink:href="#ArialMT-30" x="672.509766"/>
     <use xlink:href="#ArialMT-2e" x="728.125"/>
     <use xlink:href="#ArialMT-30" x="755.908203"/>
     <use xlink:href="#ArialMT-37" x="811.523438"/>
     <use xlink:href="#ArialMT-29" x="867.138672"/>
    </g>
    <!-- Extremes gap: 4.05 -->
    <g transform="translate(271.254328 116.442857)scale(0.108 -0.108)">
     <use xlink:href="#ArialMT-45"/>
     <use xlink:href="#ArialMT-78" x="66.699219"/>
     <use xlink:href="#ArialMT-74" x="116.699219"/>
     <use xlink:href="#ArialMT-72" x="144.482422"/>
     <use xlink:href="#ArialMT-65" x="177.783203"/>
     <use xlink:href="#ArialMT-6d" x="233.398438"/>
     <use xlink:href="#ArialMT-65" x="316.699219"/>
     <use xlink:href="#ArialMT-73" x="372.314453"/>
     <use xlink:href="#ArialMT-20" x="422.314453"/>
     <use xlink:href="#ArialMT-67" x="450.097656"/>
     <use xlink:href="#ArialMT-61" x="505.712891"/>
     <use xlink:href="#ArialMT-70" x="561.328125"/>
     <use xlink:href="#ArialMT-3a" x="616.943359"/>
     <use xlink:href="#ArialMT-20" x="644.726562"/>
     <use xlink:href="#ArialMT-34" x="672.509766"/>
     <use xlink:href="#ArialMT-2e" x="728.125"/>
     <use xlink:href="#ArialMT-30" x="755.908203"/>
     <use xlink:href="#ArialMT-35" x="811.523438"/>
    </g>
   </g>
  </g>
  <g id="axes_3">
   <g id="patch_56">
    <path d="M 596.793103 239.4 
L 741.103448 239.4 
L 741.103448 32.832 
L 596.793103 32.832 
z
" style="fill: #ffffff"/>
   </g>
   <g id="matplotlib.axis_3">
    <g id="xtick_8">
     <g id="line2d_8">
      <g>
       <use xlink:href="#mf17a5f0bdf" x="597.101381" y="239.4" style="fill: #262626; stroke: #262626; stroke-width: 1.875"/>
      </g>
     </g>
     <g id="text_12">
      <!-- 0.0 -->
      <g style="fill: #262626" transform="translate(590.220881 258.986234)scale(0.099 -0.099)">
       <use xlink:href="#ArialMT-30"/>
       <use xlink:href="#ArialMT-2e" x="55.615234"/>
       <use xlink:href="#ArialMT-30" x="83.398438"/>
      </g>
     </g>
    </g>
    <g id="xtick_9">
     <g id="line2d_9">
      <g>
       <use xlink:href="#mf17a5f0bdf" x="657.94859" y="239.4" style="fill: #262626; stroke: #262626; stroke-width: 1.875"/>
      </g>
     </g>
     <g id="text_13">
      <!-- 0.5 -->
      <g style="fill: #262626" transform="translate(651.06809 258.986234)scale(0.099 -0.099)">
       <use xlink:href="#ArialMT-30"/>
       <use xlink:href="#ArialMT-2e" x="55.615234"/>
       <use xlink:href="#ArialMT-35" x="83.398438"/>
      </g>
     </g>
    </g>
    <g id="xtick_10">
     <g id="line2d_10">
      <g>
       <use xlink:href="#mf17a5f0bdf" x="718.7958" y="239.4" style="fill: #262626; stroke: #262626; stroke-width: 1.875"/>
      </g>
     </g>
     <g id="text_14">
      <!-- 1.0 -->
      <g style="fill: #262626" transform="translate(711.9153 258.986234)scale(0.099 -0.099)">
       <use xlink:href="#ArialMT-31"/>
       <use xlink:href="#ArialMT-2e" x="55.615234"/>
       <use xlink:href="#ArialMT-30" x="83.398438"/>
      </g>
     </g>
    </g>
    <g id="text_15">
     <!-- Effect Size -->
     <g style="fill: #262626" transform="translate(643.232463 272.684297)scale(0.108 -0.108)">
      <use xlink:href="#ArialMT-45"/>
      <use xlink:href="#ArialMT-66" x="66.699219"/>
      <use xlink:href="#ArialMT-66" x="92.732422"/>
      <use xlink:href="#ArialMT-65" x="120.515625"/>
      <use xlink:href="#ArialMT-63" x="176.130859"/>
      <use xlink:href="#ArialMT-74" x="226.130859"/>
      <use xlink:href="#ArialMT-20" x="253.914062"/>
      <use xlink:href="#ArialMT-53" x="281.697266"/>
      <use xlink:href="#ArialMT-69" x="348.396484"/>
      <use xlink:href="#ArialMT-7a" x="370.613281"/>
      <use xlink:href="#ArialMT-65" x="420.613281"/>
     </g>
    </g>
   </g>
   <g id="patch_57">
    <path d="M 603.352665 239.4 
L 606.632445 239.4 
L 606.632445 233.935238 
L 603.352665 233.935238 
z
" clip-path="url(#pa9eaa143e7)" style="fill: #a9a9a9; fill-opacity: 0.75; stroke: #000000; stroke-width: 0.327978; stroke-linejoin: miter"/>
   </g>
   <g id="patch_58">
    <path d="M 606.632445 239.4 
L 609.912226 239.4 
L 609.912226 233.935238 
L 606.632445 233.935238 
z
" clip-path="url(#pa9eaa143e7)" style="fill: #a9a9a9; fill-opacity: 0.75; stroke: #000000; stroke-width: 0.327978; stroke-linejoin: miter"/>
   </g>
   <g id="patch_59">
    <path d="M 609.912226 239.4 
L 613.192006 239.4 
L 613.192006 231.202857 
L 609.912226 231.202857 
z
" clip-path="url(#pa9eaa143e7)" style="fill: #a9a9a9; fill-opacity: 0.75; stroke: #000000; stroke-width: 0.327978; stroke-linejoin: miter"/>
   </g>
   <g id="patch_60">
    <path d="M 613.192006 239.4 
L 616.471787 239.4 
L 616.471787 236.667619 
L 613.192006 236.667619 
z
" clip-path="url(#pa9eaa143e7)" style="fill: #a9a9a9; fill-opacity: 0.75; stroke: #000000; stroke-width: 0.327978; stroke-linejoin: miter"/>
   </g>
   <g id="patch_61">
    <path d="M 616.471787 239.4 
L 619.751567 239.4 
L 619.751567 220.273333 
L 616.471787 220.273333 
z
" clip-path="url(#pa9eaa143e7)" style="fill: #a9a9a9; fill-opacity: 0.75; stroke: #000000; stroke-width: 0.327978; stroke-linejoin: miter"/>
   </g>
   <g id="patch_62">
    <path d="M 619.751567 239.4 
L 623.031348 239.4 
L 623.031348 203.879048 
L 619.751567 203.879048 
z
" clip-path="url(#pa9eaa143e7)" style="fill: #a9a9a9; fill-opacity: 0.75; stroke: #000000; stroke-width: 0.327978; stroke-linejoin: miter"/>
   </g>
   <g id="patch_63">
    <path d="M 623.031348 239.4 
L 626.311129 239.4 
L 626.311129 190.217143 
L 623.031348 190.217143 
z
" clip-path="url(#pa9eaa143e7)" style="fill: #a9a9a9; fill-opacity: 0.75; stroke: #000000; stroke-width: 0.327978; stroke-linejoin: miter"/>
   </g>
   <g id="patch_64">
    <path d="M 626.311129 239.4 
L 629.590909 239.4 
L 629.590909 190.217143 
L 626.311129 190.217143 
z
" clip-path="url(#pa9eaa143e7)" style="fill: #a9a9a9; fill-opacity: 0.75; stroke: #000000; stroke-width: 0.327978; stroke-linejoin: miter"/>
   </g>
   <g id="patch_65">
    <path d="M 629.590909 239.4 
L 632.87069 239.4 
L 632.87069 165.625714 
L 629.590909 165.625714 
z
" clip-path="url(#pa9eaa143e7)" style="fill: #a9a9a9; fill-opacity: 0.75; stroke: #000000; stroke-width: 0.327978; stroke-linejoin: miter"/>
   </g>
   <g id="patch_66">
    <path d="M 632.87069 239.4 
L 636.15047 239.4 
L 636.15047 160.160952 
L 632.87069 160.160952 
z
" clip-path="url(#pa9eaa143e7)" style="fill: #a9a9a9; fill-opacity: 0.75; stroke: #000000; stroke-width: 0.327978; stroke-linejoin: miter"/>
   </g>
   <g id="patch_67">
    <path d="M 636.15047 239.4 
L 639.430251 239.4 
L 639.430251 124.64 
L 636.15047 124.64 
z
" clip-path="url(#pa9eaa143e7)" style="fill: #a9a9a9; fill-opacity: 0.75; stroke: #000000; stroke-width: 0.327978; stroke-linejoin: miter"/>
   </g>
   <g id="patch_68">
    <path d="M 639.430251 239.4 
L 642.710031 239.4 
L 642.710031 135.569524 
L 639.430251 135.569524 
z
" clip-path="url(#pa9eaa143e7)" style="fill: #a9a9a9; fill-opacity: 0.75; stroke: #000000; stroke-width: 0.327978; stroke-linejoin: miter"/>
   </g>
   <g id="patch_69">
    <path d="M 642.710031 239.4 
L 645.989812 239.4 
L 645.989812 110.978095 
L 642.710031 110.978095 
z
" clip-path="url(#pa9eaa143e7)" style="fill: #a9a9a9; fill-opacity: 0.75; stroke: #000000; stroke-width: 0.327978; stroke-linejoin: miter"/>
   </g>
   <g id="patch_70">
    <path d="M 645.989812 239.4 
L 649.269592 239.4 
L 649.269592 119.175238 
L 645.989812 119.175238 
z
" clip-path="url(#pa9eaa143e7)" style="fill: #a9a9a9; fill-opacity: 0.75; stroke: #000000; stroke-width: 0.327978; stroke-linejoin: miter"/>
   </g>
   <g id="patch_71">
    <path d="M 649.269592 239.4 
L 652.549373 239.4 
L 652.549373 102.780952 
L 649.269592 102.780952 
z
" clip-path="url(#pa9eaa143e7)" style="fill: #a9a9a9; fill-opacity: 0.75; stroke: #000000; stroke-width: 0.327978; stroke-linejoin: miter"/>
   </g>
   <g id="patch_72">
    <path d="M 652.549373 239.4 
L 655.829154 239.4 
L 655.829154 69.992381 
L 652.549373 69.992381 
z
" clip-path="url(#pa9eaa143e7)" style="fill: #a9a9a9; fill-opacity: 0.75; stroke: #000000; stroke-width: 0.327978; stroke-linejoin: miter"/>
   </g>
   <g id="patch_73">
    <path d="M 655.829154 239.4 
L 659.108934 239.4 
L 659.108934 83.654286 
L 655.829154 83.654286 
z
" clip-path="url(#pa9eaa143e7)" style="fill: #a9a9a9; fill-opacity: 0.75; stroke: #000000; stroke-width: 0.327978; stroke-linejoin: miter"/>
   </g>
   <g id="patch_74">
    <path d="M 659.108934 239.4 
L 662.388715 239.4 
L 662.388715 53.598095 
L 659.108934 53.598095 
z
" clip-path="url(#pa9eaa143e7)" style="fill: #a9a9a9; fill-opacity: 0.75; stroke: #000000; stroke-width: 0.327978; stroke-linejoin: miter"/>
   </g>
   <g id="patch_75">
    <path d="M 662.388715 239.4 
L 665.668495 239.4 
L 665.668495 42.668571 
L 662.388715 42.668571 
z
" clip-path="url(#pa9eaa143e7)" style="fill: #a9a9a9; fill-opacity: 0.75; stroke: #000000; stroke-width: 0.327978; stroke-linejoin: miter"/>
   </g>
   <g id="patch_76">
    <path d="M 665.668495 239.4 
L 668.948276 239.4 
L 668.948276 127.372381 
L 665.668495 127.372381 
z
" clip-path="url(#pa9eaa143e7)" style="fill: #a9a9a9; fill-opacity: 0.75; stroke: #000000; stroke-width: 0.327978; stroke-linejoin: miter"/>
   </g>
   <g id="patch_77">
    <path d="M 668.948276 239.4 
L 672.228056 239.4 
L 672.228056 113.710476 
L 668.948276 113.710476 
z
" clip-path="url(#pa9eaa143e7)" style="fill: #a9a9a9; fill-opacity: 0.75; stroke: #000000; stroke-width: 0.327978; stroke-linejoin: miter"/>
   </g>
   <g id="patch_78">
    <path d="M 672.228056 239.4 
L 675.507837 239.4 
L 675.507837 108.245714 
L 672.228056 108.245714 
z
" clip-path="url(#pa9eaa143e7)" style="fill: #a9a9a9; fill-opacity: 0.75; stroke: #000000; stroke-width: 0.327978; stroke-linejoin: miter"/>
   </g>
   <g id="patch_79">
    <path d="M 675.507837 239.4 
L 678.787618 239.4 
L 678.787618 132.837143 
L 675.507837 132.837143 
z
" clip-path="url(#pa9eaa143e7)" style="fill: #a9a9a9; fill-opacity: 0.75; stroke: #000000; stroke-width: 0.327978; stroke-linejoin: miter"/>
   </g>
   <g id="patch_80">
    <path d="M 678.787618 239.4 
L 682.067398 239.4 
L 682.067398 116.442857 
L 678.787618 116.442857 
z
" clip-path="url(#pa9eaa143e7)" style="fill: #a9a9a9; fill-opacity: 0.75; stroke: #000000; stroke-width: 0.327978; stroke-linejoin: miter"/>
   </g>
   <g id="patch_81">
    <path d="M 682.067398 239.4 
L 685.347179 239.4 
L 685.347179 124.64 
L 682.067398 124.64 
z
" clip-path="url(#pa9eaa143e7)" style="fill: #a9a9a9; fill-opacity: 0.75; stroke: #000000; stroke-width: 0.327978; stroke-linejoin: miter"/>
   </g>
   <g id="patch_82">
    <path d="M 685.347179 239.4 
L 688.626959 239.4 
L 688.626959 165.625714 
L 685.347179 165.625714 
z
" clip-path="url(#pa9eaa143e7)" style="fill: #a9a9a9; fill-opacity: 0.75; stroke: #000000; stroke-width: 0.327978; stroke-linejoin: miter"/>
   </g>
   <g id="patch_83">
    <path d="M 688.626959 239.4 
L 691.90674 239.4 
L 691.90674 165.625714 
L 688.626959 165.625714 
z
" clip-path="url(#pa9eaa143e7)" style="fill: #a9a9a9; fill-opacity: 0.75; stroke: #000000; stroke-width: 0.327978; stroke-linejoin: miter"/>
   </g>
   <g id="patch_84">
    <path d="M 691.90674 239.4 
L 695.18652 239.4 
L 695.18652 168.358095 
L 691.90674 168.358095 
z
" clip-path="url(#pa9eaa143e7)" style="fill: #a9a9a9; fill-opacity: 0.75; stroke: #000000; stroke-width: 0.327978; stroke-linejoin: miter"/>
   </g>
   <g id="patch_85">
    <path d="M 695.18652 239.4 
L 698.466301 239.4 
L 698.466301 209.34381 
L 695.18652 209.34381 
z
" clip-path="url(#pa9eaa143e7)" style="fill: #a9a9a9; fill-opacity: 0.75; stroke: #000000; stroke-width: 0.327978; stroke-linejoin: miter"/>
   </g>
   <g id="patch_86">
    <path d="M 698.466301 239.4 
L 701.746082 239.4 
L 701.746082 201.146667 
L 698.466301 201.146667 
z
" clip-path="url(#pa9eaa143e7)" style="fill: #a9a9a9; fill-opacity: 0.75; stroke: #000000; stroke-width: 0.327978; stroke-linejoin: miter"/>
   </g>
   <g id="patch_87">
    <path d="M 701.746082 239.4 
L 705.025862 239.4 
L 705.025862 223.005714 
L 701.746082 223.005714 
z
" clip-path="url(#pa9eaa143e7)" style="fill: #a9a9a9; fill-opacity: 0.75; stroke: #000000; stroke-width: 0.327978; stroke-linejoin: miter"/>
   </g>
   <g id="patch_88">
    <path d="M 705.025862 239.4 
L 708.305643 239.4 
L 708.305643 220.273333 
L 705.025862 220.273333 
z
" clip-path="url(#pa9eaa143e7)" style="fill: #a9a9a9; fill-opacity: 0.75; stroke: #000000; stroke-width: 0.327978; stroke-linejoin: miter"/>
   </g>
   <g id="patch_89">
    <path d="M 708.305643 239.4 
L 711.585423 239.4 
L 711.585423 228.470476 
L 708.305643 228.470476 
z
" clip-path="url(#pa9eaa143e7)" style="fill: #a9a9a9; fill-opacity: 0.75; stroke: #000000; stroke-width: 0.327978; stroke-linejoin: miter"/>
   </g>
   <g id="patch_90">
    <path d="M 711.585423 239.4 
L 714.865204 239.4 
L 714.865204 223.005714 
L 711.585423 223.005714 
z
" clip-path="url(#pa9eaa143e7)" style="fill: #a9a9a9; fill-opacity: 0.75; stroke: #000000; stroke-width: 0.327978; stroke-linejoin: miter"/>
   </g>
   <g id="patch_91">
    <path d="M 714.865204 239.4 
L 718.144984 239.4 
L 718.144984 223.005714 
L 714.865204 223.005714 
z
" clip-path="url(#pa9eaa143e7)" style="fill: #a9a9a9; fill-opacity: 0.75; stroke: #000000; stroke-width: 0.327978; stroke-linejoin: miter"/>
   </g>
   <g id="patch_92">
    <path d="M 718.144984 239.4 
L 721.424765 239.4 
L 721.424765 236.667619 
L 718.144984 236.667619 
z
" clip-path="url(#pa9eaa143e7)" style="fill: #a9a9a9; fill-opacity: 0.75; stroke: #000000; stroke-width: 0.327978; stroke-linejoin: miter"/>
   </g>
   <g id="patch_93">
    <path d="M 721.424765 239.4 
L 724.704545 239.4 
L 724.704545 233.935238 
L 721.424765 233.935238 
z
" clip-path="url(#pa9eaa143e7)" style="fill: #a9a9a9; fill-opacity: 0.75; stroke: #000000; stroke-width: 0.327978; stroke-linejoin: miter"/>
   </g>
   <g id="patch_94">
    <path d="M 724.704545 239.4 
L 727.984326 239.4 
L 727.984326 239.4 
L 724.704545 239.4 
z
" clip-path="url(#pa9eaa143e7)" style="fill: #a9a9a9; fill-opacity: 0.75; stroke: #000000; stroke-width: 0.327978; stroke-linejoin: miter"/>
   </g>
   <g id="patch_95">
    <path d="M 727.984326 239.4 
L 731.264107 239.4 
L 731.264107 239.4 
L 727.984326 239.4 
z
" clip-path="url(#pa9eaa143e7)" style="fill: #a9a9a9; fill-opacity: 0.75; stroke: #000000; stroke-width: 0.327978; stroke-linejoin: miter"/>
   </g>
   <g id="patch_96">
    <path d="M 731.264107 239.4 
L 734.543887 239.4 
L 734.543887 233.935238 
L 731.264107 233.935238 
z
" clip-path="url(#pa9eaa143e7)" style="fill: #a9a9a9; fill-opacity: 0.75; stroke: #000000; stroke-width: 0.327978; stroke-linejoin: miter"/>
   </g>
   <g id="patch_97">
    <path d="M 596.793103 239.4 
L 741.103448 239.4 
" style="fill: none; stroke: #262626; stroke-width: 1.875; stroke-linejoin: miter; stroke-linecap: square"/>
   </g>
   <g id="text_16">
    <!-- CI 95%:(-4.59, -0.63) -->
    <g transform="translate(499.745847 102.122414)scale(0.108 -0.108)">
     <use xlink:href="#ArialMT-43"/>
     <use xlink:href="#ArialMT-49" x="72.216797"/>
     <use xlink:href="#ArialMT-20" x="100"/>
     <use xlink:href="#ArialMT-39" x="127.783203"/>
     <use xlink:href="#ArialMT-35" x="183.398438"/>
     <use xlink:href="#ArialMT-25" x="239.013672"/>
     <use xlink:href="#ArialMT-3a" x="327.929688"/>
     <use xlink:href="#ArialMT-28" x="355.712891"/>
     <use xlink:href="#ArialMT-2d" x="389.013672"/>
     <use xlink:href="#ArialMT-34" x="422.314453"/>
     <use xlink:href="#ArialMT-2e" x="477.929688"/>
     <use xlink:href="#ArialMT-35" x="505.712891"/>
     <use xlink:href="#ArialMT-39" x="561.328125"/>
     <use xlink:href="#ArialMT-2c" x="616.943359"/>
     <use xlink:href="#ArialMT-20" x="644.726562"/>
     <use xlink:href="#ArialMT-2d" x="672.509766"/>
     <use xlink:href="#ArialMT-30" x="705.810547"/>
     <use xlink:href="#ArialMT-2e" x="761.425781"/>
     <use xlink:href="#ArialMT-36" x="789.208984"/>
     <use xlink:href="#ArialMT-33" x="844.824219"/>
     <use xlink:href="#ArialMT-29" x="900.439453"/>
    </g>
    <!-- Extremes gap: 3.96 -->
    <g transform="translate(499.745847 113.710476)scale(0.108 -0.108)">
     <use xlink:href="#ArialMT-45"/>
     <use xlink:href="#ArialMT-78" x="66.699219"/>
     <use xlink:href="#ArialMT-74" x="116.699219"/>
     <use xlink:href="#ArialMT-72" x="144.482422"/>
     <use xlink:href="#ArialMT-65" x="177.783203"/>
     <use xlink:href="#ArialMT-6d" x="233.398438"/>
     <use xlink:href="#ArialMT-65" x="316.699219"/>
     <use xlink:href="#ArialMT-73" x="372.314453"/>
     <use xlink:href="#ArialMT-20" x="422.314453"/>
     <use xlink:href="#ArialMT-67" x="450.097656"/>
     <use xlink:href="#ArialMT-61" x="505.712891"/>
     <use xlink:href="#ArialMT-70" x="561.328125"/>
     <use xlink:href="#ArialMT-3a" x="616.943359"/>
     <use xlink:href="#ArialMT-20" x="644.726562"/>
     <use xlink:href="#ArialMT-33" x="672.509766"/>
     <use xlink:href="#ArialMT-2e" x="728.125"/>
     <use xlink:href="#ArialMT-39" x="755.908203"/>
     <use xlink:href="#ArialMT-36" x="811.523438"/>
    </g>
   </g>
  </g>
  <g id="axes_4">
   <g id="patch_98">
    <path d="M 827.689655 239.4 
L 972 239.4 
L 972 32.832 
L 827.689655 32.832 
z
" style="fill: #ffffff"/>
   </g>
   <g id="matplotlib.axis_4">
    <g id="xtick_11">
     <g id="line2d_11">
      <g>
       <use xlink:href="#mf17a5f0bdf" x="831.473506" y="239.4" style="fill: #262626; stroke: #262626; stroke-width: 1.875"/>
      </g>
     </g>
     <g id="text_17">
      <!-- 0.0 -->
      <g style="fill: #262626" transform="translate(824.593006 258.986234)scale(0.099 -0.099)">
       <use xlink:href="#ArialMT-30"/>
       <use xlink:href="#ArialMT-2e" x="55.615234"/>
       <use xlink:href="#ArialMT-30" x="83.398438"/>
      </g>
     </g>
    </g>
    <g id="xtick_12">
     <g id="line2d_12">
      <g>
       <use xlink:href="#mf17a5f0bdf" x="897.740719" y="239.4" style="fill: #262626; stroke: #262626; stroke-width: 1.875"/>
      </g>
     </g>
     <g id="text_18">
      <!-- 0.5 -->
      <g style="fill: #262626" transform="translate(890.860219 258.986234)scale(0.099 -0.099)">
       <use xlink:href="#ArialMT-30"/>
       <use xlink:href="#ArialMT-2e" x="55.615234"/>
       <use xlink:href="#ArialMT-35" x="83.398438"/>
      </g>
     </g>
    </g>
    <g id="xtick_13">
     <g id="line2d_13">
      <g>
       <use xlink:href="#mf17a5f0bdf" x="964.007932" y="239.4" style="fill: #262626; stroke: #262626; stroke-width: 1.875"/>
      </g>
     </g>
     <g id="text_19">
      <!-- 1.0 -->
      <g style="fill: #262626" transform="translate(957.127432 258.986234)scale(0.099 -0.099)">
       <use xlink:href="#ArialMT-31"/>
       <use xlink:href="#ArialMT-2e" x="55.615234"/>
       <use xlink:href="#ArialMT-30" x="83.398438"/>
      </g>
     </g>
    </g>
    <g id="text_20">
     <!-- Effect Size -->
     <g style="fill: #262626" transform="translate(874.129015 272.684297)scale(0.108 -0.108)">
      <use xlink:href="#ArialMT-45"/>
      <use xlink:href="#ArialMT-66" x="66.699219"/>
      <use xlink:href="#ArialMT-66" x="92.732422"/>
      <use xlink:href="#ArialMT-65" x="120.515625"/>
      <use xlink:href="#ArialMT-63" x="176.130859"/>
      <use xlink:href="#ArialMT-74" x="226.130859"/>
      <use xlink:href="#ArialMT-20" x="253.914062"/>
      <use xlink:href="#ArialMT-53" x="281.697266"/>
      <use xlink:href="#ArialMT-69" x="348.396484"/>
      <use xlink:href="#ArialMT-7a" x="370.613281"/>
      <use xlink:href="#ArialMT-65" x="420.613281"/>
     </g>
    </g>
   </g>
   <g id="patch_99">
    <path d="M 834.249216 239.4 
L 836.511134 239.4 
L 836.511134 235.756825 
L 834.249216 235.756825 
z
" clip-path="url(#pf1e5c73aab)" style="fill-opacity: 0.75; stroke: #000000; stroke-width: 0.226192; stroke-linejoin: miter"/>
   </g>
   <g id="patch_100">
    <path d="M 836.511134 239.4 
L 838.773052 239.4 
L 838.773052 239.4 
L 836.511134 239.4 
z
" clip-path="url(#pf1e5c73aab)" style="fill-opacity: 0.75; stroke: #000000; stroke-width: 0.226192; stroke-linejoin: miter"/>
   </g>
   <g id="patch_101">
    <path d="M 838.773052 239.4 
L 841.034969 239.4 
L 841.034969 239.4 
L 838.773052 239.4 
z
" clip-path="url(#pf1e5c73aab)" style="fill-opacity: 0.75; stroke: #000000; stroke-width: 0.226192; stroke-linejoin: miter"/>
   </g>
   <g id="patch_102">
    <path d="M 841.034969 239.4 
L 843.296887 239.4 
L 843.296887 239.4 
L 841.034969 239.4 
z
" clip-path="url(#pf1e5c73aab)" style="fill-opacity: 0.75; stroke: #000000; stroke-width: 0.226192; stroke-linejoin: miter"/>
   </g>
   <g id="patch_103">
    <path d="M 843.296887 239.4 
L 845.558804 239.4 
L 845.558804 239.4 
L 843.296887 239.4 
z
" clip-path="url(#pf1e5c73aab)" style="fill-opacity: 0.75; stroke: #000000; stroke-width: 0.226192; stroke-linejoin: miter"/>
   </g>
   <g id="patch_104">
    <path d="M 845.558804 239.4 
L 847.820722 239.4 
L 847.820722 235.756825 
L 845.558804 235.756825 
z
" clip-path="url(#pf1e5c73aab)" style="fill-opacity: 0.75; stroke: #000000; stroke-width: 0.226192; stroke-linejoin: miter"/>
   </g>
   <g id="patch_105">
    <path d="M 847.820722 239.4 
L 850.08264 239.4 
L 850.08264 239.4 
L 847.820722 239.4 
z
" clip-path="url(#pf1e5c73aab)" style="fill-opacity: 0.75; stroke: #000000; stroke-width: 0.226192; stroke-linejoin: miter"/>
   </g>
   <g id="patch_106">
    <path d="M 850.08264 239.4 
L 852.344557 239.4 
L 852.344557 235.756825 
L 850.08264 235.756825 
z
" clip-path="url(#pf1e5c73aab)" style="fill-opacity: 0.75; stroke: #000000; stroke-width: 0.226192; stroke-linejoin: miter"/>
   </g>
   <g id="patch_107">
    <path d="M 852.344557 239.4 
L 854.606475 239.4 
L 854.606475 239.4 
L 852.344557 239.4 
z
" clip-path="url(#pf1e5c73aab)" style="fill-opacity: 0.75; stroke: #000000; stroke-width: 0.226192; stroke-linejoin: miter"/>
   </g>
   <g id="patch_108">
    <path d="M 854.606475 239.4 
L 856.868393 239.4 
L 856.868393 239.4 
L 854.606475 239.4 
z
" clip-path="url(#pf1e5c73aab)" style="fill-opacity: 0.75; stroke: #000000; stroke-width: 0.226192; stroke-linejoin: miter"/>
   </g>
   <g id="patch_109">
    <path d="M 856.868393 239.4 
L 859.13031 239.4 
L 859.13031 239.4 
L 856.868393 239.4 
z
" clip-path="url(#pf1e5c73aab)" style="fill-opacity: 0.75; stroke: #000000; stroke-width: 0.226192; stroke-linejoin: miter"/>
   </g>
   <g id="patch_110">
    <path d="M 859.13031 239.4 
L 861.392228 239.4 
L 861.392228 235.756825 
L 859.13031 235.756825 
z
" clip-path="url(#pf1e5c73aab)" style="fill-opacity: 0.75; stroke: #000000; stroke-width: 0.226192; stroke-linejoin: miter"/>
   </g>
   <g id="patch_111">
    <path d="M 861.392228 239.4 
L 863.654145 239.4 
L 863.654145 224.827302 
L 861.392228 224.827302 
z
" clip-path="url(#pf1e5c73aab)" style="fill-opacity: 0.75; stroke: #000000; stroke-width: 0.226192; stroke-linejoin: miter"/>
   </g>
   <g id="patch_112">
    <path d="M 863.654145 239.4 
L 865.916063 239.4 
L 865.916063 217.540952 
L 863.654145 217.540952 
z
" clip-path="url(#pf1e5c73aab)" style="fill-opacity: 0.75; stroke: #000000; stroke-width: 0.226192; stroke-linejoin: miter"/>
   </g>
   <g id="patch_113">
    <path d="M 865.916063 239.4 
L 868.177981 239.4 
L 868.177981 228.470476 
L 865.916063 228.470476 
z
" clip-path="url(#pf1e5c73aab)" style="fill-opacity: 0.75; stroke: #000000; stroke-width: 0.226192; stroke-linejoin: miter"/>
   </g>
   <g id="patch_114">
    <path d="M 868.177981 239.4 
L 870.439898 239.4 
L 870.439898 210.254603 
L 868.177981 210.254603 
z
" clip-path="url(#pf1e5c73aab)" style="fill-opacity: 0.75; stroke: #000000; stroke-width: 0.226192; stroke-linejoin: miter"/>
   </g>
   <g id="patch_115">
    <path d="M 870.439898 239.4 
L 872.701816 239.4 
L 872.701816 195.681905 
L 870.439898 195.681905 
z
" clip-path="url(#pf1e5c73aab)" style="fill-opacity: 0.75; stroke: #000000; stroke-width: 0.226192; stroke-linejoin: miter"/>
   </g>
   <g id="patch_116">
    <path d="M 872.701816 239.4 
L 874.963734 239.4 
L 874.963734 213.897778 
L 872.701816 213.897778 
z
" clip-path="url(#pf1e5c73aab)" style="fill-opacity: 0.75; stroke: #000000; stroke-width: 0.226192; stroke-linejoin: miter"/>
   </g>
   <g id="patch_117">
    <path d="M 874.963734 239.4 
L 877.225651 239.4 
L 877.225651 202.968254 
L 874.963734 202.968254 
z
" clip-path="url(#pf1e5c73aab)" style="fill-opacity: 0.75; stroke: #000000; stroke-width: 0.226192; stroke-linejoin: miter"/>
   </g>
   <g id="patch_118">
    <path d="M 877.225651 239.4 
L 879.487569 239.4 
L 879.487569 202.968254 
L 877.225651 202.968254 
z
" clip-path="url(#pf1e5c73aab)" style="fill-opacity: 0.75; stroke: #000000; stroke-width: 0.226192; stroke-linejoin: miter"/>
   </g>
   <g id="patch_119">
    <path d="M 879.487569 239.4 
L 881.749487 239.4 
L 881.749487 137.391111 
L 879.487569 137.391111 
z
" clip-path="url(#pf1e5c73aab)" style="fill-opacity: 0.75; stroke: #000000; stroke-width: 0.226192; stroke-linejoin: miter"/>
   </g>
   <g id="patch_120">
    <path d="M 881.749487 239.4 
L 884.011404 239.4 
L 884.011404 141.034286 
L 881.749487 141.034286 
z
" clip-path="url(#pf1e5c73aab)" style="fill-opacity: 0.75; stroke: #000000; stroke-width: 0.226192; stroke-linejoin: miter"/>
   </g>
   <g id="patch_121">
    <path d="M 884.011404 239.4 
L 886.273322 239.4 
L 886.273322 137.391111 
L 884.011404 137.391111 
z
" clip-path="url(#pf1e5c73aab)" style="fill-opacity: 0.75; stroke: #000000; stroke-width: 0.226192; stroke-linejoin: miter"/>
   </g>
   <g id="patch_122">
    <path d="M 886.273322 239.4 
L 888.535239 239.4 
L 888.535239 133.747937 
L 886.273322 133.747937 
z
" clip-path="url(#pf1e5c73aab)" style="fill-opacity: 0.75; stroke: #000000; stroke-width: 0.226192; stroke-linejoin: miter"/>
   </g>
   <g id="patch_123">
    <path d="M 888.535239 239.4 
L 890.797157 239.4 
L 890.797157 90.029841 
L 888.535239 90.029841 
z
" clip-path="url(#pf1e5c73aab)" style="fill-opacity: 0.75; stroke: #000000; stroke-width: 0.226192; stroke-linejoin: miter"/>
   </g>
   <g id="patch_124">
    <path d="M 890.797157 239.4 
L 893.059075 239.4 
L 893.059075 53.598095 
L 890.797157 53.598095 
z
" clip-path="url(#pf1e5c73aab)" style="fill-opacity: 0.75; stroke: #000000; stroke-width: 0.226192; stroke-linejoin: miter"/>
   </g>
   <g id="patch_125">
    <path d="M 893.059075 239.4 
L 895.320992 239.4 
L 895.320992 104.60254 
L 893.059075 104.60254 
z
" clip-path="url(#pf1e5c73aab)" style="fill-opacity: 0.75; stroke: #000000; stroke-width: 0.226192; stroke-linejoin: miter"/>
   </g>
   <g id="patch_126">
    <path d="M 895.320992 239.4 
L 897.58291 239.4 
L 897.58291 49.954921 
L 895.320992 49.954921 
z
" clip-path="url(#pf1e5c73aab)" style="fill-opacity: 0.75; stroke: #000000; stroke-width: 0.226192; stroke-linejoin: miter"/>
   </g>
   <g id="patch_127">
    <path d="M 897.58291 239.4 
L 899.844828 239.4 
L 899.844828 49.954921 
L 897.58291 49.954921 
z
" clip-path="url(#pf1e5c73aab)" style="fill-opacity: 0.75; stroke: #000000; stroke-width: 0.226192; stroke-linejoin: miter"/>
   </g>
   <g id="patch_128">
    <path d="M 899.844828 239.4 
L 902.106745 239.4 
L 902.106745 79.100317 
L 899.844828 79.100317 
z
" clip-path="url(#pf1e5c73aab)" style="fill-opacity: 0.75; stroke: #000000; stroke-width: 0.226192; stroke-linejoin: miter"/>
   </g>
   <g id="patch_129">
    <path d="M 902.106745 239.4 
L 904.368663 239.4 
L 904.368663 75.457143 
L 902.106745 75.457143 
z
" clip-path="url(#pf1e5c73aab)" style="fill-opacity: 0.75; stroke: #000000; stroke-width: 0.226192; stroke-linejoin: miter"/>
   </g>
   <g id="patch_130">
    <path d="M 904.368663 239.4 
L 906.63058 239.4 
L 906.63058 42.668571 
L 904.368663 42.668571 
z
" clip-path="url(#pf1e5c73aab)" style="fill-opacity: 0.75; stroke: #000000; stroke-width: 0.226192; stroke-linejoin: miter"/>
   </g>
   <g id="patch_131">
    <path d="M 906.63058 239.4 
L 908.892498 239.4 
L 908.892498 71.813968 
L 906.63058 71.813968 
z
" clip-path="url(#pf1e5c73aab)" style="fill-opacity: 0.75; stroke: #000000; stroke-width: 0.226192; stroke-linejoin: miter"/>
   </g>
   <g id="patch_132">
    <path d="M 908.892498 239.4 
L 911.154416 239.4 
L 911.154416 46.311746 
L 908.892498 46.311746 
z
" clip-path="url(#pf1e5c73aab)" style="fill-opacity: 0.75; stroke: #000000; stroke-width: 0.226192; stroke-linejoin: miter"/>
   </g>
   <g id="patch_133">
    <path d="M 911.154416 239.4 
L 913.416333 239.4 
L 913.416333 60.884444 
L 911.154416 60.884444 
z
" clip-path="url(#pf1e5c73aab)" style="fill-opacity: 0.75; stroke: #000000; stroke-width: 0.226192; stroke-linejoin: miter"/>
   </g>
   <g id="patch_134">
    <path d="M 913.416333 239.4 
L 915.678251 239.4 
L 915.678251 46.311746 
L 913.416333 46.311746 
z
" clip-path="url(#pf1e5c73aab)" style="fill-opacity: 0.75; stroke: #000000; stroke-width: 0.226192; stroke-linejoin: miter"/>
   </g>
   <g id="patch_135">
    <path d="M 915.678251 239.4 
L 917.940169 239.4 
L 917.940169 90.029841 
L 915.678251 90.029841 
z
" clip-path="url(#pf1e5c73aab)" style="fill-opacity: 0.75; stroke: #000000; stroke-width: 0.226192; stroke-linejoin: miter"/>
   </g>
   <g id="patch_136">
    <path d="M 917.940169 239.4 
L 920.202086 239.4 
L 920.202086 141.034286 
L 917.940169 141.034286 
z
" clip-path="url(#pf1e5c73aab)" style="fill-opacity: 0.75; stroke: #000000; stroke-width: 0.226192; stroke-linejoin: miter"/>
   </g>
   <g id="patch_137">
    <path d="M 920.202086 239.4 
L 922.464004 239.4 
L 922.464004 162.893333 
L 920.202086 162.893333 
z
" clip-path="url(#pf1e5c73aab)" style="fill-opacity: 0.75; stroke: #000000; stroke-width: 0.226192; stroke-linejoin: miter"/>
   </g>
   <g id="patch_138">
    <path d="M 922.464004 239.4 
L 924.725922 239.4 
L 924.725922 137.391111 
L 922.464004 137.391111 
z
" clip-path="url(#pf1e5c73aab)" style="fill-opacity: 0.75; stroke: #000000; stroke-width: 0.226192; stroke-linejoin: miter"/>
   </g>
   <g id="patch_139">
    <path d="M 924.725922 239.4 
L 926.987839 239.4 
L 926.987839 126.461587 
L 924.725922 126.461587 
z
" clip-path="url(#pf1e5c73aab)" style="fill-opacity: 0.75; stroke: #000000; stroke-width: 0.226192; stroke-linejoin: miter"/>
   </g>
   <g id="patch_140">
    <path d="M 926.987839 239.4 
L 929.249757 239.4 
L 929.249757 148.320635 
L 926.987839 148.320635 
z
" clip-path="url(#pf1e5c73aab)" style="fill-opacity: 0.75; stroke: #000000; stroke-width: 0.226192; stroke-linejoin: miter"/>
   </g>
   <g id="patch_141">
    <path d="M 929.249757 239.4 
L 931.511674 239.4 
L 931.511674 166.536508 
L 929.249757 166.536508 
z
" clip-path="url(#pf1e5c73aab)" style="fill-opacity: 0.75; stroke: #000000; stroke-width: 0.226192; stroke-linejoin: miter"/>
   </g>
   <g id="patch_142">
    <path d="M 931.511674 239.4 
L 933.773592 239.4 
L 933.773592 192.03873 
L 931.511674 192.03873 
z
" clip-path="url(#pf1e5c73aab)" style="fill-opacity: 0.75; stroke: #000000; stroke-width: 0.226192; stroke-linejoin: miter"/>
   </g>
   <g id="patch_143">
    <path d="M 933.773592 239.4 
L 936.03551 239.4 
L 936.03551 210.254603 
L 933.773592 210.254603 
z
" clip-path="url(#pf1e5c73aab)" style="fill-opacity: 0.75; stroke: #000000; stroke-width: 0.226192; stroke-linejoin: miter"/>
   </g>
   <g id="patch_144">
    <path d="M 936.03551 239.4 
L 938.297427 239.4 
L 938.297427 221.184127 
L 936.03551 221.184127 
z
" clip-path="url(#pf1e5c73aab)" style="fill-opacity: 0.75; stroke: #000000; stroke-width: 0.226192; stroke-linejoin: miter"/>
   </g>
   <g id="patch_145">
    <path d="M 938.297427 239.4 
L 940.559345 239.4 
L 940.559345 217.540952 
L 938.297427 217.540952 
z
" clip-path="url(#pf1e5c73aab)" style="fill-opacity: 0.75; stroke: #000000; stroke-width: 0.226192; stroke-linejoin: miter"/>
   </g>
   <g id="patch_146">
    <path d="M 940.559345 239.4 
L 942.821263 239.4 
L 942.821263 210.254603 
L 940.559345 210.254603 
z
" clip-path="url(#pf1e5c73aab)" style="fill-opacity: 0.75; stroke: #000000; stroke-width: 0.226192; stroke-linejoin: miter"/>
   </g>
   <g id="patch_147">
    <path d="M 942.821263 239.4 
L 945.08318 239.4 
L 945.08318 235.756825 
L 942.821263 235.756825 
z
" clip-path="url(#pf1e5c73aab)" style="fill-opacity: 0.75; stroke: #000000; stroke-width: 0.226192; stroke-linejoin: miter"/>
   </g>
   <g id="patch_148">
    <path d="M 945.08318 239.4 
L 947.345098 239.4 
L 947.345098 224.827302 
L 945.08318 224.827302 
z
" clip-path="url(#pf1e5c73aab)" style="fill-opacity: 0.75; stroke: #000000; stroke-width: 0.226192; stroke-linejoin: miter"/>
   </g>
   <g id="patch_149">
    <path d="M 947.345098 239.4 
L 949.607015 239.4 
L 949.607015 224.827302 
L 947.345098 224.827302 
z
" clip-path="url(#pf1e5c73aab)" style="fill-opacity: 0.75; stroke: #000000; stroke-width: 0.226192; stroke-linejoin: miter"/>
   </g>
   <g id="patch_150">
    <path d="M 949.607015 239.4 
L 951.868933 239.4 
L 951.868933 235.756825 
L 949.607015 235.756825 
z
" clip-path="url(#pf1e5c73aab)" style="fill-opacity: 0.75; stroke: #000000; stroke-width: 0.226192; stroke-linejoin: miter"/>
   </g>
   <g id="patch_151">
    <path d="M 951.868933 239.4 
L 954.130851 239.4 
L 954.130851 232.113651 
L 951.868933 232.113651 
z
" clip-path="url(#pf1e5c73aab)" style="fill-opacity: 0.75; stroke: #000000; stroke-width: 0.226192; stroke-linejoin: miter"/>
   </g>
   <g id="patch_152">
    <path d="M 954.130851 239.4 
L 956.392768 239.4 
L 956.392768 239.4 
L 954.130851 239.4 
z
" clip-path="url(#pf1e5c73aab)" style="fill-opacity: 0.75; stroke: #000000; stroke-width: 0.226192; stroke-linejoin: miter"/>
   </g>
   <g id="patch_153">
    <path d="M 956.392768 239.4 
L 958.654686 239.4 
L 958.654686 239.4 
L 956.392768 239.4 
z
" clip-path="url(#pf1e5c73aab)" style="fill-opacity: 0.75; stroke: #000000; stroke-width: 0.226192; stroke-linejoin: miter"/>
   </g>
   <g id="patch_154">
    <path d="M 958.654686 239.4 
L 960.916604 239.4 
L 960.916604 239.4 
L 958.654686 239.4 
z
" clip-path="url(#pf1e5c73aab)" style="fill-opacity: 0.75; stroke: #000000; stroke-width: 0.226192; stroke-linejoin: miter"/>
   </g>
   <g id="patch_155">
    <path d="M 960.916604 239.4 
L 963.178521 239.4 
L 963.178521 239.4 
L 960.916604 239.4 
z
" clip-path="url(#pf1e5c73aab)" style="fill-opacity: 0.75; stroke: #000000; stroke-width: 0.226192; stroke-linejoin: miter"/>
   </g>
   <g id="patch_156">
    <path d="M 963.178521 239.4 
L 965.440439 239.4 
L 965.440439 232.113651 
L 963.178521 232.113651 
z
" clip-path="url(#pf1e5c73aab)" style="fill-opacity: 0.75; stroke: #000000; stroke-width: 0.226192; stroke-linejoin: miter"/>
   </g>
   <g id="patch_157">
    <path d="M 827.689655 239.4 
L 972 239.4 
" style="fill: none; stroke: #262626; stroke-width: 1.875; stroke-linejoin: miter; stroke-linecap: square"/>
   </g>
   <g id="text_21">
    <!-- CI 95%:(-5.30, -1.48) -->
    <g transform="translate(725.445965 100.300826)scale(0.108 -0.108)">
     <use xlink:href="#ArialMT-43"/>
     <use xlink:href="#ArialMT-49" x="72.216797"/>
     <use xlink:href="#ArialMT-20" x="100"/>
     <use xlink:href="#ArialMT-39" x="127.783203"/>
     <use xlink:href="#ArialMT-35" x="183.398438"/>
     <use xlink:href="#ArialMT-25" x="239.013672"/>
     <use xlink:href="#ArialMT-3a" x="327.929688"/>
     <use xlink:href="#ArialMT-28" x="355.712891"/>
     <use xlink:href="#ArialMT-2d" x="389.013672"/>
     <use xlink:href="#ArialMT-35" x="422.314453"/>
     <use xlink:href="#ArialMT-2e" x="477.929688"/>
     <use xlink:href="#ArialMT-33" x="505.712891"/>
     <use xlink:href="#ArialMT-30" x="561.328125"/>
     <use xlink:href="#ArialMT-2c" x="616.943359"/>
     <use xlink:href="#ArialMT-20" x="644.726562"/>
     <use xlink:href="#ArialMT-2d" x="672.509766"/>
     <use xlink:href="#ArialMT-31" x="705.810547"/>
     <use xlink:href="#ArialMT-2e" x="761.425781"/>
     <use xlink:href="#ArialMT-34" x="789.208984"/>
     <use xlink:href="#ArialMT-38" x="844.824219"/>
     <use xlink:href="#ArialMT-29" x="900.439453"/>
    </g>
    <!-- Extremes gap: 3.81 -->
    <g transform="translate(725.445965 111.888889)scale(0.108 -0.108)">
     <use xlink:href="#ArialMT-45"/>
     <use xlink:href="#ArialMT-78" x="66.699219"/>
     <use xlink:href="#ArialMT-74" x="116.699219"/>
     <use xlink:href="#ArialMT-72" x="144.482422"/>
     <use xlink:href="#ArialMT-65" x="177.783203"/>
     <use xlink:href="#ArialMT-6d" x="233.398438"/>
     <use xlink:href="#ArialMT-65" x="316.699219"/>
     <use xlink:href="#ArialMT-73" x="372.314453"/>
     <use xlink:href="#ArialMT-20" x="422.314453"/>
     <use xlink:href="#ArialMT-67" x="450.097656"/>
     <use xlink:href="#ArialMT-61" x="505.712891"/>
     <use xlink:href="#ArialMT-70" x="561.328125"/>
     <use xlink:href="#ArialMT-3a" x="616.943359"/>
     <use xlink:href="#ArialMT-20" x="644.726562"/>
     <use xlink:href="#ArialMT-33" x="672.509766"/>
     <use xlink:href="#ArialMT-2e" x="728.125"/>
     <use xlink:href="#ArialMT-38" x="755.908203"/>
     <use xlink:href="#ArialMT-31" x="811.523438"/>
    </g>
   </g>
  </g>
 </g>
 <defs>
  <clipPath id="pb5c4011259">
   <rect x="135" y="32.832" width="144.310345" height="206.568"/>
  </clipPath>
  <clipPath id="p1bbcabcf1b">
   <rect x="365.896552" y="32.832" width="144.310345" height="206.568"/>
  </clipPath>
  <clipPath id="pa9eaa143e7">
   <rect x="596.793103" y="32.832" width="144.310345" height="206.568"/>
  </clipPath>
  <clipPath id="pf1e5c73aab">
   <rect x="827.689655" y="32.832" width="144.310345" height="206.568"/>
  </clipPath>
 </defs>
</svg>
