<?xml version="1.0" encoding="utf-8" standalone="no"?>
<!DOCTYPE svg PUBLIC "-//W3C//DTD SVG 1.1//EN"
  "http://www.w3.org/Graphics/SVG/1.1/DTD/svg11.dtd">
<svg xmlns:xlink="http://www.w3.org/1999/xlink" width="432pt" height="288pt" viewBox="0 0 432 288" xmlns="http://www.w3.org/2000/svg" version="1.1">
 <metadata>
  <rdf:RDF xmlns:dc="http://purl.org/dc/elements/1.1/" xmlns:cc="http://creativecommons.org/ns#" xmlns:rdf="http://www.w3.org/1999/02/22-rdf-syntax-ns#">
   <cc:Work>
    <dc:type rdf:resource="http://purl.org/dc/dcmitype/StillImage"/>
    <dc:date>2022-02-15T09:22:05.541977</dc:date>
    <dc:format>image/svg+xml</dc:format>
    <dc:creator>
     <cc:Agent>
      <dc:title>Matplotlib v3.5.1, https://matplotlib.org/</dc:title>
     </cc:Agent>
    </dc:creator>
   </cc:Work>
  </rdf:RDF>
 </metadata>
 <defs>
  <style type="text/css">*{stroke-linejoin: round; stroke-linecap: butt}</style>
 </defs>
 <g id="figure_1">
  <g id="patch_1">
   <path d="M 0 288 
L 432 288 
L 432 0 
L 0 0 
L 0 288 
z
" style="fill: none"/>
  </g>
  <g id="axes_1">
   <g id="patch_2">
    <path d="M 54 252 
L 388.8 252 
L 388.8 34.56 
L 54 34.56 
z
" style="fill: #ffffff"/>
   </g>
   <g id="patch_3">
    <path d="M 69.218182 252 
L 80.275423 252 
L 80.275423 250.259784 
L 69.218182 250.259784 
z
" clip-path="url(#pef6ba72739)" style="fill: #d3d3d3; fill-opacity: 0.5; stroke: #000000; stroke-linejoin: miter"/>
   </g>
   <g id="patch_4">
    <path d="M 80.275423 252 
L 91.332664 252 
L 91.332664 252 
L 80.275423 252 
z
" clip-path="url(#pef6ba72739)" style="fill: #d3d3d3; fill-opacity: 0.5; stroke: #000000; stroke-linejoin: miter"/>
   </g>
   <g id="patch_5">
    <path d="M 91.332664 252 
L 102.389905 252 
L 102.389905 250.259784 
L 91.332664 250.259784 
z
" clip-path="url(#pef6ba72739)" style="fill: #d3d3d3; fill-opacity: 0.5; stroke: #000000; stroke-linejoin: miter"/>
   </g>
   <g id="patch_6">
    <path d="M 102.389905 252 
L 113.447147 252 
L 113.447147 252 
L 102.389905 252 
z
" clip-path="url(#pef6ba72739)" style="fill: #d3d3d3; fill-opacity: 0.5; stroke: #000000; stroke-linejoin: miter"/>
   </g>
   <g id="patch_7">
    <path d="M 113.447147 252 
L 124.504388 252 
L 124.504388 250.259784 
L 113.447147 250.259784 
z
" clip-path="url(#pef6ba72739)" style="fill: #d3d3d3; fill-opacity: 0.5; stroke: #000000; stroke-linejoin: miter"/>
   </g>
   <g id="patch_8">
    <path d="M 124.504388 252 
L 135.561629 252 
L 135.561629 245.039136 
L 124.504388 245.039136 
z
" clip-path="url(#pef6ba72739)" style="fill: #d3d3d3; fill-opacity: 0.5; stroke: #000000; stroke-linejoin: miter"/>
   </g>
   <g id="patch_9">
    <path d="M 135.561629 252 
L 146.61887 252 
L 146.61887 229.377191 
L 135.561629 229.377191 
z
" clip-path="url(#pef6ba72739)" style="fill: #d3d3d3; fill-opacity: 0.5; stroke: #000000; stroke-linejoin: miter"/>
   </g>
   <g id="patch_10">
    <path d="M 146.61887 252 
L 157.676111 252 
L 157.676111 224.156543 
L 146.61887 224.156543 
z
" clip-path="url(#pef6ba72739)" style="fill: #d3d3d3; fill-opacity: 0.5; stroke: #000000; stroke-linejoin: miter"/>
   </g>
   <g id="patch_11">
    <path d="M 157.676111 252 
L 168.733352 252 
L 168.733352 206.754382 
L 157.676111 206.754382 
z
" clip-path="url(#pef6ba72739)" style="fill: #d3d3d3; fill-opacity: 0.5; stroke: #000000; stroke-linejoin: miter"/>
   </g>
   <g id="patch_12">
    <path d="M 168.733352 252 
L 179.790594 252 
L 179.790594 156.288115 
L 168.733352 156.288115 
z
" clip-path="url(#pef6ba72739)" style="fill: #d3d3d3; fill-opacity: 0.5; stroke: #000000; stroke-linejoin: miter"/>
   </g>
   <g id="patch_13">
    <path d="M 179.790594 252 
L 190.847835 252 
L 190.847835 135.405522 
L 179.790594 135.405522 
z
" clip-path="url(#pef6ba72739)" style="fill: #d3d3d3; fill-opacity: 0.5; stroke: #000000; stroke-linejoin: miter"/>
   </g>
   <g id="patch_14">
    <path d="M 190.847835 252 
L 201.905076 252 
L 201.905076 104.081633 
L 190.847835 104.081633 
z
" clip-path="url(#pef6ba72739)" style="fill: #d3d3d3; fill-opacity: 0.5; stroke: #000000; stroke-linejoin: miter"/>
   </g>
   <g id="patch_15">
    <path d="M 201.905076 252 
L 212.962317 252 
L 212.962317 93.640336 
L 201.905076 93.640336 
z
" clip-path="url(#pef6ba72739)" style="fill: #d3d3d3; fill-opacity: 0.5; stroke: #000000; stroke-linejoin: miter"/>
   </g>
   <g id="patch_16">
    <path d="M 212.962317 252 
L 224.019558 252 
L 224.019558 84.939256 
L 212.962317 84.939256 
z
" clip-path="url(#pef6ba72739)" style="fill: #d3d3d3; fill-opacity: 0.5; stroke: #000000; stroke-linejoin: miter"/>
   </g>
   <g id="patch_17">
    <path d="M 224.019558 252 
L 235.0768 252 
L 235.0768 51.87515 
L 224.019558 51.87515 
z
" clip-path="url(#pef6ba72739)" style="fill: #d3d3d3; fill-opacity: 0.5; stroke: #000000; stroke-linejoin: miter"/>
   </g>
   <g id="patch_18">
    <path d="M 235.0768 252 
L 246.134041 252 
L 246.134041 84.939256 
L 235.0768 84.939256 
z
" clip-path="url(#pef6ba72739)" style="fill: #d3d3d3; fill-opacity: 0.5; stroke: #000000; stroke-linejoin: miter"/>
   </g>
   <g id="patch_19">
    <path d="M 246.134041 252 
L 257.191282 252 
L 257.191282 88.419688 
L 246.134041 88.419688 
z
" clip-path="url(#pef6ba72739)" style="fill: #d3d3d3; fill-opacity: 0.5; stroke: #000000; stroke-linejoin: miter"/>
   </g>
   <g id="patch_20">
    <path d="M 257.191282 252 
L 268.248523 252 
L 268.248523 118.003361 
L 257.191282 118.003361 
z
" clip-path="url(#pef6ba72739)" style="fill: #d3d3d3; fill-opacity: 0.5; stroke: #000000; stroke-linejoin: miter"/>
   </g>
   <g id="patch_21">
    <path d="M 268.248523 252 
L 279.305764 252 
L 279.305764 156.288115 
L 268.248523 156.288115 
z
" clip-path="url(#pef6ba72739)" style="fill: #d3d3d3; fill-opacity: 0.5; stroke: #000000; stroke-linejoin: miter"/>
   </g>
   <g id="patch_22">
    <path d="M 279.305764 252 
L 290.363005 252 
L 290.363005 185.871789 
L 279.305764 185.871789 
z
" clip-path="url(#pef6ba72739)" style="fill: #d3d3d3; fill-opacity: 0.5; stroke: #000000; stroke-linejoin: miter"/>
   </g>
   <g id="patch_23">
    <path d="M 290.363005 252 
L 301.420247 252 
L 301.420247 196.313085 
L 290.363005 196.313085 
z
" clip-path="url(#pef6ba72739)" style="fill: #d3d3d3; fill-opacity: 0.5; stroke: #000000; stroke-linejoin: miter"/>
   </g>
   <g id="patch_24">
    <path d="M 301.420247 252 
L 312.477488 252 
L 312.477488 213.715246 
L 301.420247 213.715246 
z
" clip-path="url(#pef6ba72739)" style="fill: #d3d3d3; fill-opacity: 0.5; stroke: #000000; stroke-linejoin: miter"/>
   </g>
   <g id="patch_25">
    <path d="M 312.477488 252 
L 323.534729 252 
L 323.534729 245.039136 
L 312.477488 245.039136 
z
" clip-path="url(#pef6ba72739)" style="fill: #d3d3d3; fill-opacity: 0.5; stroke: #000000; stroke-linejoin: miter"/>
   </g>
   <g id="patch_26">
    <path d="M 323.534729 252 
L 334.59197 252 
L 334.59197 243.29892 
L 323.534729 243.29892 
z
" clip-path="url(#pef6ba72739)" style="fill: #d3d3d3; fill-opacity: 0.5; stroke: #000000; stroke-linejoin: miter"/>
   </g>
   <g id="patch_27">
    <path d="M 334.59197 252 
L 345.649211 252 
L 345.649211 246.779352 
L 334.59197 246.779352 
z
" clip-path="url(#pef6ba72739)" style="fill: #d3d3d3; fill-opacity: 0.5; stroke: #000000; stroke-linejoin: miter"/>
   </g>
   <g id="patch_28">
    <path d="M 345.649211 252 
L 356.706453 252 
L 356.706453 246.779352 
L 345.649211 246.779352 
z
" clip-path="url(#pef6ba72739)" style="fill: #d3d3d3; fill-opacity: 0.5; stroke: #000000; stroke-linejoin: miter"/>
   </g>
   <g id="patch_29">
    <path d="M 74.112292 252 
L 85.203756 252 
L 85.203756 248.519568 
L 74.112292 248.519568 
z
" clip-path="url(#pef6ba72739)" style="fill: #dc143c; fill-opacity: 0.5; stroke: #000000; stroke-width: 0.5; stroke-linejoin: miter"/>
   </g>
   <g id="patch_30">
    <path d="M 85.203756 252 
L 96.29522 252 
L 96.29522 252 
L 85.203756 252 
z
" clip-path="url(#pef6ba72739)" style="fill: #dc143c; fill-opacity: 0.5; stroke: #000000; stroke-width: 0.5; stroke-linejoin: miter"/>
   </g>
   <g id="patch_31">
    <path d="M 96.29522 252 
L 107.386684 252 
L 107.386684 252 
L 96.29522 252 
z
" clip-path="url(#pef6ba72739)" style="fill: #dc143c; fill-opacity: 0.5; stroke: #000000; stroke-width: 0.5; stroke-linejoin: miter"/>
   </g>
   <g id="patch_32">
    <path d="M 107.386684 252 
L 118.478148 252 
L 118.478148 250.259784 
L 107.386684 250.259784 
z
" clip-path="url(#pef6ba72739)" style="fill: #dc143c; fill-opacity: 0.5; stroke: #000000; stroke-width: 0.5; stroke-linejoin: miter"/>
   </g>
   <g id="patch_33">
    <path d="M 118.478148 252 
L 129.569612 252 
L 129.569612 250.259784 
L 118.478148 250.259784 
z
" clip-path="url(#pef6ba72739)" style="fill: #dc143c; fill-opacity: 0.5; stroke: #000000; stroke-width: 0.5; stroke-linejoin: miter"/>
   </g>
   <g id="patch_34">
    <path d="M 129.569612 252 
L 140.661076 252 
L 140.661076 252 
L 129.569612 252 
z
" clip-path="url(#pef6ba72739)" style="fill: #dc143c; fill-opacity: 0.5; stroke: #000000; stroke-width: 0.5; stroke-linejoin: miter"/>
   </g>
   <g id="patch_35">
    <path d="M 140.661076 252 
L 151.75254 252 
L 151.75254 241.558703 
L 140.661076 241.558703 
z
" clip-path="url(#pef6ba72739)" style="fill: #dc143c; fill-opacity: 0.5; stroke: #000000; stroke-width: 0.5; stroke-linejoin: miter"/>
   </g>
   <g id="patch_36">
    <path d="M 151.75254 252 
L 162.844004 252 
L 162.844004 241.558703 
L 151.75254 241.558703 
z
" clip-path="url(#pef6ba72739)" style="fill: #dc143c; fill-opacity: 0.5; stroke: #000000; stroke-width: 0.5; stroke-linejoin: miter"/>
   </g>
   <g id="patch_37">
    <path d="M 162.844004 252 
L 173.935468 252 
L 173.935468 229.377191 
L 162.844004 229.377191 
z
" clip-path="url(#pef6ba72739)" style="fill: #dc143c; fill-opacity: 0.5; stroke: #000000; stroke-width: 0.5; stroke-linejoin: miter"/>
   </g>
   <g id="patch_38">
    <path d="M 173.935468 252 
L 185.026932 252 
L 185.026932 215.455462 
L 173.935468 215.455462 
z
" clip-path="url(#pef6ba72739)" style="fill: #dc143c; fill-opacity: 0.5; stroke: #000000; stroke-width: 0.5; stroke-linejoin: miter"/>
   </g>
   <g id="patch_39">
    <path d="M 185.026932 252 
L 196.118395 252 
L 196.118395 180.65114 
L 185.026932 180.65114 
z
" clip-path="url(#pef6ba72739)" style="fill: #dc143c; fill-opacity: 0.5; stroke: #000000; stroke-width: 0.5; stroke-linejoin: miter"/>
   </g>
   <g id="patch_40">
    <path d="M 196.118395 252 
L 207.209859 252 
L 207.209859 159.768547 
L 196.118395 159.768547 
z
" clip-path="url(#pef6ba72739)" style="fill: #dc143c; fill-opacity: 0.5; stroke: #000000; stroke-width: 0.5; stroke-linejoin: miter"/>
   </g>
   <g id="patch_41">
    <path d="M 207.209859 252 
L 218.301323 252 
L 218.301323 123.22401 
L 207.209859 123.22401 
z
" clip-path="url(#pef6ba72739)" style="fill: #dc143c; fill-opacity: 0.5; stroke: #000000; stroke-width: 0.5; stroke-linejoin: miter"/>
   </g>
   <g id="patch_42">
    <path d="M 218.301323 252 
L 229.392787 252 
L 229.392787 119.743577 
L 218.301323 119.743577 
z
" clip-path="url(#pef6ba72739)" style="fill: #dc143c; fill-opacity: 0.5; stroke: #000000; stroke-width: 0.5; stroke-linejoin: miter"/>
   </g>
   <g id="patch_43">
    <path d="M 229.392787 252 
L 240.484251 252 
L 240.484251 97.120768 
L 229.392787 97.120768 
z
" clip-path="url(#pef6ba72739)" style="fill: #dc143c; fill-opacity: 0.5; stroke: #000000; stroke-width: 0.5; stroke-linejoin: miter"/>
   </g>
   <g id="patch_44">
    <path d="M 240.484251 252 
L 251.575715 252 
L 251.575715 86.679472 
L 240.484251 86.679472 
z
" clip-path="url(#pef6ba72739)" style="fill: #dc143c; fill-opacity: 0.5; stroke: #000000; stroke-width: 0.5; stroke-linejoin: miter"/>
   </g>
   <g id="patch_45">
    <path d="M 251.575715 252 
L 262.667179 252 
L 262.667179 65.796879 
L 251.575715 65.796879 
z
" clip-path="url(#pef6ba72739)" style="fill: #dc143c; fill-opacity: 0.5; stroke: #000000; stroke-width: 0.5; stroke-linejoin: miter"/>
   </g>
   <g id="patch_46">
    <path d="M 262.667179 252 
L 273.758643 252 
L 273.758643 60.57623 
L 262.667179 60.57623 
z
" clip-path="url(#pef6ba72739)" style="fill: #dc143c; fill-opacity: 0.5; stroke: #000000; stroke-width: 0.5; stroke-linejoin: miter"/>
   </g>
   <g id="patch_47">
    <path d="M 273.758643 252 
L 284.850107 252 
L 284.850107 44.914286 
L 273.758643 44.914286 
z
" clip-path="url(#pef6ba72739)" style="fill: #dc143c; fill-opacity: 0.5; stroke: #000000; stroke-width: 0.5; stroke-linejoin: miter"/>
   </g>
   <g id="patch_48">
    <path d="M 284.850107 252 
L 295.941571 252 
L 295.941571 126.704442 
L 284.850107 126.704442 
z
" clip-path="url(#pef6ba72739)" style="fill: #dc143c; fill-opacity: 0.5; stroke: #000000; stroke-width: 0.5; stroke-linejoin: miter"/>
   </g>
   <g id="patch_49">
    <path d="M 295.941571 252 
L 307.033035 252 
L 307.033035 175.430492 
L 295.941571 175.430492 
z
" clip-path="url(#pef6ba72739)" style="fill: #dc143c; fill-opacity: 0.5; stroke: #000000; stroke-width: 0.5; stroke-linejoin: miter"/>
   </g>
   <g id="patch_50">
    <path d="M 307.033035 252 
L 318.124499 252 
L 318.124499 199.793517 
L 307.033035 199.793517 
z
" clip-path="url(#pef6ba72739)" style="fill: #dc143c; fill-opacity: 0.5; stroke: #000000; stroke-width: 0.5; stroke-linejoin: miter"/>
   </g>
   <g id="patch_51">
    <path d="M 318.124499 252 
L 329.215962 252 
L 329.215962 224.156543 
L 318.124499 224.156543 
z
" clip-path="url(#pef6ba72739)" style="fill: #dc143c; fill-opacity: 0.5; stroke: #000000; stroke-width: 0.5; stroke-linejoin: miter"/>
   </g>
   <g id="patch_52">
    <path d="M 329.215962 252 
L 340.307426 252 
L 340.307426 222.416327 
L 329.215962 222.416327 
z
" clip-path="url(#pef6ba72739)" style="fill: #dc143c; fill-opacity: 0.5; stroke: #000000; stroke-width: 0.5; stroke-linejoin: miter"/>
   </g>
   <g id="patch_53">
    <path d="M 340.307426 252 
L 351.39889 252 
L 351.39889 245.039136 
L 340.307426 245.039136 
z
" clip-path="url(#pef6ba72739)" style="fill: #dc143c; fill-opacity: 0.5; stroke: #000000; stroke-width: 0.5; stroke-linejoin: miter"/>
   </g>
   <g id="patch_54">
    <path d="M 351.39889 252 
L 362.490354 252 
L 362.490354 250.259784 
L 351.39889 250.259784 
z
" clip-path="url(#pef6ba72739)" style="fill: #dc143c; fill-opacity: 0.5; stroke: #000000; stroke-width: 0.5; stroke-linejoin: miter"/>
   </g>
   <g id="patch_55">
    <path d="M 362.490354 252 
L 373.581818 252 
L 373.581818 248.519568 
L 362.490354 248.519568 
z
" clip-path="url(#pef6ba72739)" style="fill: #dc143c; fill-opacity: 0.5; stroke: #000000; stroke-width: 0.5; stroke-linejoin: miter"/>
   </g>
   <g id="line2d_1">
    <path d="M 69.218182 251.234085 
L 76.441505 251.334909 
L 85.109493 251.438615 
L 93.777481 251.234161 
L 105.334799 250.816228 
L 108.224128 250.532215 
L 111.113457 250.077689 
L 114.002787 249.424203 
L 116.892116 248.569981 
L 119.781446 247.532015 
L 122.670775 246.327215 
L 125.560104 244.952219 
L 128.449434 243.373596 
L 131.338763 241.534986 
L 134.228092 239.377581 
L 137.117422 236.862063 
L 140.006751 233.979379 
L 142.89608 230.744648 
L 145.78541 227.177682 
L 148.674739 223.279227 
L 151.564068 219.012525 
L 154.453398 214.297508 
L 157.342727 209.022269 
L 160.232056 203.072858 
L 163.121386 196.376152 
L 166.010715 188.942477 
L 168.900045 180.889888 
L 180.457362 147.35053 
L 183.346691 139.770986 
L 186.236021 132.731274 
L 189.12535 126.220964 
L 192.014679 120.19842 
L 194.904009 114.608223 
L 197.793338 109.388693 
L 202.127332 102.118508 
L 206.461326 95.368939 
L 210.79532 89.061085 
L 215.129314 83.248951 
L 218.018644 79.766517 
L 220.907973 76.762239 
L 222.352638 75.500282 
L 223.797302 74.433733 
L 225.241967 73.587288 
L 226.686632 72.981354 
L 228.131296 72.629808 
L 229.575961 72.538327 
L 231.020626 72.703594 
L 232.46529 73.113594 
L 233.909955 73.749018 
L 235.35462 74.585636 
L 236.799284 75.597328 
L 239.688614 78.051389 
L 242.577943 80.979981 
L 245.467272 84.376329 
L 248.356602 88.353349 
L 249.801266 90.613396 
L 251.245931 93.083217 
L 252.690596 95.779824 
L 255.579925 101.889167 
L 258.469255 108.933546 
L 261.358584 116.776705 
L 265.692578 129.498377 
L 271.471237 146.703506 
L 274.360566 154.829584 
L 277.249895 162.405237 
L 280.139225 169.34415 
L 283.028554 175.631039 
L 285.917883 181.321806 
L 288.807213 186.53823 
L 293.141207 193.847867 
L 298.919865 203.515727 
L 304.698524 213.701368 
L 310.477183 223.937918 
L 313.366512 228.655386 
L 316.255842 232.836696 
L 317.700506 234.674043 
L 319.145171 236.324374 
L 320.589836 237.782212 
L 322.0345 239.049312 
L 323.479165 240.134597 
L 324.92383 241.053465 
L 327.813159 242.477901 
L 330.702488 243.517676 
L 335.036482 244.75526 
L 346.5938 247.791233 
L 352.372459 249.011332 
L 356.706453 249.777828 
L 356.706453 249.777828 
" clip-path="url(#pef6ba72739)" style="fill: none; stroke: #d3d3d3; stroke-width: 1.5; stroke-linecap: square"/>
   </g>
   <g id="line2d_2">
    <path d="M 227.832992 252 
L 227.832992 -1 
" clip-path="url(#pef6ba72739)" style="fill: none; stroke: #000000; stroke-width: 1.5; stroke-linecap: square"/>
   </g>
   <g id="line2d_3">
    <path d="M 74.112292 250.793156 
L 78.626908 250.670521 
L 83.141524 250.732209 
L 90.665884 251.128186 
L 96.685372 251.409116 
L 101.199988 251.420665 
L 105.714604 251.219547 
L 119.258452 250.380937 
L 128.287684 250.142224 
L 131.297428 249.790472 
L 134.307172 249.158831 
L 137.316916 248.217521 
L 140.32666 246.991723 
L 144.841276 244.770983 
L 150.860764 241.45134 
L 155.37538 238.7289 
L 158.385124 236.684511 
L 161.394868 234.339735 
L 164.404612 231.590493 
L 167.414356 228.335604 
L 170.4241 224.475537 
L 173.433844 219.918713 
L 176.443588 214.605809 
L 179.453332 208.548022 
L 182.463076 201.858127 
L 186.977692 191.115745 
L 192.997179 176.746204 
L 197.511795 166.491232 
L 205.036155 150.035416 
L 211.055643 137.29365 
L 214.065387 131.331853 
L 217.075131 125.840356 
L 220.084875 120.931342 
L 223.094619 116.648118 
L 226.104363 112.936982 
L 229.114107 109.626422 
L 233.628723 104.766721 
L 236.638467 101.09276 
L 239.648211 96.759942 
L 242.657955 91.715829 
L 247.172571 83.291021 
L 250.182315 77.692716 
L 253.192059 72.608676 
L 254.696931 70.359592 
L 256.201803 68.337975 
L 257.706675 66.555332 
L 259.211547 65.015786 
L 260.716419 63.719506 
L 262.221291 62.666631 
L 263.726163 61.861148 
L 265.231035 61.314247 
L 266.735907 61.046696 
L 268.240779 61.089892 
L 269.745651 61.485356 
L 271.250523 62.282624 
L 272.755395 63.535628 
L 274.260267 65.297881 
L 275.765139 67.616946 
L 277.270011 70.528814 
L 278.774883 74.052864 
L 280.279755 78.188078 
L 281.784627 82.911024 
L 283.289499 88.175931 
L 286.299243 100.051691 
L 289.308987 113.126518 
L 295.328475 139.895529 
L 298.338219 152.428624 
L 301.347963 163.959121 
L 304.357707 174.383308 
L 307.367451 183.705085 
L 310.377195 191.978307 
L 313.386939 199.264138 
L 316.396683 205.608856 
L 319.406427 211.048211 
L 322.416171 215.63781 
L 325.425915 219.492666 
L 328.435659 222.805784 
L 334.455146 228.769943 
L 340.474634 234.878345 
L 344.98925 239.393857 
L 347.998994 242.083161 
L 351.008738 244.364074 
L 354.018482 246.184487 
L 357.028226 247.560617 
L 360.03797 248.555678 
L 363.047714 249.255783 
L 367.56233 249.946854 
L 373.581818 250.567246 
L 373.581818 250.567246 
" clip-path="url(#pef6ba72739)" style="fill: none; stroke: #dc143c; stroke-width: 1.5; stroke-linecap: square"/>
   </g>
   <g id="line2d_4">
    <path d="M 248.089276 252 
L 248.089276 -1 
" clip-path="url(#pef6ba72739)" style="fill: none; stroke-dasharray: 2.59,1.12; stroke-dashoffset: 0; stroke: #000000; stroke-width: 0.7"/>
   </g>
   <g id="patch_56">
    <path d="M 54 252 
L 54 34.56 
" style="fill: none; stroke: #000000; stroke-width: 0.8; stroke-linejoin: miter; stroke-linecap: square"/>
   </g>
   <g id="patch_57">
    <path d="M 388.8 252 
L 388.8 34.56 
" style="fill: none; stroke: #000000; stroke-width: 0.8; stroke-linejoin: miter; stroke-linecap: square"/>
   </g>
   <g id="patch_58">
    <path d="M 54 252 
L 388.8 252 
" style="fill: none; stroke: #000000; stroke-width: 0.8; stroke-linejoin: miter; stroke-linecap: square"/>
   </g>
   <g id="patch_59">
    <path d="M 54 34.56 
L 388.8 34.56 
" style="fill: none; stroke: #000000; stroke-width: 0.8; stroke-linejoin: miter; stroke-linecap: square"/>
   </g>
   <g id="text_1">
    <!-- Population A: Gray -->
    <g transform="translate(86.039007 101.584901)scale(0.1 -0.1)">
     <defs>
      <path id="DejaVuSans-50" d="M 1259 4147 
L 1259 2394 
L 2053 2394 
Q 2494 2394 2734 2622 
Q 2975 2850 2975 3272 
Q 2975 3691 2734 3919 
Q 2494 4147 2053 4147 
L 1259 4147 
z
M 628 4666 
L 2053 4666 
Q 2838 4666 3239 4311 
Q 3641 3956 3641 3272 
Q 3641 2581 3239 2228 
Q 2838 1875 2053 1875 
L 1259 1875 
L 1259 0 
L 628 0 
L 628 4666 
z
" transform="scale(0.015625)"/>
      <path id="DejaVuSans-6f" d="M 1959 3097 
Q 1497 3097 1228 2736 
Q 959 2375 959 1747 
Q 959 1119 1226 758 
Q 1494 397 1959 397 
Q 2419 397 2687 759 
Q 2956 1122 2956 1747 
Q 2956 2369 2687 2733 
Q 2419 3097 1959 3097 
z
M 1959 3584 
Q 2709 3584 3137 3096 
Q 3566 2609 3566 1747 
Q 3566 888 3137 398 
Q 2709 -91 1959 -91 
Q 1206 -91 779 398 
Q 353 888 353 1747 
Q 353 2609 779 3096 
Q 1206 3584 1959 3584 
z
" transform="scale(0.015625)"/>
      <path id="DejaVuSans-70" d="M 1159 525 
L 1159 -1331 
L 581 -1331 
L 581 3500 
L 1159 3500 
L 1159 2969 
Q 1341 3281 1617 3432 
Q 1894 3584 2278 3584 
Q 2916 3584 3314 3078 
Q 3713 2572 3713 1747 
Q 3713 922 3314 415 
Q 2916 -91 2278 -91 
Q 1894 -91 1617 61 
Q 1341 213 1159 525 
z
M 3116 1747 
Q 3116 2381 2855 2742 
Q 2594 3103 2138 3103 
Q 1681 3103 1420 2742 
Q 1159 2381 1159 1747 
Q 1159 1113 1420 752 
Q 1681 391 2138 391 
Q 2594 391 2855 752 
Q 3116 1113 3116 1747 
z
" transform="scale(0.015625)"/>
      <path id="DejaVuSans-75" d="M 544 1381 
L 544 3500 
L 1119 3500 
L 1119 1403 
Q 1119 906 1312 657 
Q 1506 409 1894 409 
Q 2359 409 2629 706 
Q 2900 1003 2900 1516 
L 2900 3500 
L 3475 3500 
L 3475 0 
L 2900 0 
L 2900 538 
Q 2691 219 2414 64 
Q 2138 -91 1772 -91 
Q 1169 -91 856 284 
Q 544 659 544 1381 
z
M 1991 3584 
L 1991 3584 
z
" transform="scale(0.015625)"/>
      <path id="DejaVuSans-6c" d="M 603 4863 
L 1178 4863 
L 1178 0 
L 603 0 
L 603 4863 
z
" transform="scale(0.015625)"/>
      <path id="DejaVuSans-61" d="M 2194 1759 
Q 1497 1759 1228 1600 
Q 959 1441 959 1056 
Q 959 750 1161 570 
Q 1363 391 1709 391 
Q 2188 391 2477 730 
Q 2766 1069 2766 1631 
L 2766 1759 
L 2194 1759 
z
M 3341 1997 
L 3341 0 
L 2766 0 
L 2766 531 
Q 2569 213 2275 61 
Q 1981 -91 1556 -91 
Q 1019 -91 701 211 
Q 384 513 384 1019 
Q 384 1609 779 1909 
Q 1175 2209 1959 2209 
L 2766 2209 
L 2766 2266 
Q 2766 2663 2505 2880 
Q 2244 3097 1772 3097 
Q 1472 3097 1187 3025 
Q 903 2953 641 2809 
L 641 3341 
Q 956 3463 1253 3523 
Q 1550 3584 1831 3584 
Q 2591 3584 2966 3190 
Q 3341 2797 3341 1997 
z
" transform="scale(0.015625)"/>
      <path id="DejaVuSans-74" d="M 1172 4494 
L 1172 3500 
L 2356 3500 
L 2356 3053 
L 1172 3053 
L 1172 1153 
Q 1172 725 1289 603 
Q 1406 481 1766 481 
L 2356 481 
L 2356 0 
L 1766 0 
Q 1100 0 847 248 
Q 594 497 594 1153 
L 594 3053 
L 172 3053 
L 172 3500 
L 594 3500 
L 594 4494 
L 1172 4494 
z
" transform="scale(0.015625)"/>
      <path id="DejaVuSans-69" d="M 603 3500 
L 1178 3500 
L 1178 0 
L 603 0 
L 603 3500 
z
M 603 4863 
L 1178 4863 
L 1178 4134 
L 603 4134 
L 603 4863 
z
" transform="scale(0.015625)"/>
      <path id="DejaVuSans-6e" d="M 3513 2113 
L 3513 0 
L 2938 0 
L 2938 2094 
Q 2938 2591 2744 2837 
Q 2550 3084 2163 3084 
Q 1697 3084 1428 2787 
Q 1159 2491 1159 1978 
L 1159 0 
L 581 0 
L 581 3500 
L 1159 3500 
L 1159 2956 
Q 1366 3272 1645 3428 
Q 1925 3584 2291 3584 
Q 2894 3584 3203 3211 
Q 3513 2838 3513 2113 
z
" transform="scale(0.015625)"/>
      <path id="DejaVuSans-20" transform="scale(0.015625)"/>
      <path id="DejaVuSans-41" d="M 2188 4044 
L 1331 1722 
L 3047 1722 
L 2188 4044 
z
M 1831 4666 
L 2547 4666 
L 4325 0 
L 3669 0 
L 3244 1197 
L 1141 1197 
L 716 0 
L 50 0 
L 1831 4666 
z
" transform="scale(0.015625)"/>
      <path id="DejaVuSans-3a" d="M 750 794 
L 1409 794 
L 1409 0 
L 750 0 
L 750 794 
z
M 750 3309 
L 1409 3309 
L 1409 2516 
L 750 2516 
L 750 3309 
z
" transform="scale(0.015625)"/>
      <path id="DejaVuSans-47" d="M 3809 666 
L 3809 1919 
L 2778 1919 
L 2778 2438 
L 4434 2438 
L 4434 434 
Q 4069 175 3628 42 
Q 3188 -91 2688 -91 
Q 1594 -91 976 548 
Q 359 1188 359 2328 
Q 359 3472 976 4111 
Q 1594 4750 2688 4750 
Q 3144 4750 3555 4637 
Q 3966 4525 4313 4306 
L 4313 3634 
Q 3963 3931 3569 4081 
Q 3175 4231 2741 4231 
Q 1884 4231 1454 3753 
Q 1025 3275 1025 2328 
Q 1025 1384 1454 906 
Q 1884 428 2741 428 
Q 3075 428 3337 486 
Q 3600 544 3809 666 
z
" transform="scale(0.015625)"/>
      <path id="DejaVuSans-72" d="M 2631 2963 
Q 2534 3019 2420 3045 
Q 2306 3072 2169 3072 
Q 1681 3072 1420 2755 
Q 1159 2438 1159 1844 
L 1159 0 
L 581 0 
L 581 3500 
L 1159 3500 
L 1159 2956 
Q 1341 3275 1631 3429 
Q 1922 3584 2338 3584 
Q 2397 3584 2469 3576 
Q 2541 3569 2628 3553 
L 2631 2963 
z
" transform="scale(0.015625)"/>
      <path id="DejaVuSans-79" d="M 2059 -325 
Q 1816 -950 1584 -1140 
Q 1353 -1331 966 -1331 
L 506 -1331 
L 506 -850 
L 844 -850 
Q 1081 -850 1212 -737 
Q 1344 -625 1503 -206 
L 1606 56 
L 191 3500 
L 800 3500 
L 1894 763 
L 2988 3500 
L 3597 3500 
L 2059 -325 
z
" transform="scale(0.015625)"/>
     </defs>
     <use xlink:href="#DejaVuSans-50"/>
     <use xlink:href="#DejaVuSans-6f" x="56.677734"/>
     <use xlink:href="#DejaVuSans-70" x="117.859375"/>
     <use xlink:href="#DejaVuSans-75" x="181.335938"/>
     <use xlink:href="#DejaVuSans-6c" x="244.714844"/>
     <use xlink:href="#DejaVuSans-61" x="272.498047"/>
     <use xlink:href="#DejaVuSans-74" x="333.777344"/>
     <use xlink:href="#DejaVuSans-69" x="372.986328"/>
     <use xlink:href="#DejaVuSans-6f" x="400.769531"/>
     <use xlink:href="#DejaVuSans-6e" x="461.951172"/>
     <use xlink:href="#DejaVuSans-20" x="525.330078"/>
     <use xlink:href="#DejaVuSans-41" x="557.117188"/>
     <use xlink:href="#DejaVuSans-3a" x="623.775391"/>
     <use xlink:href="#DejaVuSans-20" x="657.466797"/>
     <use xlink:href="#DejaVuSans-47" x="689.253906"/>
     <use xlink:href="#DejaVuSans-72" x="766.744141"/>
     <use xlink:href="#DejaVuSans-61" x="807.857422"/>
     <use xlink:href="#DejaVuSans-79" x="869.136719"/>
    </g>
    <!-- Population B: Red -->
    <g transform="translate(86.039007 112.782713)scale(0.1 -0.1)">
     <defs>
      <path id="DejaVuSans-42" d="M 1259 2228 
L 1259 519 
L 2272 519 
Q 2781 519 3026 730 
Q 3272 941 3272 1375 
Q 3272 1813 3026 2020 
Q 2781 2228 2272 2228 
L 1259 2228 
z
M 1259 4147 
L 1259 2741 
L 2194 2741 
Q 2656 2741 2882 2914 
Q 3109 3088 3109 3444 
Q 3109 3797 2882 3972 
Q 2656 4147 2194 4147 
L 1259 4147 
z
M 628 4666 
L 2241 4666 
Q 2963 4666 3353 4366 
Q 3744 4066 3744 3513 
Q 3744 3084 3544 2831 
Q 3344 2578 2956 2516 
Q 3422 2416 3680 2098 
Q 3938 1781 3938 1306 
Q 3938 681 3513 340 
Q 3088 0 2303 0 
L 628 0 
L 628 4666 
z
" transform="scale(0.015625)"/>
      <path id="DejaVuSans-52" d="M 2841 2188 
Q 3044 2119 3236 1894 
Q 3428 1669 3622 1275 
L 4263 0 
L 3584 0 
L 2988 1197 
Q 2756 1666 2539 1819 
Q 2322 1972 1947 1972 
L 1259 1972 
L 1259 0 
L 628 0 
L 628 4666 
L 2053 4666 
Q 2853 4666 3247 4331 
Q 3641 3997 3641 3322 
Q 3641 2881 3436 2590 
Q 3231 2300 2841 2188 
z
M 1259 4147 
L 1259 2491 
L 2053 2491 
Q 2509 2491 2742 2702 
Q 2975 2913 2975 3322 
Q 2975 3731 2742 3939 
Q 2509 4147 2053 4147 
L 1259 4147 
z
" transform="scale(0.015625)"/>
      <path id="DejaVuSans-65" d="M 3597 1894 
L 3597 1613 
L 953 1613 
Q 991 1019 1311 708 
Q 1631 397 2203 397 
Q 2534 397 2845 478 
Q 3156 559 3463 722 
L 3463 178 
Q 3153 47 2828 -22 
Q 2503 -91 2169 -91 
Q 1331 -91 842 396 
Q 353 884 353 1716 
Q 353 2575 817 3079 
Q 1281 3584 2069 3584 
Q 2775 3584 3186 3129 
Q 3597 2675 3597 1894 
z
M 3022 2063 
Q 3016 2534 2758 2815 
Q 2500 3097 2075 3097 
Q 1594 3097 1305 2825 
Q 1016 2553 972 2059 
L 3022 2063 
z
" transform="scale(0.015625)"/>
      <path id="DejaVuSans-64" d="M 2906 2969 
L 2906 4863 
L 3481 4863 
L 3481 0 
L 2906 0 
L 2906 525 
Q 2725 213 2448 61 
Q 2172 -91 1784 -91 
Q 1150 -91 751 415 
Q 353 922 353 1747 
Q 353 2572 751 3078 
Q 1150 3584 1784 3584 
Q 2172 3584 2448 3432 
Q 2725 3281 2906 2969 
z
M 947 1747 
Q 947 1113 1208 752 
Q 1469 391 1925 391 
Q 2381 391 2643 752 
Q 2906 1113 2906 1747 
Q 2906 2381 2643 2742 
Q 2381 3103 1925 3103 
Q 1469 3103 1208 2742 
Q 947 2381 947 1747 
z
" transform="scale(0.015625)"/>
     </defs>
     <use xlink:href="#DejaVuSans-50"/>
     <use xlink:href="#DejaVuSans-6f" x="56.677734"/>
     <use xlink:href="#DejaVuSans-70" x="117.859375"/>
     <use xlink:href="#DejaVuSans-75" x="181.335938"/>
     <use xlink:href="#DejaVuSans-6c" x="244.714844"/>
     <use xlink:href="#DejaVuSans-61" x="272.498047"/>
     <use xlink:href="#DejaVuSans-74" x="333.777344"/>
     <use xlink:href="#DejaVuSans-69" x="372.986328"/>
     <use xlink:href="#DejaVuSans-6f" x="400.769531"/>
     <use xlink:href="#DejaVuSans-6e" x="461.951172"/>
     <use xlink:href="#DejaVuSans-20" x="525.330078"/>
     <use xlink:href="#DejaVuSans-42" x="557.117188"/>
     <use xlink:href="#DejaVuSans-3a" x="625.720703"/>
     <use xlink:href="#DejaVuSans-20" x="659.412109"/>
     <use xlink:href="#DejaVuSans-52" x="691.199219"/>
     <use xlink:href="#DejaVuSans-65" x="756.181641"/>
     <use xlink:href="#DejaVuSans-64" x="817.705078"/>
    </g>
   </g>
   <g id="text_2">
    <!-- 0 -->
    <g transform="translate(227.832992 269.402161)scale(0.1 -0.1)">
     <defs>
      <path id="DejaVuSans-30" d="M 2034 4250 
Q 1547 4250 1301 3770 
Q 1056 3291 1056 2328 
Q 1056 1369 1301 889 
Q 1547 409 2034 409 
Q 2525 409 2770 889 
Q 3016 1369 3016 2328 
Q 3016 3291 2770 3770 
Q 2525 4250 2034 4250 
z
M 2034 4750 
Q 2819 4750 3233 4129 
Q 3647 3509 3647 2328 
Q 3647 1150 3233 529 
Q 2819 -91 2034 -91 
Q 1250 -91 836 529 
Q 422 1150 422 2328 
Q 422 3509 836 4129 
Q 1250 4750 2034 4750 
z
" transform="scale(0.015625)"/>
     </defs>
     <use xlink:href="#DejaVuSans-30"/>
    </g>
   </g>
   <g id="text_3">
    <!-- 0.5 -->
    <g style="fill: #dc143c" transform="translate(248.089276 269.402161)scale(0.1 -0.1)">
     <defs>
      <path id="DejaVuSans-2e" d="M 684 794 
L 1344 794 
L 1344 0 
L 684 0 
L 684 794 
z
" transform="scale(0.015625)"/>
      <path id="DejaVuSans-35" d="M 691 4666 
L 3169 4666 
L 3169 4134 
L 1269 4134 
L 1269 2991 
Q 1406 3038 1543 3061 
Q 1681 3084 1819 3084 
Q 2600 3084 3056 2656 
Q 3513 2228 3513 1497 
Q 3513 744 3044 326 
Q 2575 -91 1722 -91 
Q 1428 -91 1123 -41 
Q 819 9 494 109 
L 494 744 
Q 775 591 1075 516 
Q 1375 441 1709 441 
Q 2250 441 2565 725 
Q 2881 1009 2881 1497 
Q 2881 1984 2565 2268 
Q 2250 2553 1709 2553 
Q 1456 2553 1204 2497 
Q 953 2441 691 2322 
L 691 4666 
z
" transform="scale(0.015625)"/>
     </defs>
     <use xlink:href="#DejaVuSans-30"/>
     <use xlink:href="#DejaVuSans-2e" x="63.623047"/>
     <use xlink:href="#DejaVuSans-35" x="95.410156"/>
    </g>
   </g>
  </g>
 </g>
 <defs>
  <clipPath id="pef6ba72739">
   <rect x="54" y="34.56" width="334.8" height="217.44"/>
  </clipPath>
 </defs>
</svg>
