<?xml version="1.0" encoding="utf-8" standalone="no"?>
<!DOCTYPE svg PUBLIC "-//W3C//DTD SVG 1.1//EN"
  "http://www.w3.org/Graphics/SVG/1.1/DTD/svg11.dtd">
<svg xmlns:xlink="http://www.w3.org/1999/xlink" width="504pt" height="216pt" viewBox="0 0 504 216" xmlns="http://www.w3.org/2000/svg" version="1.1">
 <metadata>
  <rdf:RDF xmlns:dc="http://purl.org/dc/elements/1.1/" xmlns:cc="http://creativecommons.org/ns#" xmlns:rdf="http://www.w3.org/1999/02/22-rdf-syntax-ns#">
   <cc:Work>
    <dc:type rdf:resource="http://purl.org/dc/dcmitype/StillImage"/>
    <dc:date>2022-02-16T14:19:47.697616</dc:date>
    <dc:format>image/svg+xml</dc:format>
    <dc:creator>
     <cc:Agent>
      <dc:title>Matplotlib v3.5.1, https://matplotlib.org/</dc:title>
     </cc:Agent>
    </dc:creator>
   </cc:Work>
  </rdf:RDF>
 </metadata>
 <defs>
  <style type="text/css">*{stroke-linejoin: round; stroke-linecap: butt}</style>
 </defs>
 <g id="figure_1">
  <g id="patch_1">
   <path d="M 0 216 
L 504 216 
L 504 0 
L 0 0 
z
" style="fill: #ffffff"/>
  </g>
  <g id="axes_1">
   <g id="patch_2">
    <path d="M 63 189 
L 453.6 189 
L 453.6 25.92 
L 63 25.92 
z
" style="fill: #eaeaf2"/>
   </g>
   <g id="matplotlib.axis_1">
    <g id="xtick_1">
     <g id="line2d_1">
      <path d="M 80.754545 189 
L 80.754545 25.92 
" clip-path="url(#p5b72f48b42)" style="fill: none; stroke: #ffffff; stroke-linecap: round"/>
     </g>
     <g id="text_1">
      <!-- 0 -->
      <g style="fill: #262626" transform="translate(77.69603 206.373594)scale(0.11 -0.11)">
       <defs>
        <path id="ArialMT-30" d="M 266 2259 
Q 266 3072 433 3567 
Q 600 4063 929 4331 
Q 1259 4600 1759 4600 
Q 2128 4600 2406 4451 
Q 2684 4303 2865 4023 
Q 3047 3744 3150 3342 
Q 3253 2941 3253 2259 
Q 3253 1453 3087 958 
Q 2922 463 2592 192 
Q 2263 -78 1759 -78 
Q 1097 -78 719 397 
Q 266 969 266 2259 
z
M 844 2259 
Q 844 1131 1108 757 
Q 1372 384 1759 384 
Q 2147 384 2411 759 
Q 2675 1134 2675 2259 
Q 2675 3391 2411 3762 
Q 2147 4134 1753 4134 
Q 1366 4134 1134 3806 
Q 844 3388 844 2259 
z
" transform="scale(0.015625)"/>
       </defs>
       <use xlink:href="#ArialMT-30"/>
      </g>
     </g>
    </g>
    <g id="xtick_2">
     <g id="line2d_2">
      <path d="M 151.843817 189 
L 151.843817 25.92 
" clip-path="url(#p5b72f48b42)" style="fill: none; stroke: #ffffff; stroke-linecap: round"/>
     </g>
     <g id="text_2">
      <!-- 200 -->
      <g style="fill: #262626" transform="translate(142.66827 206.373594)scale(0.11 -0.11)">
       <defs>
        <path id="ArialMT-32" d="M 3222 541 
L 3222 0 
L 194 0 
Q 188 203 259 391 
Q 375 700 629 1000 
Q 884 1300 1366 1694 
Q 2113 2306 2375 2664 
Q 2638 3022 2638 3341 
Q 2638 3675 2398 3904 
Q 2159 4134 1775 4134 
Q 1369 4134 1125 3890 
Q 881 3647 878 3216 
L 300 3275 
Q 359 3922 746 4261 
Q 1134 4600 1788 4600 
Q 2447 4600 2831 4234 
Q 3216 3869 3216 3328 
Q 3216 3053 3103 2787 
Q 2991 2522 2730 2228 
Q 2469 1934 1863 1422 
Q 1356 997 1212 845 
Q 1069 694 975 541 
L 3222 541 
z
" transform="scale(0.015625)"/>
       </defs>
       <use xlink:href="#ArialMT-32"/>
       <use xlink:href="#ArialMT-30" x="55.615234"/>
       <use xlink:href="#ArialMT-30" x="111.230469"/>
      </g>
     </g>
    </g>
    <g id="xtick_3">
     <g id="line2d_3">
      <path d="M 222.933088 189 
L 222.933088 25.92 
" clip-path="url(#p5b72f48b42)" style="fill: none; stroke: #ffffff; stroke-linecap: round"/>
     </g>
     <g id="text_3">
      <!-- 400 -->
      <g style="fill: #262626" transform="translate(213.757541 206.373594)scale(0.11 -0.11)">
       <defs>
        <path id="ArialMT-34" d="M 2069 0 
L 2069 1097 
L 81 1097 
L 81 1613 
L 2172 4581 
L 2631 4581 
L 2631 1613 
L 3250 1613 
L 3250 1097 
L 2631 1097 
L 2631 0 
L 2069 0 
z
M 2069 1613 
L 2069 3678 
L 634 1613 
L 2069 1613 
z
" transform="scale(0.015625)"/>
       </defs>
       <use xlink:href="#ArialMT-34"/>
       <use xlink:href="#ArialMT-30" x="55.615234"/>
       <use xlink:href="#ArialMT-30" x="111.230469"/>
      </g>
     </g>
    </g>
    <g id="xtick_4">
     <g id="line2d_4">
      <path d="M 294.022359 189 
L 294.022359 25.92 
" clip-path="url(#p5b72f48b42)" style="fill: none; stroke: #ffffff; stroke-linecap: round"/>
     </g>
     <g id="text_4">
      <!-- 600 -->
      <g style="fill: #262626" transform="translate(284.846812 206.373594)scale(0.11 -0.11)">
       <defs>
        <path id="ArialMT-36" d="M 3184 3459 
L 2625 3416 
Q 2550 3747 2413 3897 
Q 2184 4138 1850 4138 
Q 1581 4138 1378 3988 
Q 1113 3794 959 3422 
Q 806 3050 800 2363 
Q 1003 2672 1297 2822 
Q 1591 2972 1913 2972 
Q 2475 2972 2870 2558 
Q 3266 2144 3266 1488 
Q 3266 1056 3080 686 
Q 2894 316 2569 119 
Q 2244 -78 1831 -78 
Q 1128 -78 684 439 
Q 241 956 241 2144 
Q 241 3472 731 4075 
Q 1159 4600 1884 4600 
Q 2425 4600 2770 4297 
Q 3116 3994 3184 3459 
z
M 888 1484 
Q 888 1194 1011 928 
Q 1134 663 1356 523 
Q 1578 384 1822 384 
Q 2178 384 2434 671 
Q 2691 959 2691 1453 
Q 2691 1928 2437 2201 
Q 2184 2475 1800 2475 
Q 1419 2475 1153 2201 
Q 888 1928 888 1484 
z
" transform="scale(0.015625)"/>
       </defs>
       <use xlink:href="#ArialMT-36"/>
       <use xlink:href="#ArialMT-30" x="55.615234"/>
       <use xlink:href="#ArialMT-30" x="111.230469"/>
      </g>
     </g>
    </g>
    <g id="xtick_5">
     <g id="line2d_5">
      <path d="M 365.11163 189 
L 365.11163 25.92 
" clip-path="url(#p5b72f48b42)" style="fill: none; stroke: #ffffff; stroke-linecap: round"/>
     </g>
     <g id="text_5">
      <!-- 800 -->
      <g style="fill: #262626" transform="translate(355.936083 206.373594)scale(0.11 -0.11)">
       <defs>
        <path id="ArialMT-38" d="M 1131 2484 
Q 781 2613 612 2850 
Q 444 3088 444 3419 
Q 444 3919 803 4259 
Q 1163 4600 1759 4600 
Q 2359 4600 2725 4251 
Q 3091 3903 3091 3403 
Q 3091 3084 2923 2848 
Q 2756 2613 2416 2484 
Q 2838 2347 3058 2040 
Q 3278 1734 3278 1309 
Q 3278 722 2862 322 
Q 2447 -78 1769 -78 
Q 1091 -78 675 323 
Q 259 725 259 1325 
Q 259 1772 486 2073 
Q 713 2375 1131 2484 
z
M 1019 3438 
Q 1019 3113 1228 2906 
Q 1438 2700 1772 2700 
Q 2097 2700 2305 2904 
Q 2513 3109 2513 3406 
Q 2513 3716 2298 3927 
Q 2084 4138 1766 4138 
Q 1444 4138 1231 3931 
Q 1019 3725 1019 3438 
z
M 838 1322 
Q 838 1081 952 856 
Q 1066 631 1291 507 
Q 1516 384 1775 384 
Q 2178 384 2440 643 
Q 2703 903 2703 1303 
Q 2703 1709 2433 1975 
Q 2163 2241 1756 2241 
Q 1359 2241 1098 1978 
Q 838 1716 838 1322 
z
" transform="scale(0.015625)"/>
       </defs>
       <use xlink:href="#ArialMT-38"/>
       <use xlink:href="#ArialMT-30" x="55.615234"/>
       <use xlink:href="#ArialMT-30" x="111.230469"/>
      </g>
     </g>
    </g>
    <g id="xtick_6">
     <g id="line2d_6">
      <path d="M 436.200901 189 
L 436.200901 25.92 
" clip-path="url(#p5b72f48b42)" style="fill: none; stroke: #ffffff; stroke-linecap: round"/>
     </g>
     <g id="text_6">
      <!-- 1000 -->
      <g style="fill: #262626" transform="translate(423.966838 206.373594)scale(0.11 -0.11)">
       <defs>
        <path id="ArialMT-31" d="M 2384 0 
L 1822 0 
L 1822 3584 
Q 1619 3391 1289 3197 
Q 959 3003 697 2906 
L 697 3450 
Q 1169 3672 1522 3987 
Q 1875 4303 2022 4600 
L 2384 4600 
L 2384 0 
z
" transform="scale(0.015625)"/>
       </defs>
       <use xlink:href="#ArialMT-31"/>
       <use xlink:href="#ArialMT-30" x="55.615234"/>
       <use xlink:href="#ArialMT-30" x="111.230469"/>
       <use xlink:href="#ArialMT-30" x="166.845703"/>
      </g>
     </g>
    </g>
   </g>
   <g id="matplotlib.axis_2">
    <g id="ytick_1">
     <g id="line2d_7">
      <path d="M 63 181.59898 
L 453.6 181.59898 
" clip-path="url(#p5b72f48b42)" style="fill: none; stroke: #ffffff; stroke-linecap: round"/>
     </g>
     <g id="text_7">
      <!-- 0 -->
      <g style="fill: #262626" transform="translate(47.382969 185.535777)scale(0.11 -0.11)">
       <use xlink:href="#ArialMT-30"/>
      </g>
     </g>
    </g>
    <g id="ytick_2">
     <g id="line2d_8">
      <path d="M 63 136.227174 
L 453.6 136.227174 
" clip-path="url(#p5b72f48b42)" style="fill: none; stroke: #ffffff; stroke-linecap: round"/>
     </g>
     <g id="text_8">
      <!-- 10 -->
      <g style="fill: #262626" transform="translate(41.265937 140.163971)scale(0.11 -0.11)">
       <use xlink:href="#ArialMT-31"/>
       <use xlink:href="#ArialMT-30" x="55.615234"/>
      </g>
     </g>
    </g>
    <g id="ytick_3">
     <g id="line2d_9">
      <path d="M 63 90.855369 
L 453.6 90.855369 
" clip-path="url(#p5b72f48b42)" style="fill: none; stroke: #ffffff; stroke-linecap: round"/>
     </g>
     <g id="text_9">
      <!-- 20 -->
      <g style="fill: #262626" transform="translate(41.265937 94.792166)scale(0.11 -0.11)">
       <use xlink:href="#ArialMT-32"/>
       <use xlink:href="#ArialMT-30" x="55.615234"/>
      </g>
     </g>
    </g>
    <g id="ytick_4">
     <g id="line2d_10">
      <path d="M 63 45.483563 
L 453.6 45.483563 
" clip-path="url(#p5b72f48b42)" style="fill: none; stroke: #ffffff; stroke-linecap: round"/>
     </g>
     <g id="text_10">
      <!-- 30 -->
      <g style="fill: #262626" transform="translate(41.265937 49.42036)scale(0.11 -0.11)">
       <defs>
        <path id="ArialMT-33" d="M 269 1209 
L 831 1284 
Q 928 806 1161 595 
Q 1394 384 1728 384 
Q 2125 384 2398 659 
Q 2672 934 2672 1341 
Q 2672 1728 2419 1979 
Q 2166 2231 1775 2231 
Q 1616 2231 1378 2169 
L 1441 2663 
Q 1497 2656 1531 2656 
Q 1891 2656 2178 2843 
Q 2466 3031 2466 3422 
Q 2466 3731 2256 3934 
Q 2047 4138 1716 4138 
Q 1388 4138 1169 3931 
Q 950 3725 888 3313 
L 325 3413 
Q 428 3978 793 4289 
Q 1159 4600 1703 4600 
Q 2078 4600 2393 4439 
Q 2709 4278 2876 4000 
Q 3044 3722 3044 3409 
Q 3044 3113 2884 2869 
Q 2725 2625 2413 2481 
Q 2819 2388 3044 2092 
Q 3269 1797 3269 1353 
Q 3269 753 2831 336 
Q 2394 -81 1725 -81 
Q 1122 -81 723 278 
Q 325 638 269 1209 
z
" transform="scale(0.015625)"/>
       </defs>
       <use xlink:href="#ArialMT-33"/>
       <use xlink:href="#ArialMT-30" x="55.615234"/>
      </g>
     </g>
    </g>
    <g id="text_11">
     <!-- Observ_10 -->
     <g style="fill: #262626" transform="translate(34.880938 136.8075)rotate(-90)scale(0.12 -0.12)">
      <defs>
       <path id="ArialMT-4f" d="M 309 2231 
Q 309 3372 921 4017 
Q 1534 4663 2503 4663 
Q 3138 4663 3647 4359 
Q 4156 4056 4423 3514 
Q 4691 2972 4691 2284 
Q 4691 1588 4409 1038 
Q 4128 488 3612 205 
Q 3097 -78 2500 -78 
Q 1853 -78 1343 234 
Q 834 547 571 1087 
Q 309 1628 309 2231 
z
M 934 2222 
Q 934 1394 1379 917 
Q 1825 441 2497 441 
Q 3181 441 3623 922 
Q 4066 1403 4066 2288 
Q 4066 2847 3877 3264 
Q 3688 3681 3323 3911 
Q 2959 4141 2506 4141 
Q 1863 4141 1398 3698 
Q 934 3256 934 2222 
z
" transform="scale(0.015625)"/>
       <path id="ArialMT-62" d="M 941 0 
L 419 0 
L 419 4581 
L 981 4581 
L 981 2947 
Q 1338 3394 1891 3394 
Q 2197 3394 2470 3270 
Q 2744 3147 2920 2923 
Q 3097 2700 3197 2384 
Q 3297 2069 3297 1709 
Q 3297 856 2875 390 
Q 2453 -75 1863 -75 
Q 1275 -75 941 416 
L 941 0 
z
M 934 1684 
Q 934 1088 1097 822 
Q 1363 388 1816 388 
Q 2184 388 2453 708 
Q 2722 1028 2722 1663 
Q 2722 2313 2464 2622 
Q 2206 2931 1841 2931 
Q 1472 2931 1203 2611 
Q 934 2291 934 1684 
z
" transform="scale(0.015625)"/>
       <path id="ArialMT-73" d="M 197 991 
L 753 1078 
Q 800 744 1014 566 
Q 1228 388 1613 388 
Q 2000 388 2187 545 
Q 2375 703 2375 916 
Q 2375 1106 2209 1216 
Q 2094 1291 1634 1406 
Q 1016 1563 777 1677 
Q 538 1791 414 1992 
Q 291 2194 291 2438 
Q 291 2659 392 2848 
Q 494 3038 669 3163 
Q 800 3259 1026 3326 
Q 1253 3394 1513 3394 
Q 1903 3394 2198 3281 
Q 2494 3169 2634 2976 
Q 2775 2784 2828 2463 
L 2278 2388 
Q 2241 2644 2061 2787 
Q 1881 2931 1553 2931 
Q 1166 2931 1000 2803 
Q 834 2675 834 2503 
Q 834 2394 903 2306 
Q 972 2216 1119 2156 
Q 1203 2125 1616 2013 
Q 2213 1853 2448 1751 
Q 2684 1650 2818 1456 
Q 2953 1263 2953 975 
Q 2953 694 2789 445 
Q 2625 197 2315 61 
Q 2006 -75 1616 -75 
Q 969 -75 630 194 
Q 291 463 197 991 
z
" transform="scale(0.015625)"/>
       <path id="ArialMT-65" d="M 2694 1069 
L 3275 997 
Q 3138 488 2766 206 
Q 2394 -75 1816 -75 
Q 1088 -75 661 373 
Q 234 822 234 1631 
Q 234 2469 665 2931 
Q 1097 3394 1784 3394 
Q 2450 3394 2872 2941 
Q 3294 2488 3294 1666 
Q 3294 1616 3291 1516 
L 816 1516 
Q 847 969 1125 678 
Q 1403 388 1819 388 
Q 2128 388 2347 550 
Q 2566 713 2694 1069 
z
M 847 1978 
L 2700 1978 
Q 2663 2397 2488 2606 
Q 2219 2931 1791 2931 
Q 1403 2931 1139 2672 
Q 875 2413 847 1978 
z
" transform="scale(0.015625)"/>
       <path id="ArialMT-72" d="M 416 0 
L 416 3319 
L 922 3319 
L 922 2816 
Q 1116 3169 1280 3281 
Q 1444 3394 1641 3394 
Q 1925 3394 2219 3213 
L 2025 2691 
Q 1819 2813 1613 2813 
Q 1428 2813 1281 2702 
Q 1134 2591 1072 2394 
Q 978 2094 978 1738 
L 978 0 
L 416 0 
z
" transform="scale(0.015625)"/>
       <path id="ArialMT-76" d="M 1344 0 
L 81 3319 
L 675 3319 
L 1388 1331 
Q 1503 1009 1600 663 
Q 1675 925 1809 1294 
L 2547 3319 
L 3125 3319 
L 1869 0 
L 1344 0 
z
" transform="scale(0.015625)"/>
       <path id="ArialMT-5f" d="M -97 -1272 
L -97 -866 
L 3631 -866 
L 3631 -1272 
L -97 -1272 
z
" transform="scale(0.015625)"/>
      </defs>
      <use xlink:href="#ArialMT-4f"/>
      <use xlink:href="#ArialMT-62" x="77.783203"/>
      <use xlink:href="#ArialMT-73" x="133.398438"/>
      <use xlink:href="#ArialMT-65" x="183.398438"/>
      <use xlink:href="#ArialMT-72" x="239.013672"/>
      <use xlink:href="#ArialMT-76" x="272.314453"/>
      <use xlink:href="#ArialMT-5f" x="322.314453"/>
      <use xlink:href="#ArialMT-31" x="377.929688"/>
      <use xlink:href="#ArialMT-30" x="433.544922"/>
     </g>
    </g>
   </g>
   <g id="line2d_11">
    <path d="M 80.754545 181.587273 
L 95.683292 181.010763 
L 102.436773 180.766961 
L 105.280344 180.616559 
L 109.5457 180.50016 
L 156.820066 178.56607 
L 158.952744 178.464498 
L 163.573546 178.322116 
L 164.995332 178.248528 
L 169.616134 178.12819 
L 170.682473 178.061572 
L 174.94783 177.930867 
L 180.634971 177.614781 
L 185.255774 177.274224 
L 185.966667 177.156944 
L 189.52113 177.041347 
L 208.715233 176.172119 
L 209.781572 176.077291 
L 212.625143 175.958115 
L 214.046929 175.840723 
L 214.757821 175.773761 
L 219.023178 175.62866 
L 226.132105 175.122697 
L 233.951925 174.696526 
L 236.795495 174.514713 
L 240.349959 174.362658 
L 244.615315 174.070434 
L 246.392547 173.944515 
L 251.724242 173.651726 
L 252.790581 173.487076 
L 257.411384 173.252963 
L 258.122277 173.172339 
L 260.965848 173.033016 
L 263.809419 172.912113 
L 265.58665 172.779391 
L 266.652989 172.688579 
L 270.207453 172.571108 
L 273.761916 172.350832 
L 274.828256 172.141241 
L 276.960934 172.040561 
L 303.263964 170.234835 
L 304.330303 170.101478 
L 306.107535 170.036612 
L 306.818428 169.951304 
L 310.728337 169.704341 
L 311.794676 169.558212 
L 313.571908 169.451558 
L 316.060033 169.324224 
L 318.903604 169.154024 
L 321.391728 169.048302 
L 327.789762 168.417592 
L 328.145209 168.41682 
L 329.566994 167.972925 
L 330.277887 167.961402 
L 330.633333 167.754585 
L 332.410565 167.708278 
L 333.476904 167.49872 
L 335.254136 167.258944 
L 338.8086 167.047914 
L 340.585831 166.559041 
L 343.073956 166.423428 
L 343.784848 166.311609 
L 346.628419 165.989944 
L 348.405651 165.665403 
L 349.827437 165.602353 
L 351.249222 165.306897 
L 351.960115 165.009544 
L 359.069042 164.017174 
L 360.490827 163.909608 
L 366.177969 163.38585 
L 369.732432 162.96212 
L 370.443325 162.544209 
L 371.865111 162.469323 
L 372.576003 162.345564 
L 374.353235 162.25535 
L 374.708681 161.877428 
L 375.419574 161.78926 
L 376.84136 161.716197 
L 377.196806 161.576894 
L 378.263145 161.492591 
L 378.974038 161.31048 
L 380.751269 161.103213 
L 381.106716 160.764225 
L 381.817609 160.656637 
L 383.950287 160.436993 
L 386.082965 160.01313 
L 387.50475 159.829552 
L 388.571089 159.418918 
L 390.348321 159.284255 
L 392.480999 159.111493 
L 393.902785 158.870684 
L 395.32457 158.798015 
L 396.390909 158.765543 
L 397.101802 158.554553 
L 397.812695 158.497484 
L 398.879034 158.29881 
L 400.300819 158.131083 
L 400.656265 157.897758 
L 401.367158 157.891763 
L 402.078051 157.510171 
L 403.499836 157.390074 
L 403.855283 157.324989 
L 404.210729 157.099517 
L 404.566175 157.025652 
L 404.921622 156.771902 
L 405.632514 156.724615 
L 405.987961 156.513321 
L 407.0543 156.409991 
L 408.476085 155.739579 
L 410.253317 155.543531 
L 410.96421 155.285306 
L 411.319656 155.064853 
L 412.030549 155.000696 
L 412.385995 154.733018 
L 413.096888 154.711085 
L 418.428583 153.224026 
L 419.850369 152.629398 
L 420.561261 152.61633 
L 421.6276 152.166635 
L 422.338493 152.101878 
L 422.693939 151.706458 
L 423.404832 151.571878 
L 423.760278 151.367059 
L 424.471171 151.271932 
L 424.826618 151.144934 
L 425.182064 150.469727 
L 425.892957 150.114785 
L 426.248403 150.035552 
L 426.603849 149.313579 
L 427.314742 149.180269 
L 427.670188 148.940925 
L 428.025635 148.904861 
L 428.381081 148.272244 
L 428.736527 148.026176 
L 429.091974 147.309338 
L 429.802867 146.790942 
L 430.513759 145.565483 
L 430.869206 145.546328 
L 431.224652 144.823144 
L 431.935545 144.676977 
L 432.290991 143.352453 
L 432.646437 142.830698 
L 433.35733 142.690777 
L 433.712776 142.207535 
L 434.068223 140.401687 
L 434.423669 139.712169 
L 434.779115 138.500434 
L 435.490008 137.047058 
L 435.845455 131.902016 
L 435.845455 131.902016 
" clip-path="url(#p5b72f48b42)" style="fill: none; stroke: #4c72b0; stroke-width: 1.5; stroke-linecap: round"/>
   </g>
   <g id="line2d_12">
    <path d="M 80.754545 181.560963 
L 83.598116 181.372644 
L 87.15258 181.086275 
L 88.929812 181.004428 
L 92.484275 180.763574 
L 94.261507 180.653867 
L 96.394185 180.447764 
L 98.88231 180.191348 
L 102.792219 179.754478 
L 103.858559 179.67272 
L 105.280344 179.490812 
L 107.057576 179.390964 
L 113.811057 178.640698 
L 115.943735 178.502556 
L 116.299181 178.311217 
L 119.853645 178.060465 
L 120.564537 177.933759 
L 125.896233 177.519794 
L 130.161589 177.308996 
L 131.227928 177.220319 
L 131.583374 176.938545 
L 136.559623 176.550984 
L 138.692301 176.314072 
L 141.180426 176.00186 
L 141.891319 175.829024 
L 143.313104 175.766361 
L 144.379443 175.657953 
L 148.289353 175.353661 
L 149.355692 175.285726 
L 155.39828 174.79323 
L 156.109173 174.500466 
L 160.019083 174.311356 
L 160.729975 173.981018 
L 166.061671 173.677015 
L 167.12801 173.615503 
L 169.616134 173.445795 
L 185.61122 172.22784 
L 186.322113 172.076299 
L 189.165684 171.961298 
L 191.298362 171.819234 
L 192.009255 171.713692 
L 192.720147 171.614466 
L 194.141933 171.390566 
L 197.696396 171.147106 
L 198.762735 170.869958 
L 201.25086 170.563017 
L 222.222195 169.254343 
L 222.933088 169.157529 
L 224.710319 168.918108 
L 225.421212 168.802654 
L 227.55389 168.669511 
L 232.885586 168.269644 
L 233.596478 168.160062 
L 235.37371 168.00636 
L 237.150942 167.870427 
L 237.861835 167.733174 
L 238.928174 167.642398 
L 239.639066 167.570919 
L 240.705405 167.475419 
L 241.416298 167.305601 
L 243.19353 167.176054 
L 249.947011 166.488284 
L 252.790581 166.375085 
L 254.212367 166.287648 
L 254.567813 166.142569 
L 255.278706 166.013051 
L 256.345045 165.882622 
L 259.188616 165.777589 
L 262.032187 165.544831 
L 263.098526 165.266457 
L 264.164865 165.197466 
L 264.875758 165.065352 
L 266.652989 164.926684 
L 270.207453 164.503198 
L 271.273792 164.208297 
L 274.117363 164.10155 
L 276.605487 163.877722 
L 277.31638 163.726405 
L 280.159951 163.242394 
L 280.870844 163.136864 
L 282.292629 163.068212 
L 283.358968 162.971342 
L 287.268878 162.566708 
L 288.335217 162.502652 
L 289.401556 162.387838 
L 291.889681 162.247325 
L 295.088698 161.850516 
L 297.932269 161.611025 
L 299.7095 161.31821 
L 302.553071 160.957275 
L 303.974857 160.817617 
L 304.685749 160.624804 
L 306.107535 160.367932 
L 306.818428 160.308631 
L 307.52932 160.152904 
L 308.951106 160.039343 
L 320.325389 158.82166 
L 325.657084 158.071141 
L 326.012531 157.929478 
L 327.07887 157.865462 
L 327.789762 157.732291 
L 328.856102 157.571269 
L 329.566994 157.459671 
L 332.055119 157.149777 
L 338.8086 156.453373 
L 340.941278 155.993201 
L 342.007617 155.88354 
L 343.073956 155.830219 
L 343.429402 155.533315 
L 344.851188 155.210179 
L 346.272973 155.04647 
L 346.983866 154.914751 
L 347.694758 154.854522 
L 348.050205 154.732008 
L 349.116544 154.639119 
L 355.870025 153.817396 
L 358.358149 153.610588 
L 359.424488 153.303484 
L 361.912613 153.053197 
L 363.334398 152.933376 
L 363.689844 152.745086 
L 367.955201 152.320844 
L 368.310647 152.006694 
L 369.376986 151.877729 
L 370.443325 151.490353 
L 371.865111 151.308335 
L 372.220557 151.007981 
L 373.642342 150.820693 
L 373.997789 150.402445 
L 375.064128 150.230725 
L 375.419574 149.781849 
L 375.77502 149.754114 
L 376.84136 149.384765 
L 377.552252 149.364346 
L 377.907699 149.195957 
L 378.263145 149.151634 
L 378.618591 148.891447 
L 379.329484 148.840214 
L 380.040377 148.709254 
L 380.751269 148.51156 
L 381.106716 148.183385 
L 381.462162 148.097628 
L 381.817609 147.78972 
L 383.950287 147.415004 
L 384.305733 146.870631 
L 385.016626 146.777213 
L 387.50475 146.405402 
L 387.860197 146.270595 
L 388.215643 145.896494 
L 390.703767 145.43694 
L 391.770106 145.35078 
L 392.480999 145.263855 
L 392.836446 145.259903 
L 393.902785 144.873054 
L 394.258231 144.864463 
L 394.613677 144.700398 
L 395.32457 144.66089 
L 395.680016 144.326265 
L 397.457248 144.215996 
L 398.168141 143.995403 
L 398.879034 143.957859 
L 399.23448 143.840065 
L 399.589926 143.596 
L 399.945373 143.533964 
L 400.300819 143.211683 
L 400.656265 143.087768 
L 401.367158 142.591972 
L 402.078051 142.422202 
L 402.788943 142.295451 
L 403.14439 142.206527 
L 403.499836 141.986145 
L 404.210729 141.858598 
L 404.921622 141.832718 
L 405.632514 141.435293 
L 405.987961 141.390358 
L 406.343407 141.183379 
L 406.698853 141.136395 
L 407.0543 140.44546 
L 409.542424 139.991362 
L 409.897871 139.956038 
L 410.96421 139.426763 
L 412.385995 138.946953 
L 412.741441 138.70492 
L 413.452334 138.491888 
L 413.807781 138.07093 
L 414.518673 138.017158 
L 415.229566 137.658517 
L 415.585012 137.638274 
L 415.940459 137.434041 
L 416.295905 137.367114 
L 416.651351 137.084638 
L 417.362244 136.974991 
L 418.073137 136.823296 
L 418.784029 136.640821 
L 419.139476 135.66308 
L 419.850369 135.524402 
L 420.561261 133.670058 
L 420.916708 133.602587 
L 421.6276 132.411073 
L 421.983047 132.099268 
L 422.693939 131.695462 
L 423.049386 131.303836 
L 424.471171 130.556329 
L 424.826618 130.469876 
L 425.182064 130.226049 
L 425.892957 128.295198 
L 426.248403 127.770672 
L 426.603849 126.531783 
L 427.314742 126.298195 
L 427.670188 125.518402 
L 428.381081 125.417261 
L 428.736527 125.328442 
L 429.091974 124.833871 
L 429.44742 124.793351 
L 429.802867 124.2154 
L 430.513759 122.250764 
L 430.869206 121.096642 
L 431.224652 120.878485 
L 431.580098 120.813091 
L 431.935545 120.223688 
L 432.290991 119.955065 
L 432.646437 119.387857 
L 433.001884 117.599148 
L 433.35733 116.817482 
L 433.712776 115.511485 
L 434.423669 114.738599 
L 434.779115 114.703593 
L 435.134562 112.382139 
L 435.845455 103.701299 
L 435.845455 103.701299 
" clip-path="url(#p5b72f48b42)" style="fill: none; stroke: #dd8452; stroke-width: 1.5; stroke-linecap: round"/>
   </g>
   <g id="line2d_13">
    <path d="M 80.754545 180.967825 
L 81.465438 179.074375 
L 82.531777 178.755475 
L 83.24267 177.182607 
L 84.309009 176.626681 
L 84.664455 175.727001 
L 85.019902 175.700838 
L 86.086241 175.125198 
L 86.441687 175.10237 
L 87.15258 174.601271 
L 87.863473 173.845845 
L 88.218919 173.78541 
L 88.574365 173.544882 
L 88.929812 173.105833 
L 90.707043 172.49377 
L 91.417936 172.470993 
L 92.128829 171.988336 
L 92.484275 171.877724 
L 92.839722 171.372594 
L 93.550614 170.97949 
L 94.261507 170.736935 
L 100.304095 169.529465 
L 100.659541 169.366024 
L 102.436773 169.299353 
L 102.792219 168.750598 
L 103.503112 168.428973 
L 103.858559 168.283272 
L 104.214005 167.992516 
L 106.346683 167.513292 
L 106.702129 167.26197 
L 109.190254 166.791616 
L 109.5457 166.479286 
L 110.256593 166.375647 
L 110.967486 166.249884 
L 112.033825 166.16245 
L 113.100164 166.022931 
L 115.232842 165.858951 
L 115.588288 165.677297 
L 115.943735 165.256358 
L 117.36552 165.056147 
L 118.431859 164.699187 
L 118.787305 164.45165 
L 119.853645 164.279816 
L 120.209091 164.036891 
L 122.341769 163.791817 
L 123.052662 163.775867 
L 123.763554 163.570192 
L 124.119001 163.535795 
L 124.474447 163.324133 
L 124.829894 163.323709 
L 125.18534 163.079533 
L 129.09525 162.470536 
L 130.517035 162.126923 
L 131.938821 161.977056 
L 134.071499 161.814038 
L 135.493284 161.694332 
L 136.559623 161.424652 
L 137.270516 161.366082 
L 137.625962 161.144308 
L 138.336855 161.079603 
L 138.692301 160.838923 
L 142.957658 160.109277 
L 144.379443 159.99034 
L 144.734889 159.906325 
L 145.090336 159.61753 
L 147.57846 159.377848 
L 152.910156 158.323082 
L 155.39828 158.215647 
L 159.30819 157.79955 
L 162.151761 157.382039 
L 162.862654 157.248744 
L 170.327027 156.195253 
L 170.682473 156.179751 
L 171.393366 155.995408 
L 175.303276 155.603298 
L 180.634971 155.199973 
L 182.056757 154.931713 
L 183.123096 154.804852 
L 183.833989 154.640361 
L 185.255774 154.335 
L 190.587469 153.887615 
L 190.942916 153.692415 
L 192.720147 153.541414 
L 196.630057 153.138015 
L 197.34095 152.927431 
L 198.407289 152.756344 
L 199.473628 152.644547 
L 201.25086 152.557237 
L 201.606306 152.361073 
L 202.672645 152.261558 
L 203.738984 152.171556 
L 204.094431 152.015448 
L 204.805324 151.924825 
L 206.582555 151.615222 
L 211.203358 150.957441 
L 211.558804 150.809157 
L 213.336036 150.596497 
L 219.023178 149.771659 
L 220.089517 149.638401 
L 222.577641 149.196815 
L 224.354873 149.084176 
L 225.421212 148.983872 
L 226.132105 148.860629 
L 226.842998 148.745871 
L 230.042015 148.404944 
L 231.819247 148.310001 
L 233.951925 147.911363 
L 235.37371 147.762882 
L 238.928174 147.189107 
L 239.28362 147.034606 
L 241.060852 146.825766 
L 241.416298 146.651659 
L 243.19353 146.550982 
L 243.548976 146.335011 
L 244.615315 146.267614 
L 245.326208 146.148146 
L 246.037101 146.076217 
L 247.458886 145.8381 
L 253.856921 145.221856 
L 254.92326 145.140319 
L 255.634152 144.967556 
L 262.387633 144.439452 
L 263.098526 144.303701 
L 264.520311 144.187693 
L 265.942097 144.011417 
L 267.363882 143.910727 
L 268.074775 143.855454 
L 268.430221 143.693672 
L 271.273792 143.380339 
L 271.629238 143.305242 
L 271.984685 143.105301 
L 273.40647 142.897367 
L 274.117363 142.679989 
L 274.828256 142.596612 
L 275.539148 142.458471 
L 281.937183 141.722164 
L 282.292629 141.467721 
L 283.358968 141.379245 
L 283.714414 141.103225 
L 286.913432 140.701722 
L 287.268878 140.566135 
L 288.690663 140.489067 
L 289.401556 140.377682 
L 291.534234 140.221929 
L 292.600573 139.953264 
L 295.79959 139.558276 
L 298.643161 139.304874 
L 299.7095 139.130268 
L 300.064947 138.838247 
L 300.420393 138.811893 
L 300.775839 138.604139 
L 303.263964 138.420133 
L 305.396642 138.200599 
L 306.107535 138.115494 
L 307.173874 138.108327 
L 308.240213 137.826672 
L 308.951106 137.702888 
L 309.661998 137.606797 
L 310.728337 137.536016 
L 311.083784 137.351971 
L 314.638247 136.908515 
L 317.126372 136.7326 
L 324.235299 135.733033 
L 324.590745 135.462984 
L 326.723423 135.336987 
L 327.789762 135.192942 
L 328.145209 135.188582 
L 328.856102 134.884734 
L 333.476904 134.314905 
L 333.832351 134.151065 
L 334.543243 134.000345 
L 335.965029 133.841259 
L 336.320475 133.407991 
L 337.031368 133.02659 
L 337.74226 132.88201 
L 341.296724 132.292771 
L 341.65217 132.152324 
L 342.007617 132.14262 
L 342.718509 131.912413 
L 343.784848 131.645246 
L 344.140295 131.481079 
L 346.628419 131.285883 
L 349.47199 130.86714 
L 350.538329 130.781862 
L 350.893776 130.592421 
L 352.315561 130.489572 
L 352.671007 130.063664 
L 356.936364 129.296536 
L 357.647256 128.905265 
L 358.713595 128.789717 
L 361.20172 128.40821 
L 361.557166 127.952151 
L 362.268059 127.883352 
L 362.623505 127.628627 
L 363.689844 127.504638 
L 364.045291 127.201264 
L 364.756183 127.014927 
L 366.177969 126.738877 
L 366.533415 126.434419 
L 367.955201 126.142429 
L 368.310647 126.141405 
L 369.02154 125.933158 
L 371.154218 125.50557 
L 371.509664 125.327316 
L 371.865111 125.276011 
L 372.576003 124.994767 
L 373.286896 124.956309 
L 373.997789 124.775298 
L 374.353235 124.405313 
L 376.485913 123.668227 
L 376.84136 123.621059 
L 377.196806 123.320443 
L 381.817609 122.522115 
L 382.528501 122.476761 
L 383.59484 122.05234 
L 383.950287 122.03935 
L 384.305733 121.775488 
L 386.793857 121.283044 
L 387.50475 120.704587 
L 387.860197 120.557473 
L 388.215643 120.100522 
L 389.637428 119.982638 
L 392.125553 119.434459 
L 392.480999 119.186287 
L 393.191892 119.058853 
L 393.902785 118.948426 
L 396.035463 118.781814 
L 396.390909 118.455977 
L 396.746355 118.377557 
L 397.101802 117.947535 
L 397.457248 117.797924 
L 398.523587 117.735859 
L 400.300819 117.151199 
L 401.011712 116.906414 
L 401.367158 116.445396 
L 401.722604 116.198195 
L 402.078051 115.645354 
L 402.433497 115.606154 
L 402.788943 115.285947 
L 403.14439 115.231629 
L 403.499836 114.706512 
L 404.210729 114.540479 
L 404.566175 114.434367 
L 405.632514 113.522956 
L 408.831532 112.647785 
L 409.186978 112.336023 
L 410.253317 112.188725 
L 411.319656 111.911014 
L 412.385995 111.869607 
L 412.741441 110.818639 
L 413.096888 110.698893 
L 413.452334 110.342819 
L 414.163227 110.243834 
L 414.518673 110.208258 
L 414.87412 109.978177 
L 417.006798 109.529392 
L 417.362244 109.308552 
L 417.71769 108.875396 
L 418.784029 108.651017 
L 419.139476 108.201211 
L 419.850369 108.111466 
L 420.205815 107.678431 
L 420.561261 107.607717 
L 421.272154 106.944011 
L 421.6276 106.844776 
L 422.338493 105.715151 
L 422.693939 104.684507 
L 423.760278 104.366737 
L 424.115725 103.269988 
L 424.471171 102.727909 
L 425.182064 102.119119 
L 425.53751 101.919007 
L 425.892957 101.905469 
L 426.959296 100.052906 
L 427.314742 99.828846 
L 428.025635 99.716722 
L 428.381081 99.335803 
L 429.44742 98.939115 
L 429.802867 98.164054 
L 430.158313 97.925986 
L 430.513759 95.859288 
L 430.869206 95.631098 
L 431.224652 95.056641 
L 431.935545 94.817341 
L 432.290991 93.165225 
L 433.001884 93.059378 
L 433.35733 92.57913 
L 434.068223 87.314864 
L 434.779115 84.541492 
L 435.490008 72.35379 
L 435.845455 62.775592 
L 435.845455 62.775592 
" clip-path="url(#p5b72f48b42)" style="fill: none; stroke: #55a868; stroke-width: 1.5; stroke-linecap: round"/>
   </g>
   <g id="line2d_14">
    <path d="M 80.754545 176.150426 
L 81.109992 175.43546 
L 81.465438 172.640669 
L 81.820885 172.621541 
L 82.176331 172.481925 
L 82.531777 172.105381 
L 82.887224 171.212457 
L 83.24267 171.150737 
L 83.953563 169.987794 
L 84.664455 169.785348 
L 85.019902 169.130718 
L 86.086241 168.682549 
L 87.15258 168.495944 
L 87.508026 168.349749 
L 88.574365 167.253648 
L 88.929812 166.795251 
L 89.285258 166.737277 
L 89.640704 166.433815 
L 89.996151 165.655658 
L 90.351597 165.339005 
L 90.707043 164.862043 
L 91.06249 164.652637 
L 91.417936 164.592142 
L 91.773382 164.272852 
L 92.128829 163.460687 
L 92.484275 163.265305 
L 93.195168 163.192906 
L 93.550614 162.709374 
L 94.616953 162.573612 
L 94.9724 162.376727 
L 95.327846 161.87188 
L 97.815971 161.277355 
L 98.88231 161.197718 
L 99.237756 160.907409 
L 100.659541 160.807808 
L 101.014988 160.530779 
L 102.436773 160.300957 
L 102.792219 159.801965 
L 103.503112 159.721936 
L 104.569451 159.670946 
L 104.924898 159.443853 
L 105.280344 158.804565 
L 105.63579 158.747862 
L 106.346683 158.39424 
L 107.057576 158.268129 
L 107.413022 157.944302 
L 108.479361 157.70705 
L 109.190254 157.634585 
L 109.5457 157.416836 
L 110.256593 157.332166 
L 110.612039 157.108251 
L 111.322932 156.973959 
L 111.678378 156.964453 
L 112.033825 156.734216 
L 112.744717 156.675879 
L 113.100164 156.198599 
L 113.811057 156.096981 
L 114.877396 155.807974 
L 115.588288 155.550165 
L 115.943735 155.516052 
L 116.654627 155.231409 
L 117.36552 155.128882 
L 117.720966 154.823889 
L 119.142752 154.532828 
L 120.564537 154.305069 
L 121.27543 154.144332 
L 121.630876 153.887149 
L 123.052662 153.730769 
L 124.474447 153.62677 
L 125.18534 153.219068 
L 129.450696 152.857487 
L 130.517035 152.175492 
L 131.938821 151.904602 
L 132.294267 151.638801 
L 134.782391 151.213162 
L 135.493284 151.0916 
L 136.91507 150.936975 
L 138.692301 150.853464 
L 139.403194 150.650489 
L 140.82498 150.534969 
L 146.156675 149.694807 
L 147.223014 149.60131 
L 147.933907 149.335122 
L 148.644799 149.224664 
L 149.000246 149.173821 
L 149.355692 148.729296 
L 150.066585 148.590739 
L 151.48837 148.405738 
L 151.843817 148.162299 
L 152.910156 148.114868 
L 154.687387 147.20661 
L 156.109173 147.058448 
L 156.464619 146.815187 
L 158.597297 146.563418 
L 159.663636 146.350872 
L 164.284439 145.801921 
L 164.639885 145.788221 
L 164.995332 145.498295 
L 167.12801 145.397095 
L 167.483456 145.212376 
L 169.260688 144.913645 
L 169.971581 144.810982 
L 172.459705 144.49195 
L 172.815152 144.302742 
L 176.369615 144.041417 
L 178.85774 143.861025 
L 179.568632 143.690738 
L 182.767649 143.360674 
L 183.478542 143.07998 
L 184.900328 142.664133 
L 186.677559 142.398631 
L 188.810238 142.13142 
L 189.165684 141.939749 
L 190.232023 141.908231 
L 192.009255 141.408053 
L 193.43104 141.311837 
L 193.786486 141.289282 
L 195.563718 140.643007 
L 196.985504 140.50258 
L 200.184521 140.033097 
L 200.895414 139.907499 
L 201.25086 139.89889 
L 201.961753 139.73541 
L 203.028092 139.676368 
L 203.738984 139.514282 
L 204.094431 139.495276 
L 204.805324 139.27696 
L 205.871663 139.19495 
L 207.648894 139.080587 
L 211.203358 138.558856 
L 211.914251 138.342058 
L 213.691482 138.127032 
L 214.046929 137.805947 
L 215.468714 137.763325 
L 216.8905 137.398764 
L 218.667731 137.225417 
L 219.73407 137.108 
L 220.089517 136.830352 
L 221.155856 136.678918 
L 222.222195 136.621106 
L 222.933088 136.442612 
L 226.487551 135.86055 
L 226.842998 135.666723 
L 227.55389 135.635844 
L 227.909337 135.427506 
L 228.620229 135.420059 
L 228.975676 135.236562 
L 231.108354 135.144984 
L 239.639066 134.011757 
L 239.994513 133.789195 
L 242.482637 133.507006 
L 243.904423 133.230088 
L 245.326208 133.144197 
L 246.392547 132.782793 
L 247.814333 132.644 
L 249.236118 132.497873 
L 252.079689 132.302226 
L 252.435135 131.966251 
L 254.212367 131.724882 
L 254.92326 131.637596 
L 256.700491 131.347016 
L 257.76683 131.243152 
L 258.122277 131.008191 
L 259.544062 130.759799 
L 260.254955 130.734308 
L 260.965848 130.553954 
L 262.032187 130.446723 
L 263.098526 130.37687 
L 263.453972 130.144708 
L 265.231204 129.933281 
L 269.49656 129.361106 
L 272.695577 128.811653 
L 273.761916 128.670358 
L 276.960934 128.168119 
L 277.31638 128.025104 
L 278.027273 127.995468 
L 278.382719 127.790906 
L 279.449058 127.720774 
L 279.804505 127.543668 
L 283.714414 127.224501 
L 284.069861 127.116881 
L 284.780753 126.635466 
L 286.557985 126.511913 
L 287.268878 126.391428 
L 289.401556 126.123515 
L 291.534234 125.558826 
L 291.889681 125.529713 
L 292.245127 125.099674 
L 294.377805 124.960038 
L 295.79959 124.750031 
L 296.86593 124.668167 
L 297.932269 124.554454 
L 299.354054 124.284493 
L 300.420393 124.182379 
L 301.131286 123.998613 
L 302.553071 123.844373 
L 302.908518 123.509013 
L 303.263964 123.465082 
L 303.974857 123.099817 
L 305.041196 122.98578 
L 307.173874 122.758171 
L 307.884767 122.639264 
L 308.240213 122.050067 
L 309.306552 121.865148 
L 314.638247 121.137903 
L 316.060033 120.936299 
L 316.415479 120.902438 
L 317.126372 120.713358 
L 318.192711 120.506243 
L 318.903604 120.12625 
L 320.680835 119.929297 
L 321.036282 119.737775 
L 326.012531 119.177754 
L 326.367977 118.998196 
L 326.723423 118.984551 
L 327.07887 118.79176 
L 327.789762 118.734815 
L 328.500655 118.41768 
L 329.922441 118.21439 
L 330.277887 117.955173 
L 330.98878 117.821291 
L 332.766011 117.576132 
L 333.476904 117.209663 
L 334.543243 116.87912 
L 336.320475 116.79421 
L 336.675921 116.664295 
L 337.386814 116.584396 
L 337.74226 116.451352 
L 339.519492 116.341915 
L 339.874939 115.998301 
L 342.007617 115.506357 
L 342.363063 115.329539 
L 343.429402 115.238593 
L 344.140295 115.172973 
L 344.495741 114.940395 
L 345.917527 114.81177 
L 346.272973 114.667236 
L 348.405651 114.531158 
L 349.116544 114.250463 
L 349.827437 114.191012 
L 350.893776 113.87551 
L 351.249222 113.873836 
L 351.960115 113.536916 
L 353.3819 113.39653 
L 354.448239 113.211122 
L 354.803686 112.928024 
L 355.514578 112.847501 
L 355.870025 112.839777 
L 356.580917 112.619674 
L 357.647256 112.483297 
L 358.358149 112.179047 
L 358.713595 112.003375 
L 360.490827 111.889308 
L 361.20172 111.65351 
L 361.557166 111.020886 
L 363.334398 110.833956 
L 364.045291 110.669684 
L 364.400737 110.588658 
L 364.756183 110.234996 
L 366.533415 110.016067 
L 366.888862 109.792717 
L 368.310647 109.655832 
L 368.666093 109.377315 
L 370.087879 109.049321 
L 370.798771 109.001946 
L 371.154218 108.849679 
L 372.220557 108.663522 
L 373.642342 108.279949 
L 373.997789 108.235739 
L 374.708681 107.91474 
L 375.064128 107.892084 
L 375.419574 107.710336 
L 375.77502 107.390784 
L 376.130467 106.877251 
L 377.907699 106.363166 
L 378.263145 105.952911 
L 387.50475 103.754663 
L 388.215643 103.645978 
L 388.926536 102.971317 
L 389.992875 102.748689 
L 390.348321 102.385704 
L 393.902785 101.465815 
L 394.258231 101.273892 
L 394.613677 101.272166 
L 395.32457 100.896645 
L 396.390909 100.827091 
L 396.746355 100.642635 
L 397.457248 100.571739 
L 399.589926 99.403467 
L 399.945373 99.174563 
L 400.300819 99.173035 
L 400.656265 98.999907 
L 401.367158 98.355916 
L 401.722604 98.265592 
L 402.078051 98.041105 
L 403.14439 97.91917 
L 403.499836 97.709479 
L 404.210729 97.628875 
L 404.566175 97.417794 
L 405.632514 97.24711 
L 406.343407 96.032254 
L 406.698853 96.021237 
L 407.0543 95.76497 
L 407.409746 95.719698 
L 407.765192 95.274397 
L 408.120639 95.266666 
L 408.831532 94.902762 
L 409.186978 94.572697 
L 410.253317 94.193832 
L 410.608763 93.753658 
L 411.319656 93.700878 
L 411.675102 92.96505 
L 412.741441 92.815193 
L 413.096888 92.595868 
L 413.452334 92.581593 
L 413.807781 92.030845 
L 415.229566 91.301171 
L 415.585012 90.802681 
L 415.940459 90.505319 
L 416.651351 89.659206 
L 417.006798 89.454025 
L 418.428583 89.044658 
L 419.139476 88.393678 
L 419.494922 85.18166 
L 419.850369 85.086465 
L 420.205815 83.877569 
L 420.561261 83.834979 
L 420.916708 83.264428 
L 421.983047 83.06903 
L 422.338493 83.012218 
L 422.693939 81.887765 
L 423.760278 81.386904 
L 424.471171 80.604641 
L 424.826618 80.60419 
L 425.53751 79.684359 
L 425.892957 78.843986 
L 426.603849 75.887813 
L 426.959296 75.878615 
L 427.314742 75.277992 
L 427.670188 74.135582 
L 428.025635 73.850109 
L 428.381081 72.722706 
L 428.736527 70.81282 
L 429.091974 70.74395 
L 429.802867 69.419501 
L 430.158313 69.386493 
L 430.513759 68.253434 
L 430.869206 66.094099 
L 431.580098 66.059324 
L 431.935545 64.921953 
L 432.290991 64.77685 
L 432.646437 63.976756 
L 433.001884 62.539185 
L 433.712776 56.485267 
L 434.068223 55.719998 
L 434.423669 46.922797 
L 435.134562 44.748155 
L 435.490008 40.504367 
L 435.845455 33.332727 
L 435.845455 33.332727 
" clip-path="url(#p5b72f48b42)" style="fill: none; stroke: #c44e52; stroke-width: 1.5; stroke-linecap: round"/>
   </g>
   <g id="patch_3">
    <path d="M 63 189 
L 63 25.92 
" style="fill: none; stroke: #ffffff; stroke-width: 1.25; stroke-linejoin: miter; stroke-linecap: square"/>
   </g>
   <g id="patch_4">
    <path d="M 453.6 189 
L 453.6 25.92 
" style="fill: none; stroke: #ffffff; stroke-width: 1.25; stroke-linejoin: miter; stroke-linecap: square"/>
   </g>
   <g id="patch_5">
    <path d="M 63 189 
L 453.6 189 
" style="fill: none; stroke: #ffffff; stroke-width: 1.25; stroke-linejoin: miter; stroke-linecap: square"/>
   </g>
   <g id="patch_6">
    <path d="M 63 25.92 
L 453.6 25.92 
" style="fill: none; stroke: #ffffff; stroke-width: 1.25; stroke-linejoin: miter; stroke-linecap: square"/>
   </g>
  </g>
 </g>
 <defs>
  <clipPath id="p5b72f48b42">
   <rect x="63" y="25.92" width="390.6" height="163.08"/>
  </clipPath>
 </defs>
</svg>
