<?xml version="1.0" encoding="utf-8" standalone="no"?>
<!DOCTYPE svg PUBLIC "-//W3C//DTD SVG 1.1//EN"
  "http://www.w3.org/Graphics/SVG/1.1/DTD/svg11.dtd">
<svg xmlns:xlink="http://www.w3.org/1999/xlink" width="504pt" height="216pt" viewBox="0 0 504 216" xmlns="http://www.w3.org/2000/svg" version="1.1">
 <metadata>
  <rdf:RDF xmlns:dc="http://purl.org/dc/elements/1.1/" xmlns:cc="http://creativecommons.org/ns#" xmlns:rdf="http://www.w3.org/1999/02/22-rdf-syntax-ns#">
   <cc:Work>
    <dc:type rdf:resource="http://purl.org/dc/dcmitype/StillImage"/>
    <dc:date>2022-02-16T14:20:15.785111</dc:date>
    <dc:format>image/svg+xml</dc:format>
    <dc:creator>
     <cc:Agent>
      <dc:title>Matplotlib v3.5.1, https://matplotlib.org/</dc:title>
     </cc:Agent>
    </dc:creator>
   </cc:Work>
  </rdf:RDF>
 </metadata>
 <defs>
  <style type="text/css">*{stroke-linejoin: round; stroke-linecap: butt}</style>
 </defs>
 <g id="figure_1">
  <g id="patch_1">
   <path d="M 0 216 
L 504 216 
L 504 0 
L 0 0 
z
" style="fill: #ffffff"/>
  </g>
  <g id="axes_1">
   <g id="patch_2">
    <path d="M 63 189 
L 453.6 189 
L 453.6 25.92 
L 63 25.92 
z
" style="fill: #eaeaf2"/>
   </g>
   <g id="matplotlib.axis_1">
    <g id="xtick_1">
     <g id="line2d_1">
      <path d="M 80.754545 189 
L 80.754545 25.92 
" clip-path="url(#pc6e730139e)" style="fill: none; stroke: #ffffff; stroke-linecap: round"/>
     </g>
     <g id="text_1">
      <!-- 0 -->
      <g style="fill: #262626" transform="translate(77.69603 206.373594)scale(0.11 -0.11)">
       <defs>
        <path id="ArialMT-30" d="M 266 2259 
Q 266 3072 433 3567 
Q 600 4063 929 4331 
Q 1259 4600 1759 4600 
Q 2128 4600 2406 4451 
Q 2684 4303 2865 4023 
Q 3047 3744 3150 3342 
Q 3253 2941 3253 2259 
Q 3253 1453 3087 958 
Q 2922 463 2592 192 
Q 2263 -78 1759 -78 
Q 1097 -78 719 397 
Q 266 969 266 2259 
z
M 844 2259 
Q 844 1131 1108 757 
Q 1372 384 1759 384 
Q 2147 384 2411 759 
Q 2675 1134 2675 2259 
Q 2675 3391 2411 3762 
Q 2147 4134 1753 4134 
Q 1366 4134 1134 3806 
Q 844 3388 844 2259 
z
" transform="scale(0.015625)"/>
       </defs>
       <use xlink:href="#ArialMT-30"/>
      </g>
     </g>
    </g>
    <g id="xtick_2">
     <g id="line2d_2">
      <path d="M 151.843817 189 
L 151.843817 25.92 
" clip-path="url(#pc6e730139e)" style="fill: none; stroke: #ffffff; stroke-linecap: round"/>
     </g>
     <g id="text_2">
      <!-- 200 -->
      <g style="fill: #262626" transform="translate(142.66827 206.373594)scale(0.11 -0.11)">
       <defs>
        <path id="ArialMT-32" d="M 3222 541 
L 3222 0 
L 194 0 
Q 188 203 259 391 
Q 375 700 629 1000 
Q 884 1300 1366 1694 
Q 2113 2306 2375 2664 
Q 2638 3022 2638 3341 
Q 2638 3675 2398 3904 
Q 2159 4134 1775 4134 
Q 1369 4134 1125 3890 
Q 881 3647 878 3216 
L 300 3275 
Q 359 3922 746 4261 
Q 1134 4600 1788 4600 
Q 2447 4600 2831 4234 
Q 3216 3869 3216 3328 
Q 3216 3053 3103 2787 
Q 2991 2522 2730 2228 
Q 2469 1934 1863 1422 
Q 1356 997 1212 845 
Q 1069 694 975 541 
L 3222 541 
z
" transform="scale(0.015625)"/>
       </defs>
       <use xlink:href="#ArialMT-32"/>
       <use xlink:href="#ArialMT-30" x="55.615234"/>
       <use xlink:href="#ArialMT-30" x="111.230469"/>
      </g>
     </g>
    </g>
    <g id="xtick_3">
     <g id="line2d_3">
      <path d="M 222.933088 189 
L 222.933088 25.92 
" clip-path="url(#pc6e730139e)" style="fill: none; stroke: #ffffff; stroke-linecap: round"/>
     </g>
     <g id="text_3">
      <!-- 400 -->
      <g style="fill: #262626" transform="translate(213.757541 206.373594)scale(0.11 -0.11)">
       <defs>
        <path id="ArialMT-34" d="M 2069 0 
L 2069 1097 
L 81 1097 
L 81 1613 
L 2172 4581 
L 2631 4581 
L 2631 1613 
L 3250 1613 
L 3250 1097 
L 2631 1097 
L 2631 0 
L 2069 0 
z
M 2069 1613 
L 2069 3678 
L 634 1613 
L 2069 1613 
z
" transform="scale(0.015625)"/>
       </defs>
       <use xlink:href="#ArialMT-34"/>
       <use xlink:href="#ArialMT-30" x="55.615234"/>
       <use xlink:href="#ArialMT-30" x="111.230469"/>
      </g>
     </g>
    </g>
    <g id="xtick_4">
     <g id="line2d_4">
      <path d="M 294.022359 189 
L 294.022359 25.92 
" clip-path="url(#pc6e730139e)" style="fill: none; stroke: #ffffff; stroke-linecap: round"/>
     </g>
     <g id="text_4">
      <!-- 600 -->
      <g style="fill: #262626" transform="translate(284.846812 206.373594)scale(0.11 -0.11)">
       <defs>
        <path id="ArialMT-36" d="M 3184 3459 
L 2625 3416 
Q 2550 3747 2413 3897 
Q 2184 4138 1850 4138 
Q 1581 4138 1378 3988 
Q 1113 3794 959 3422 
Q 806 3050 800 2363 
Q 1003 2672 1297 2822 
Q 1591 2972 1913 2972 
Q 2475 2972 2870 2558 
Q 3266 2144 3266 1488 
Q 3266 1056 3080 686 
Q 2894 316 2569 119 
Q 2244 -78 1831 -78 
Q 1128 -78 684 439 
Q 241 956 241 2144 
Q 241 3472 731 4075 
Q 1159 4600 1884 4600 
Q 2425 4600 2770 4297 
Q 3116 3994 3184 3459 
z
M 888 1484 
Q 888 1194 1011 928 
Q 1134 663 1356 523 
Q 1578 384 1822 384 
Q 2178 384 2434 671 
Q 2691 959 2691 1453 
Q 2691 1928 2437 2201 
Q 2184 2475 1800 2475 
Q 1419 2475 1153 2201 
Q 888 1928 888 1484 
z
" transform="scale(0.015625)"/>
       </defs>
       <use xlink:href="#ArialMT-36"/>
       <use xlink:href="#ArialMT-30" x="55.615234"/>
       <use xlink:href="#ArialMT-30" x="111.230469"/>
      </g>
     </g>
    </g>
    <g id="xtick_5">
     <g id="line2d_5">
      <path d="M 365.11163 189 
L 365.11163 25.92 
" clip-path="url(#pc6e730139e)" style="fill: none; stroke: #ffffff; stroke-linecap: round"/>
     </g>
     <g id="text_5">
      <!-- 800 -->
      <g style="fill: #262626" transform="translate(355.936083 206.373594)scale(0.11 -0.11)">
       <defs>
        <path id="ArialMT-38" d="M 1131 2484 
Q 781 2613 612 2850 
Q 444 3088 444 3419 
Q 444 3919 803 4259 
Q 1163 4600 1759 4600 
Q 2359 4600 2725 4251 
Q 3091 3903 3091 3403 
Q 3091 3084 2923 2848 
Q 2756 2613 2416 2484 
Q 2838 2347 3058 2040 
Q 3278 1734 3278 1309 
Q 3278 722 2862 322 
Q 2447 -78 1769 -78 
Q 1091 -78 675 323 
Q 259 725 259 1325 
Q 259 1772 486 2073 
Q 713 2375 1131 2484 
z
M 1019 3438 
Q 1019 3113 1228 2906 
Q 1438 2700 1772 2700 
Q 2097 2700 2305 2904 
Q 2513 3109 2513 3406 
Q 2513 3716 2298 3927 
Q 2084 4138 1766 4138 
Q 1444 4138 1231 3931 
Q 1019 3725 1019 3438 
z
M 838 1322 
Q 838 1081 952 856 
Q 1066 631 1291 507 
Q 1516 384 1775 384 
Q 2178 384 2440 643 
Q 2703 903 2703 1303 
Q 2703 1709 2433 1975 
Q 2163 2241 1756 2241 
Q 1359 2241 1098 1978 
Q 838 1716 838 1322 
z
" transform="scale(0.015625)"/>
       </defs>
       <use xlink:href="#ArialMT-38"/>
       <use xlink:href="#ArialMT-30" x="55.615234"/>
       <use xlink:href="#ArialMT-30" x="111.230469"/>
      </g>
     </g>
    </g>
    <g id="xtick_6">
     <g id="line2d_6">
      <path d="M 436.200901 189 
L 436.200901 25.92 
" clip-path="url(#pc6e730139e)" style="fill: none; stroke: #ffffff; stroke-linecap: round"/>
     </g>
     <g id="text_6">
      <!-- 1000 -->
      <g style="fill: #262626" transform="translate(423.966838 206.373594)scale(0.11 -0.11)">
       <defs>
        <path id="ArialMT-31" d="M 2384 0 
L 1822 0 
L 1822 3584 
Q 1619 3391 1289 3197 
Q 959 3003 697 2906 
L 697 3450 
Q 1169 3672 1522 3987 
Q 1875 4303 2022 4600 
L 2384 4600 
L 2384 0 
z
" transform="scale(0.015625)"/>
       </defs>
       <use xlink:href="#ArialMT-31"/>
       <use xlink:href="#ArialMT-30" x="55.615234"/>
       <use xlink:href="#ArialMT-30" x="111.230469"/>
       <use xlink:href="#ArialMT-30" x="166.845703"/>
      </g>
     </g>
    </g>
   </g>
   <g id="matplotlib.axis_2">
    <g id="ytick_1">
     <g id="line2d_7">
      <path d="M 63 181.593361 
L 453.6 181.593361 
" clip-path="url(#pc6e730139e)" style="fill: none; stroke: #ffffff; stroke-linecap: round"/>
     </g>
     <g id="text_7">
      <!-- 0 -->
      <g style="fill: #262626" transform="translate(47.382969 185.530158)scale(0.11 -0.11)">
       <use xlink:href="#ArialMT-30"/>
      </g>
     </g>
    </g>
    <g id="ytick_2">
     <g id="line2d_8">
      <path d="M 63 135.313308 
L 453.6 135.313308 
" clip-path="url(#pc6e730139e)" style="fill: none; stroke: #ffffff; stroke-linecap: round"/>
     </g>
     <g id="text_8">
      <!-- 5 -->
      <g style="fill: #262626" transform="translate(47.382969 139.250105)scale(0.11 -0.11)">
       <defs>
        <path id="ArialMT-35" d="M 266 1200 
L 856 1250 
Q 922 819 1161 601 
Q 1400 384 1738 384 
Q 2144 384 2425 690 
Q 2706 997 2706 1503 
Q 2706 1984 2436 2262 
Q 2166 2541 1728 2541 
Q 1456 2541 1237 2417 
Q 1019 2294 894 2097 
L 366 2166 
L 809 4519 
L 3088 4519 
L 3088 3981 
L 1259 3981 
L 1013 2750 
Q 1425 3038 1878 3038 
Q 2478 3038 2890 2622 
Q 3303 2206 3303 1553 
Q 3303 931 2941 478 
Q 2500 -78 1738 -78 
Q 1113 -78 717 272 
Q 322 622 266 1200 
z
" transform="scale(0.015625)"/>
       </defs>
       <use xlink:href="#ArialMT-35"/>
      </g>
     </g>
    </g>
    <g id="ytick_3">
     <g id="line2d_9">
      <path d="M 63 89.033254 
L 453.6 89.033254 
" clip-path="url(#pc6e730139e)" style="fill: none; stroke: #ffffff; stroke-linecap: round"/>
     </g>
     <g id="text_9">
      <!-- 10 -->
      <g style="fill: #262626" transform="translate(41.265937 92.970051)scale(0.11 -0.11)">
       <use xlink:href="#ArialMT-31"/>
       <use xlink:href="#ArialMT-30" x="55.615234"/>
      </g>
     </g>
    </g>
    <g id="ytick_4">
     <g id="line2d_10">
      <path d="M 63 42.753201 
L 453.6 42.753201 
" clip-path="url(#pc6e730139e)" style="fill: none; stroke: #ffffff; stroke-linecap: round"/>
     </g>
     <g id="text_10">
      <!-- 15 -->
      <g style="fill: #262626" transform="translate(41.265937 46.689998)scale(0.11 -0.11)">
       <use xlink:href="#ArialMT-31"/>
       <use xlink:href="#ArialMT-35" x="55.615234"/>
      </g>
     </g>
    </g>
    <g id="text_11">
     <!-- Observ_10 -->
     <g style="fill: #262626" transform="translate(34.880938 136.8075)rotate(-90)scale(0.12 -0.12)">
      <defs>
       <path id="ArialMT-4f" d="M 309 2231 
Q 309 3372 921 4017 
Q 1534 4663 2503 4663 
Q 3138 4663 3647 4359 
Q 4156 4056 4423 3514 
Q 4691 2972 4691 2284 
Q 4691 1588 4409 1038 
Q 4128 488 3612 205 
Q 3097 -78 2500 -78 
Q 1853 -78 1343 234 
Q 834 547 571 1087 
Q 309 1628 309 2231 
z
M 934 2222 
Q 934 1394 1379 917 
Q 1825 441 2497 441 
Q 3181 441 3623 922 
Q 4066 1403 4066 2288 
Q 4066 2847 3877 3264 
Q 3688 3681 3323 3911 
Q 2959 4141 2506 4141 
Q 1863 4141 1398 3698 
Q 934 3256 934 2222 
z
" transform="scale(0.015625)"/>
       <path id="ArialMT-62" d="M 941 0 
L 419 0 
L 419 4581 
L 981 4581 
L 981 2947 
Q 1338 3394 1891 3394 
Q 2197 3394 2470 3270 
Q 2744 3147 2920 2923 
Q 3097 2700 3197 2384 
Q 3297 2069 3297 1709 
Q 3297 856 2875 390 
Q 2453 -75 1863 -75 
Q 1275 -75 941 416 
L 941 0 
z
M 934 1684 
Q 934 1088 1097 822 
Q 1363 388 1816 388 
Q 2184 388 2453 708 
Q 2722 1028 2722 1663 
Q 2722 2313 2464 2622 
Q 2206 2931 1841 2931 
Q 1472 2931 1203 2611 
Q 934 2291 934 1684 
z
" transform="scale(0.015625)"/>
       <path id="ArialMT-73" d="M 197 991 
L 753 1078 
Q 800 744 1014 566 
Q 1228 388 1613 388 
Q 2000 388 2187 545 
Q 2375 703 2375 916 
Q 2375 1106 2209 1216 
Q 2094 1291 1634 1406 
Q 1016 1563 777 1677 
Q 538 1791 414 1992 
Q 291 2194 291 2438 
Q 291 2659 392 2848 
Q 494 3038 669 3163 
Q 800 3259 1026 3326 
Q 1253 3394 1513 3394 
Q 1903 3394 2198 3281 
Q 2494 3169 2634 2976 
Q 2775 2784 2828 2463 
L 2278 2388 
Q 2241 2644 2061 2787 
Q 1881 2931 1553 2931 
Q 1166 2931 1000 2803 
Q 834 2675 834 2503 
Q 834 2394 903 2306 
Q 972 2216 1119 2156 
Q 1203 2125 1616 2013 
Q 2213 1853 2448 1751 
Q 2684 1650 2818 1456 
Q 2953 1263 2953 975 
Q 2953 694 2789 445 
Q 2625 197 2315 61 
Q 2006 -75 1616 -75 
Q 969 -75 630 194 
Q 291 463 197 991 
z
" transform="scale(0.015625)"/>
       <path id="ArialMT-65" d="M 2694 1069 
L 3275 997 
Q 3138 488 2766 206 
Q 2394 -75 1816 -75 
Q 1088 -75 661 373 
Q 234 822 234 1631 
Q 234 2469 665 2931 
Q 1097 3394 1784 3394 
Q 2450 3394 2872 2941 
Q 3294 2488 3294 1666 
Q 3294 1616 3291 1516 
L 816 1516 
Q 847 969 1125 678 
Q 1403 388 1819 388 
Q 2128 388 2347 550 
Q 2566 713 2694 1069 
z
M 847 1978 
L 2700 1978 
Q 2663 2397 2488 2606 
Q 2219 2931 1791 2931 
Q 1403 2931 1139 2672 
Q 875 2413 847 1978 
z
" transform="scale(0.015625)"/>
       <path id="ArialMT-72" d="M 416 0 
L 416 3319 
L 922 3319 
L 922 2816 
Q 1116 3169 1280 3281 
Q 1444 3394 1641 3394 
Q 1925 3394 2219 3213 
L 2025 2691 
Q 1819 2813 1613 2813 
Q 1428 2813 1281 2702 
Q 1134 2591 1072 2394 
Q 978 2094 978 1738 
L 978 0 
L 416 0 
z
" transform="scale(0.015625)"/>
       <path id="ArialMT-76" d="M 1344 0 
L 81 3319 
L 675 3319 
L 1388 1331 
Q 1503 1009 1600 663 
Q 1675 925 1809 1294 
L 2547 3319 
L 3125 3319 
L 1869 0 
L 1344 0 
z
" transform="scale(0.015625)"/>
       <path id="ArialMT-5f" d="M -97 -1272 
L -97 -866 
L 3631 -866 
L 3631 -1272 
L -97 -1272 
z
" transform="scale(0.015625)"/>
      </defs>
      <use xlink:href="#ArialMT-4f"/>
      <use xlink:href="#ArialMT-62" x="77.783203"/>
      <use xlink:href="#ArialMT-73" x="133.398438"/>
      <use xlink:href="#ArialMT-65" x="183.398438"/>
      <use xlink:href="#ArialMT-72" x="239.013672"/>
      <use xlink:href="#ArialMT-76" x="272.314453"/>
      <use xlink:href="#ArialMT-5f" x="322.314453"/>
      <use xlink:href="#ArialMT-31" x="377.929688"/>
      <use xlink:href="#ArialMT-30" x="433.544922"/>
     </g>
    </g>
   </g>
   <g id="line2d_11">
    <path d="M 80.754545 181.580738 
L 89.285258 181.202192 
L 101.72588 180.582247 
L 105.280344 180.468004 
L 114.521949 180.062993 
L 117.720966 179.942828 
L 124.829894 179.634616 
L 126.962572 179.517512 
L 135.848731 179.150819 
L 137.981409 179.035434 
L 140.114087 178.94266 
L 142.602211 178.831124 
L 146.867568 178.622144 
L 148.644799 178.518578 
L 152.554709 178.314956 
L 154.331941 178.215445 
L 160.019083 177.995746 
L 162.862654 177.882121 
L 212.98059 175.190375 
L 215.824161 174.989168 
L 219.023178 174.874331 
L 220.444963 174.723758 
L 220.80041 174.594616 
L 222.933088 174.495969 
L 225.065766 174.366032 
L 228.264783 174.259761 
L 231.108354 174.13858 
L 232.530139 173.981582 
L 233.951925 173.921979 
L 234.662817 173.75783 
L 250.657903 172.704209 
L 251.01335 172.543957 
L 253.146028 172.419536 
L 255.634152 172.224216 
L 258.83317 172.094106 
L 260.254955 171.975608 
L 264.875758 171.66913 
L 267.719328 171.328219 
L 276.960934 170.645824 
L 287.624324 169.971646 
L 287.979771 169.827612 
L 290.467895 169.655611 
L 298.998608 168.874305 
L 300.064947 168.741389 
L 302.553071 168.617228 
L 307.173874 168.266211 
L 307.52932 168.109387 
L 308.240213 168.017001 
L 310.372891 167.662843 
L 310.728337 167.657903 
L 311.43923 167.446493 
L 313.216462 167.236508 
L 314.282801 167.080941 
L 316.770925 166.836892 
L 317.837265 166.774676 
L 320.680835 166.4767 
L 321.391728 166.286474 
L 322.458067 166.184419 
L 323.16896 166.028235 
L 326.367977 165.762194 
L 327.07887 165.484181 
L 327.434316 165.44531 
L 327.789762 165.268534 
L 330.98878 165.036845 
L 332.055119 164.923185 
L 338.097707 163.9329 
L 338.8086 163.722058 
L 339.519492 163.63552 
L 340.230385 163.515674 
L 344.495741 163.126237 
L 345.206634 163.016567 
L 349.827437 162.616181 
L 351.249222 162.315765 
L 352.315561 162.185999 
L 353.737346 161.843598 
L 354.803686 161.804267 
L 355.514578 161.630725 
L 356.580917 161.576864 
L 357.647256 161.470028 
L 360.135381 161.189696 
L 361.557166 160.985751 
L 364.400737 160.535183 
L 365.11163 160.414651 
L 367.244308 159.753878 
L 368.310647 159.687712 
L 370.087879 159.031275 
L 370.798771 158.957819 
L 371.509664 158.68726 
L 372.576003 158.55238 
L 372.93145 158.277682 
L 373.642342 158.192347 
L 374.353235 157.868061 
L 375.064128 157.769541 
L 376.130467 157.707623 
L 379.68493 156.786288 
L 380.395823 156.357337 
L 381.106716 156.261902 
L 381.462162 156.110043 
L 382.528501 155.978994 
L 384.661179 155.605875 
L 385.727518 155.315127 
L 387.149304 155.130904 
L 387.50475 154.848466 
L 387.860197 154.410372 
L 392.125553 153.535666 
L 392.836446 153.348463 
L 393.902785 153.186131 
L 394.258231 152.944354 
L 394.969124 152.872068 
L 395.680016 152.298483 
L 396.746355 151.920418 
L 397.457248 151.83793 
L 397.812695 151.573693 
L 399.945373 151.127152 
L 401.011712 149.705995 
L 401.367158 149.700347 
L 402.078051 149.095321 
L 402.433497 148.886277 
L 403.14439 148.811409 
L 403.499836 148.415295 
L 404.210729 148.294756 
L 404.921622 148.159058 
L 405.277068 147.852127 
L 405.632514 147.770843 
L 405.987961 146.888524 
L 406.343407 146.863198 
L 406.698853 146.646818 
L 407.0543 146.603101 
L 407.409746 146.430442 
L 408.120639 146.326253 
L 409.542424 145.634323 
L 409.897871 145.006402 
L 410.608763 144.820596 
L 411.675102 144.467402 
L 412.030549 144.443979 
L 412.741441 143.282232 
L 413.096888 142.137141 
L 413.807781 141.788075 
L 414.163227 141.505243 
L 414.518673 141.498493 
L 414.87412 141.02132 
L 415.940459 140.833706 
L 416.651351 140.323671 
L 417.006798 140.21391 
L 418.073137 139.30421 
L 419.139476 139.175348 
L 419.494922 138.907506 
L 419.850369 138.831974 
L 420.205815 138.564154 
L 420.561261 138.55203 
L 421.272154 137.832734 
L 421.6276 137.699251 
L 421.983047 137.226433 
L 422.338493 137.062859 
L 423.760278 135.651618 
L 424.115725 135.562967 
L 425.182064 133.844415 
L 426.248403 132.977611 
L 426.603849 132.394175 
L 426.959296 132.327499 
L 427.314742 132.109328 
L 427.670188 131.452088 
L 428.025635 131.030177 
L 428.381081 130.82072 
L 428.736527 128.75188 
L 429.091974 127.71425 
L 429.44742 127.688024 
L 429.802867 126.803693 
L 430.158313 126.690973 
L 430.513759 126.437436 
L 430.869206 124.446067 
L 431.580098 123.956301 
L 431.935545 122.954132 
L 432.290991 120.744053 
L 432.646437 120.351043 
L 433.001884 118.762964 
L 433.35733 114.600242 
L 433.712776 113.809694 
L 434.068223 111.571742 
L 434.423669 111.462916 
L 435.134562 105.817562 
L 435.490008 85.96834 
L 435.845455 33.332727 
L 435.845455 33.332727 
" clip-path="url(#pc6e730139e)" style="fill: none; stroke: #4c72b0; stroke-width: 1.5; stroke-linecap: round"/>
   </g>
   <g id="line2d_12">
    <path d="M 80.754545 181.57375 
L 83.953563 181.462457 
L 89.996151 181.220055 
L 93.195168 181.098483 
L 93.906061 181.001389 
L 97.815971 180.870929 
L 98.526863 180.799968 
L 129.450696 179.626691 
L 130.872482 179.532632 
L 131.583374 179.456785 
L 134.426945 179.348663 
L 135.493284 179.254331 
L 139.403194 179.082983 
L 141.891319 178.942058 
L 142.957658 178.838436 
L 144.734889 178.750556 
L 147.933907 178.613522 
L 163.573546 178.006735 
L 165.350778 177.938682 
L 167.12801 177.832801 
L 171.748812 177.646224 
L 174.592383 177.554266 
L 177.080508 177.373431 
L 180.990418 177.249849 
L 185.61122 176.965532 
L 190.942916 176.72368 
L 193.786486 176.543748 
L 199.473628 176.319888 
L 201.25086 176.117444 
L 204.449877 175.983361 
L 210.492465 175.70427 
L 211.558804 175.632928 
L 216.179607 175.397707 
L 221.155856 175.20286 
L 223.288534 175.102078 
L 224.354873 175.027143 
L 238.217281 174.279427 
L 239.28362 174.221102 
L 248.169779 173.777445 
L 252.435135 173.301241 
L 256.345045 173.087141 
L 257.411384 173.003517 
L 257.76683 172.866364 
L 260.610401 172.620382 
L 261.321294 172.481172 
L 262.743079 172.332765 
L 265.58665 172.139038 
L 266.297543 171.988687 
L 274.117363 171.582945 
L 276.605487 171.166261 
L 278.382719 171.006158 
L 281.581736 170.785019 
L 282.292629 170.669367 
L 283.358968 170.612217 
L 284.425307 170.424966 
L 285.491646 170.310011 
L 287.624324 170.153904 
L 288.335217 170.05418 
L 289.401556 169.965424 
L 292.600573 169.68369 
L 296.86593 169.376082 
L 300.064947 169.033608 
L 301.486732 168.99061 
L 301.842179 168.818777 
L 303.974857 168.622908 
L 311.43923 167.973431 
L 315.34914 167.663479 
L 315.704586 167.462536 
L 316.770925 167.383216 
L 318.548157 167.201514 
L 319.614496 167.073436 
L 325.301638 166.611358 
L 326.723423 166.540584 
L 332.766011 165.863056 
L 333.476904 165.723252 
L 337.386814 165.311915 
L 342.007617 164.829625 
L 343.429402 164.671742 
L 343.784848 164.67017 
L 344.495741 164.447791 
L 345.206634 164.367056 
L 345.56208 164.17748 
L 348.050205 163.918304 
L 350.182883 163.699276 
L 351.249222 163.221752 
L 351.960115 162.914988 
L 353.026454 162.789972 
L 355.159132 162.564208 
L 356.225471 162.335057 
L 357.29181 162.26128 
L 357.647256 161.998492 
L 359.069042 161.839267 
L 360.135381 161.733564 
L 360.846274 161.416882 
L 362.268059 161.272531 
L 362.978952 160.9462 
L 364.045291 160.847236 
L 365.11163 160.753316 
L 366.888862 160.363635 
L 367.599754 160.032203 
L 367.955201 159.849178 
L 368.666093 159.790764 
L 369.376986 159.63221 
L 370.087879 159.591001 
L 371.509664 159.348064 
L 374.708681 158.940769 
L 375.064128 158.764878 
L 375.77502 158.634738 
L 376.485913 158.300015 
L 377.907699 157.908224 
L 378.263145 157.881222 
L 378.618591 157.288067 
L 381.106716 156.856804 
L 381.462162 156.573823 
L 383.59484 156.423597 
L 383.950287 156.358932 
L 384.305733 156.021308 
L 384.661179 155.985393 
L 385.372072 155.55977 
L 386.082965 155.384925 
L 387.860197 155.235458 
L 388.215643 154.849126 
L 388.571089 154.837854 
L 388.926536 154.614424 
L 389.992875 154.330659 
L 390.703767 153.994082 
L 391.770106 153.937396 
L 392.125553 153.853395 
L 392.480999 153.599617 
L 393.547338 153.338749 
L 394.258231 152.900682 
L 394.969124 152.725986 
L 395.32457 152.714461 
L 395.680016 152.524174 
L 396.035463 152.500061 
L 396.390909 152.202656 
L 397.457248 151.872684 
L 398.168141 151.74625 
L 398.523587 151.553545 
L 401.367158 151.187925 
L 401.722604 150.975681 
L 402.433497 150.769547 
L 403.14439 150.343065 
L 403.855283 150.22501 
L 404.210729 150.211926 
L 404.921622 149.784616 
L 405.632514 149.676665 
L 405.987961 149.218006 
L 406.343407 149.008788 
L 407.409746 148.686971 
L 408.476085 148.217932 
L 408.831532 148.182037 
L 409.186978 147.781774 
L 409.542424 147.59548 
L 409.897871 147.57626 
L 410.253317 147.155417 
L 410.608763 147.140815 
L 411.319656 146.867085 
L 412.030549 146.773688 
L 412.385995 146.477805 
L 413.807781 146.331202 
L 414.87412 145.731537 
L 415.940459 145.411484 
L 416.295905 145.411133 
L 417.362244 144.935565 
L 417.71769 144.930545 
L 418.073137 144.740432 
L 418.428583 144.418869 
L 419.494922 142.579236 
L 420.205815 142.383613 
L 420.916708 141.762818 
L 421.272154 141.579752 
L 421.6276 141.264954 
L 421.983047 140.565155 
L 423.049386 140.239183 
L 423.404832 139.598046 
L 424.471171 139.051739 
L 424.826618 139.032346 
L 425.182064 138.663214 
L 425.53751 138.001796 
L 425.892957 137.99595 
L 426.603849 137.755677 
L 427.314742 137.517543 
L 428.025635 136.753277 
L 428.381081 136.469958 
L 428.736527 136.014965 
L 429.091974 136.002504 
L 429.44742 134.379661 
L 429.802867 133.869969 
L 430.158313 131.724918 
L 430.513759 131.552689 
L 430.869206 131.12099 
L 431.224652 130.07858 
L 431.935545 129.42091 
L 432.646437 126.802834 
L 433.001884 125.781837 
L 433.35733 124.290331 
L 433.712776 118.382597 
L 434.068223 117.177469 
L 434.779115 116.989557 
L 435.134562 116.136414 
L 435.490008 104.155001 
L 435.845455 100.626779 
L 435.845455 100.626779 
" clip-path="url(#pc6e730139e)" style="fill: none; stroke: #dd8452; stroke-width: 1.5; stroke-linecap: round"/>
   </g>
   <g id="line2d_13">
    <path d="M 80.754545 181.587273 
L 86.086241 181.395896 
L 94.9724 181.067904 
L 96.038739 181.00278 
L 97.815971 180.93411 
L 99.237756 180.829478 
L 100.304095 180.751686 
L 102.436773 180.650778 
L 103.503112 180.599956 
L 107.413022 180.451913 
L 110.612039 180.261733 
L 117.720966 179.881324 
L 119.142752 179.841779 
L 124.119001 179.674078 
L 125.18534 179.546077 
L 128.384357 179.46382 
L 131.227928 179.284099 
L 137.625962 179.028381 
L 139.75864 178.876249 
L 143.66855 178.625612 
L 146.156675 178.515735 
L 149.711138 178.342053 
L 180.634971 177.042205 
L 181.70131 176.950283 
L 185.255774 176.758454 
L 197.696396 176.196737 
L 198.762735 176.12871 
L 203.738984 175.896845 
L 205.16077 175.762885 
L 210.137019 175.61 
L 211.203358 175.379064 
L 222.577641 174.726559 
L 223.288534 174.592575 
L 231.108354 174.220445 
L 231.819247 174.13678 
L 236.084603 173.893326 
L 238.572727 173.781743 
L 238.928174 173.64501 
L 239.994513 173.602045 
L 240.705405 173.513677 
L 243.904423 173.251233 
L 245.326208 173.138347 
L 252.435135 172.878094 
L 253.501474 172.765365 
L 255.634152 172.581744 
L 260.610401 171.971128 
L 263.098526 171.875776 
L 264.520311 171.684749 
L 267.719328 171.501145 
L 268.785667 171.384762 
L 270.562899 171.296061 
L 271.273792 171.181154 
L 275.539148 171.012908 
L 280.515397 170.491142 
L 281.22629 170.337675 
L 281.937183 170.216859 
L 283.358968 170.058033 
L 284.780753 169.973431 
L 286.557985 169.878503 
L 287.979771 169.7707 
L 290.112449 169.626093 
L 293.311466 169.488622 
L 295.088698 169.388646 
L 295.79959 169.175841 
L 299.354054 168.781173 
L 308.240213 168.118685 
L 308.951106 167.902094 
L 312.150123 167.819754 
L 318.192711 167.22542 
L 318.548157 167.221712 
L 319.25905 167.011356 
L 322.102621 166.698795 
L 323.524406 166.576756 
L 324.235299 166.414083 
L 326.012531 166.300655 
L 328.145209 166.071245 
L 329.922441 165.930466 
L 331.344226 165.824602 
L 332.766011 165.738921 
L 335.609582 165.256838 
L 336.320475 164.91846 
L 337.386814 164.707286 
L 338.097707 164.672998 
L 338.453153 164.492031 
L 340.585831 164.346036 
L 349.47199 163.776401 
L 350.893776 163.416359 
L 351.604668 163.382862 
L 355.514578 162.521704 
L 358.002703 162.157692 
L 358.713595 162.090058 
L 359.069042 161.768748 
L 361.20172 161.633203 
L 365.467076 161.259345 
L 366.177969 161.124385 
L 366.533415 161.110263 
L 366.888862 160.98324 
L 367.599754 160.960728 
L 367.955201 160.698845 
L 369.376986 160.583163 
L 370.087879 160.428575 
L 370.443325 160.421547 
L 371.154218 160.148898 
L 372.220557 159.589621 
L 373.286896 159.337753 
L 374.353235 159.204361 
L 375.419574 158.994686 
L 376.485913 158.771453 
L 378.263145 158.686268 
L 378.974038 158.640325 
L 379.68493 158.385087 
L 381.106716 158.258917 
L 381.462162 157.950109 
L 385.372072 157.381326 
L 386.082965 157.248758 
L 387.149304 157.182275 
L 387.50475 156.905068 
L 388.215643 156.797902 
L 388.926536 156.627906 
L 389.281982 156.553124 
L 389.637428 155.828633 
L 390.348321 155.507977 
L 391.059214 155.404282 
L 391.770106 155.313465 
L 392.125553 155.2822 
L 392.836446 155.016521 
L 393.547338 154.985535 
L 393.902785 154.75925 
L 394.613677 154.659034 
L 396.035463 154.126102 
L 396.746355 154.114706 
L 397.101802 153.873019 
L 397.457248 153.855999 
L 398.523587 153.509377 
L 399.589926 153.422116 
L 401.722604 152.581587 
L 402.078051 152.075057 
L 402.433497 151.840851 
L 402.788943 151.218714 
L 403.14439 151.203893 
L 403.855283 150.939367 
L 404.210729 150.424639 
L 405.987961 149.741803 
L 406.698853 149.547161 
L 407.0543 149.305366 
L 408.120639 149.162848 
L 409.542424 148.761743 
L 410.608763 148.702457 
L 411.675102 147.281781 
L 412.030549 147.095232 
L 412.385995 147.091577 
L 412.741441 146.773424 
L 413.807781 146.636719 
L 414.163227 146.504224 
L 414.87412 145.590595 
L 415.229566 145.432565 
L 415.940459 144.910697 
L 417.362244 144.698047 
L 417.71769 144.539407 
L 418.428583 144.505474 
L 418.784029 144.27176 
L 419.494922 144.166538 
L 420.561261 143.36676 
L 420.916708 142.720136 
L 421.272154 142.680457 
L 422.693939 141.154094 
L 423.049386 141.152407 
L 423.404832 140.875997 
L 424.115725 139.641999 
L 424.471171 139.635179 
L 424.826618 138.624792 
L 425.182064 138.595467 
L 425.53751 138.230634 
L 425.892957 136.915876 
L 426.959296 136.101737 
L 427.314742 135.059842 
L 427.670188 134.941457 
L 428.025635 134.702748 
L 428.381081 133.413717 
L 428.736527 132.870266 
L 429.091974 132.850165 
L 429.44742 131.641472 
L 429.802867 129.639948 
L 430.513759 129.335958 
L 430.869206 128.740253 
L 431.224652 128.543814 
L 431.580098 127.515383 
L 431.935545 125.888152 
L 432.290991 125.758901 
L 432.646437 125.507217 
L 433.001884 123.749667 
L 433.35733 121.427716 
L 433.712776 121.066436 
L 434.068223 121.052215 
L 434.423669 120.842039 
L 434.779115 119.278548 
L 435.134562 114.978323 
L 435.490008 105.585811 
L 435.845455 103.463963 
L 435.845455 103.463963 
" clip-path="url(#pc6e730139e)" style="fill: none; stroke: #55a868; stroke-width: 1.5; stroke-linecap: round"/>
   </g>
   <g id="line2d_14">
    <path d="M 80.754545 181.583527 
L 84.309009 181.410986 
L 89.640704 181.257056 
L 108.479361 180.678574 
L 112.744717 180.450291 
L 126.607125 180.061169 
L 127.318018 179.949899 
L 135.137838 179.672132 
L 137.981409 179.522258 
L 151.48837 179.117971 
L 153.621048 178.998249 
L 165.350778 178.248563 
L 166.061671 178.107815 
L 167.483456 177.931495 
L 171.748812 177.782609 
L 173.170598 177.717976 
L 176.369615 177.540756 
L 178.85774 177.459453 
L 184.900328 177.230187 
L 190.587469 177.087654 
L 196.985504 176.766011 
L 197.696396 176.70137 
L 200.539967 176.622524 
L 202.317199 176.515848 
L 206.227109 176.375727 
L 207.293448 176.269367 
L 223.64398 175.312462 
L 224.710319 175.200683 
L 228.975676 174.9811 
L 230.042015 174.769501 
L 236.795495 174.266573 
L 242.482637 173.971657 
L 244.259869 173.83093 
L 248.169779 173.717266 
L 249.591564 173.619032 
L 258.477723 173.157846 
L 261.321294 172.99654 
L 268.785667 172.408144 
L 271.273792 172.285845 
L 272.695577 172.098605 
L 274.117363 171.970189 
L 275.183702 171.869608 
L 276.960934 171.669341 
L 278.027273 171.593054 
L 279.804505 171.479687 
L 280.515397 171.435429 
L 281.22629 171.269903 
L 283.358968 171.155211 
L 284.780753 171.062019 
L 286.202539 170.980609 
L 287.268878 170.83587 
L 290.823342 170.635697 
L 293.666912 170.296892 
L 294.377805 170.292765 
L 295.088698 170.122564 
L 299.7095 169.801122 
L 300.420393 169.657248 
L 303.974857 169.421007 
L 304.685749 169.356627 
L 305.752088 169.181017 
L 306.818428 169.101542 
L 307.884767 168.967083 
L 310.017445 168.759083 
L 312.861016 168.506739 
L 314.993694 168.347356 
L 315.704586 168.223209 
L 316.415479 168.189076 
L 317.481818 167.85471 
L 319.25905 167.565153 
L 321.747174 167.472592 
L 322.813514 167.395039 
L 324.235299 167.249239 
L 326.723423 166.95316 
L 328.500655 166.791096 
L 330.277887 166.612221 
L 332.410565 166.425362 
L 332.766011 166.268837 
L 333.832351 166.105308 
L 334.187797 166.062612 
L 334.543243 165.882436 
L 336.320475 165.734691 
L 337.74226 165.365843 
L 340.230385 165.08104 
L 340.941278 165.070103 
L 341.65217 164.957397 
L 342.718509 164.867829 
L 344.495741 164.622637 
L 344.851188 164.494943 
L 345.917527 164.419944 
L 346.628419 164.317672 
L 352.315561 163.816391 
L 352.671007 163.60625 
L 356.225471 163.318664 
L 356.936364 163.186546 
L 358.358149 162.958173 
L 360.490827 162.768781 
L 361.557166 162.562298 
L 363.334398 162.238264 
L 364.400737 162.158498 
L 365.11163 161.960368 
L 366.533415 161.837794 
L 367.599754 161.751759 
L 368.310647 161.527862 
L 369.376986 161.373198 
L 369.732432 161.171544 
L 370.798771 161.116108 
L 372.220557 160.428283 
L 372.576003 160.41089 
L 372.93145 159.993634 
L 375.77502 159.706648 
L 376.485913 159.386368 
L 377.552252 159.225973 
L 378.974038 158.79836 
L 379.68493 158.774913 
L 380.751269 158.407601 
L 381.462162 158.375057 
L 381.817609 158.093339 
L 382.173055 158.061375 
L 382.528501 157.506797 
L 382.883948 157.348559 
L 383.239394 157.333609 
L 383.59484 157.157989 
L 384.661179 156.99606 
L 385.727518 156.803139 
L 387.149304 156.25721 
L 387.860197 156.213154 
L 388.571089 156.126911 
L 389.637428 155.923148 
L 394.258231 155.092875 
L 394.613677 154.686212 
L 394.969124 154.659169 
L 395.32457 154.27656 
L 396.035463 154.093117 
L 397.101802 154.057925 
L 398.168141 153.787429 
L 399.23448 153.75308 
L 399.589926 153.551766 
L 399.945373 153.546898 
L 400.656265 153.381121 
L 402.078051 153.15408 
L 402.788943 153.124398 
L 403.14439 152.975855 
L 403.855283 152.949498 
L 404.210729 152.721518 
L 404.921622 152.58457 
L 405.277068 152.346087 
L 405.632514 151.891883 
L 405.987961 151.891269 
L 406.343407 151.650758 
L 407.0543 151.612978 
L 407.409746 151.455269 
L 407.765192 151.164557 
L 409.897871 150.668815 
L 410.253317 150.453999 
L 410.96421 150.256427 
L 411.319656 149.562777 
L 411.675102 149.541641 
L 412.385995 149.162336 
L 413.807781 148.899872 
L 414.163227 148.75375 
L 414.518673 148.130917 
L 414.87412 148.025766 
L 415.229566 147.690824 
L 415.585012 147.190655 
L 415.940459 146.894544 
L 416.651351 146.740771 
L 417.006798 145.789123 
L 417.71769 145.516634 
L 418.073137 144.950981 
L 419.850369 144.668163 
L 420.205815 144.465827 
L 420.561261 144.438641 
L 421.272154 143.923098 
L 421.983047 143.733907 
L 422.338493 143.373457 
L 422.693939 143.357075 
L 423.049386 142.948987 
L 423.404832 142.939588 
L 424.115725 142.115752 
L 424.471171 141.962051 
L 424.826618 141.591506 
L 425.182064 140.894342 
L 425.53751 140.661643 
L 425.892957 140.000172 
L 426.248403 138.996491 
L 426.603849 138.885822 
L 426.959296 138.360462 
L 427.670188 138.233058 
L 428.025635 137.961395 
L 428.736527 136.559285 
L 429.091974 136.16527 
L 429.44742 135.014279 
L 429.802867 134.977468 
L 430.158313 134.675341 
L 430.869206 134.522818 
L 431.935545 131.301381 
L 432.290991 130.973973 
L 432.646437 130.41337 
L 433.001884 130.388123 
L 433.35733 128.31179 
L 433.712776 127.593274 
L 434.423669 124.56221 
L 434.779115 120.801109 
L 435.490008 100.350404 
L 435.845455 94.355897 
L 435.845455 94.355897 
" clip-path="url(#pc6e730139e)" style="fill: none; stroke: #c44e52; stroke-width: 1.5; stroke-linecap: round"/>
   </g>
   <g id="patch_3">
    <path d="M 63 189 
L 63 25.92 
" style="fill: none; stroke: #ffffff; stroke-width: 1.25; stroke-linejoin: miter; stroke-linecap: square"/>
   </g>
   <g id="patch_4">
    <path d="M 453.6 189 
L 453.6 25.92 
" style="fill: none; stroke: #ffffff; stroke-width: 1.25; stroke-linejoin: miter; stroke-linecap: square"/>
   </g>
   <g id="patch_5">
    <path d="M 63 189 
L 453.6 189 
" style="fill: none; stroke: #ffffff; stroke-width: 1.25; stroke-linejoin: miter; stroke-linecap: square"/>
   </g>
   <g id="patch_6">
    <path d="M 63 25.92 
L 453.6 25.92 
" style="fill: none; stroke: #ffffff; stroke-width: 1.25; stroke-linejoin: miter; stroke-linecap: square"/>
   </g>
  </g>
 </g>
 <defs>
  <clipPath id="pc6e730139e">
   <rect x="63" y="25.92" width="390.6" height="163.08"/>
  </clipPath>
 </defs>
</svg>
