<?xml version="1.0" encoding="utf-8" standalone="no"?>
<!DOCTYPE svg PUBLIC "-//W3C//DTD SVG 1.1//EN"
  "http://www.w3.org/Graphics/SVG/1.1/DTD/svg11.dtd">
<svg xmlns:xlink="http://www.w3.org/1999/xlink" width="504pt" height="216pt" viewBox="0 0 504 216" xmlns="http://www.w3.org/2000/svg" version="1.1">
 <metadata>
  <rdf:RDF xmlns:dc="http://purl.org/dc/elements/1.1/" xmlns:cc="http://creativecommons.org/ns#" xmlns:rdf="http://www.w3.org/1999/02/22-rdf-syntax-ns#">
   <cc:Work>
    <dc:type rdf:resource="http://purl.org/dc/dcmitype/StillImage"/>
    <dc:date>2022-02-16T14:25:40.691426</dc:date>
    <dc:format>image/svg+xml</dc:format>
    <dc:creator>
     <cc:Agent>
      <dc:title>Matplotlib v3.5.1, https://matplotlib.org/</dc:title>
     </cc:Agent>
    </dc:creator>
   </cc:Work>
  </rdf:RDF>
 </metadata>
 <defs>
  <style type="text/css">*{stroke-linejoin: round; stroke-linecap: butt}</style>
 </defs>
 <g id="figure_1">
  <g id="patch_1">
   <path d="M 0 216 
L 504 216 
L 504 0 
L 0 0 
z
" style="fill: #ffffff"/>
  </g>
  <g id="axes_1">
   <g id="patch_2">
    <path d="M 63 189 
L 453.6 189 
L 453.6 25.92 
L 63 25.92 
z
" style="fill: #ffffff"/>
   </g>
   <g id="patch_3">
    <path d="M 135.089992 189 
L 140.275431 189 
L 140.275431 187.235065 
L 135.089992 187.235065 
z
" clip-path="url(#pa73aebc33d)" style="fill: #dc143c; stroke: #000000; stroke-width: 0.612226; stroke-linejoin: miter"/>
   </g>
   <g id="patch_4">
    <path d="M 140.275431 189 
L 145.46087 189 
L 145.46087 187.235065 
L 140.275431 187.235065 
z
" clip-path="url(#pa73aebc33d)" style="fill: #dc143c; stroke: #000000; stroke-width: 0.612226; stroke-linejoin: miter"/>
   </g>
   <g id="patch_5">
    <path d="M 145.46087 189 
L 150.646309 189 
L 150.646309 189 
L 145.46087 189 
z
" clip-path="url(#pa73aebc33d)" style="fill: #dc143c; stroke: #000000; stroke-width: 0.612226; stroke-linejoin: miter"/>
   </g>
   <g id="patch_6">
    <path d="M 150.646309 189 
L 155.831748 189 
L 155.831748 189 
L 150.646309 189 
z
" clip-path="url(#pa73aebc33d)" style="fill: #dc143c; stroke: #000000; stroke-width: 0.612226; stroke-linejoin: miter"/>
   </g>
   <g id="patch_7">
    <path d="M 155.831748 189 
L 161.017187 189 
L 161.017187 189 
L 155.831748 189 
z
" clip-path="url(#pa73aebc33d)" style="fill: #dc143c; stroke: #000000; stroke-width: 0.612226; stroke-linejoin: miter"/>
   </g>
   <g id="patch_8">
    <path d="M 161.017187 189 
L 166.202626 189 
L 166.202626 189 
L 161.017187 189 
z
" clip-path="url(#pa73aebc33d)" style="fill: #dc143c; stroke: #000000; stroke-width: 0.612226; stroke-linejoin: miter"/>
   </g>
   <g id="patch_9">
    <path d="M 166.202626 189 
L 171.388065 189 
L 171.388065 189 
L 166.202626 189 
z
" clip-path="url(#pa73aebc33d)" style="fill: #dc143c; stroke: #000000; stroke-width: 0.612226; stroke-linejoin: miter"/>
   </g>
   <g id="patch_10">
    <path d="M 171.388065 189 
L 176.573504 189 
L 176.573504 189 
L 171.388065 189 
z
" clip-path="url(#pa73aebc33d)" style="fill: #dc143c; stroke: #000000; stroke-width: 0.612226; stroke-linejoin: miter"/>
   </g>
   <g id="patch_11">
    <path d="M 176.573504 189 
L 181.758943 189 
L 181.758943 187.235065 
L 176.573504 187.235065 
z
" clip-path="url(#pa73aebc33d)" style="fill: #dc143c; stroke: #000000; stroke-width: 0.612226; stroke-linejoin: miter"/>
   </g>
   <g id="patch_12">
    <path d="M 181.758943 189 
L 186.944382 189 
L 186.944382 189 
L 181.758943 189 
z
" clip-path="url(#pa73aebc33d)" style="fill: #dc143c; stroke: #000000; stroke-width: 0.612226; stroke-linejoin: miter"/>
   </g>
   <g id="patch_13">
    <path d="M 186.944382 189 
L 192.129821 189 
L 192.129821 189 
L 186.944382 189 
z
" clip-path="url(#pa73aebc33d)" style="fill: #dc143c; stroke: #000000; stroke-width: 0.612226; stroke-linejoin: miter"/>
   </g>
   <g id="patch_14">
    <path d="M 192.129821 189 
L 197.31526 189 
L 197.31526 187.235065 
L 192.129821 187.235065 
z
" clip-path="url(#pa73aebc33d)" style="fill: #dc143c; stroke: #000000; stroke-width: 0.612226; stroke-linejoin: miter"/>
   </g>
   <g id="patch_15">
    <path d="M 197.31526 189 
L 202.500699 189 
L 202.500699 187.235065 
L 197.31526 187.235065 
z
" clip-path="url(#pa73aebc33d)" style="fill: #dc143c; stroke: #000000; stroke-width: 0.612226; stroke-linejoin: miter"/>
   </g>
   <g id="patch_16">
    <path d="M 202.500699 189 
L 207.686138 189 
L 207.686138 183.705195 
L 202.500699 183.705195 
z
" clip-path="url(#pa73aebc33d)" style="fill: #dc143c; stroke: #000000; stroke-width: 0.612226; stroke-linejoin: miter"/>
   </g>
   <g id="patch_17">
    <path d="M 207.686138 189 
L 212.871577 189 
L 212.871577 189 
L 207.686138 189 
z
" clip-path="url(#pa73aebc33d)" style="fill: #dc143c; stroke: #000000; stroke-width: 0.612226; stroke-linejoin: miter"/>
   </g>
   <g id="patch_18">
    <path d="M 212.871577 189 
L 218.057016 189 
L 218.057016 187.235065 
L 212.871577 187.235065 
z
" clip-path="url(#pa73aebc33d)" style="fill: #dc143c; stroke: #000000; stroke-width: 0.612226; stroke-linejoin: miter"/>
   </g>
   <g id="patch_19">
    <path d="M 218.057016 189 
L 223.242455 189 
L 223.242455 183.705195 
L 218.057016 183.705195 
z
" clip-path="url(#pa73aebc33d)" style="fill: #dc143c; stroke: #000000; stroke-width: 0.612226; stroke-linejoin: miter"/>
   </g>
   <g id="patch_20">
    <path d="M 223.242455 189 
L 228.427894 189 
L 228.427894 187.235065 
L 223.242455 187.235065 
z
" clip-path="url(#pa73aebc33d)" style="fill: #dc143c; stroke: #000000; stroke-width: 0.612226; stroke-linejoin: miter"/>
   </g>
   <g id="patch_21">
    <path d="M 228.427894 189 
L 233.613333 189 
L 233.613333 185.47013 
L 228.427894 185.47013 
z
" clip-path="url(#pa73aebc33d)" style="fill: #dc143c; stroke: #000000; stroke-width: 0.612226; stroke-linejoin: miter"/>
   </g>
   <g id="patch_22">
    <path d="M 233.613333 189 
L 238.798772 189 
L 238.798772 183.705195 
L 233.613333 183.705195 
z
" clip-path="url(#pa73aebc33d)" style="fill: #dc143c; stroke: #000000; stroke-width: 0.612226; stroke-linejoin: miter"/>
   </g>
   <g id="patch_23">
    <path d="M 238.798772 189 
L 243.984211 189 
L 243.984211 187.235065 
L 238.798772 187.235065 
z
" clip-path="url(#pa73aebc33d)" style="fill: #dc143c; stroke: #000000; stroke-width: 0.612226; stroke-linejoin: miter"/>
   </g>
   <g id="patch_24">
    <path d="M 243.984211 189 
L 249.16965 189 
L 249.16965 185.47013 
L 243.984211 185.47013 
z
" clip-path="url(#pa73aebc33d)" style="fill: #dc143c; stroke: #000000; stroke-width: 0.612226; stroke-linejoin: miter"/>
   </g>
   <g id="patch_25">
    <path d="M 249.16965 189 
L 254.355089 189 
L 254.355089 187.235065 
L 249.16965 187.235065 
z
" clip-path="url(#pa73aebc33d)" style="fill: #dc143c; stroke: #000000; stroke-width: 0.612226; stroke-linejoin: miter"/>
   </g>
   <g id="patch_26">
    <path d="M 254.355089 189 
L 259.540528 189 
L 259.540528 183.705195 
L 254.355089 183.705195 
z
" clip-path="url(#pa73aebc33d)" style="fill: #dc143c; stroke: #000000; stroke-width: 0.612226; stroke-linejoin: miter"/>
   </g>
   <g id="patch_27">
    <path d="M 259.540528 189 
L 264.725967 189 
L 264.725967 181.94026 
L 259.540528 181.94026 
z
" clip-path="url(#pa73aebc33d)" style="fill: #dc143c; stroke: #000000; stroke-width: 0.612226; stroke-linejoin: miter"/>
   </g>
   <g id="patch_28">
    <path d="M 264.725967 189 
L 269.911406 189 
L 269.911406 187.235065 
L 264.725967 187.235065 
z
" clip-path="url(#pa73aebc33d)" style="fill: #dc143c; stroke: #000000; stroke-width: 0.612226; stroke-linejoin: miter"/>
   </g>
   <g id="patch_29">
    <path d="M 269.911406 189 
L 275.096845 189 
L 275.096845 181.94026 
L 269.911406 181.94026 
z
" clip-path="url(#pa73aebc33d)" style="fill: #dc143c; stroke: #000000; stroke-width: 0.612226; stroke-linejoin: miter"/>
   </g>
   <g id="patch_30">
    <path d="M 275.096845 189 
L 280.282284 189 
L 280.282284 181.94026 
L 275.096845 181.94026 
z
" clip-path="url(#pa73aebc33d)" style="fill: #dc143c; stroke: #000000; stroke-width: 0.612226; stroke-linejoin: miter"/>
   </g>
   <g id="patch_31">
    <path d="M 280.282284 189 
L 285.467723 189 
L 285.467723 183.705195 
L 280.282284 183.705195 
z
" clip-path="url(#pa73aebc33d)" style="fill: #dc143c; stroke: #000000; stroke-width: 0.612226; stroke-linejoin: miter"/>
   </g>
   <g id="patch_32">
    <path d="M 285.467723 189 
L 290.653162 189 
L 290.653162 181.94026 
L 285.467723 181.94026 
z
" clip-path="url(#pa73aebc33d)" style="fill: #f8f8ff; stroke: #000000; stroke-width: 0.612226; stroke-linejoin: miter"/>
   </g>
   <g id="patch_33">
    <path d="M 290.653162 189 
L 295.838601 189 
L 295.838601 166.055844 
L 290.653162 166.055844 
z
" clip-path="url(#pa73aebc33d)" style="fill: #f8f8ff; stroke: #000000; stroke-width: 0.612226; stroke-linejoin: miter"/>
   </g>
   <g id="patch_34">
    <path d="M 295.838601 189 
L 301.02404 189 
L 301.02404 181.94026 
L 295.838601 181.94026 
z
" clip-path="url(#pa73aebc33d)" style="fill: #f8f8ff; stroke: #000000; stroke-width: 0.612226; stroke-linejoin: miter"/>
   </g>
   <g id="patch_35">
    <path d="M 301.02404 189 
L 306.209479 189 
L 306.209479 174.880519 
L 301.02404 174.880519 
z
" clip-path="url(#pa73aebc33d)" style="fill: #f8f8ff; stroke: #000000; stroke-width: 0.612226; stroke-linejoin: miter"/>
   </g>
   <g id="patch_36">
    <path d="M 306.209479 189 
L 311.394918 189 
L 311.394918 171.350649 
L 306.209479 171.350649 
z
" clip-path="url(#pa73aebc33d)" style="fill: #f8f8ff; stroke: #000000; stroke-width: 0.612226; stroke-linejoin: miter"/>
   </g>
   <g id="patch_37">
    <path d="M 311.394918 189 
L 316.580357 189 
L 316.580357 171.350649 
L 311.394918 171.350649 
z
" clip-path="url(#pa73aebc33d)" style="fill: #f8f8ff; stroke: #000000; stroke-width: 0.612226; stroke-linejoin: miter"/>
   </g>
   <g id="patch_38">
    <path d="M 316.580357 189 
L 321.765796 189 
L 321.765796 180.175325 
L 316.580357 180.175325 
z
" clip-path="url(#pa73aebc33d)" style="fill: #f8f8ff; stroke: #000000; stroke-width: 0.612226; stroke-linejoin: miter"/>
   </g>
   <g id="patch_39">
    <path d="M 321.765796 189 
L 326.951235 189 
L 326.951235 176.645455 
L 321.765796 176.645455 
z
" clip-path="url(#pa73aebc33d)" style="fill: #f8f8ff; stroke: #000000; stroke-width: 0.612226; stroke-linejoin: miter"/>
   </g>
   <g id="patch_40">
    <path d="M 326.951235 189 
L 332.136674 189 
L 332.136674 164.290909 
L 326.951235 164.290909 
z
" clip-path="url(#pa73aebc33d)" style="fill: #f8f8ff; stroke: #000000; stroke-width: 0.612226; stroke-linejoin: miter"/>
   </g>
   <g id="patch_41">
    <path d="M 332.136674 189 
L 337.322113 189 
L 337.322113 162.525974 
L 332.136674 162.525974 
z
" clip-path="url(#pa73aebc33d)" style="fill: #f8f8ff; stroke: #000000; stroke-width: 0.612226; stroke-linejoin: miter"/>
   </g>
   <g id="patch_42">
    <path d="M 337.322113 189 
L 342.507552 189 
L 342.507552 169.585714 
L 337.322113 169.585714 
z
" clip-path="url(#pa73aebc33d)" style="fill: #f8f8ff; stroke: #000000; stroke-width: 0.612226; stroke-linejoin: miter"/>
   </g>
   <g id="patch_43">
    <path d="M 342.507552 189 
L 347.692991 189 
L 347.692991 151.936364 
L 342.507552 151.936364 
z
" clip-path="url(#pa73aebc33d)" style="fill: #f8f8ff; stroke: #000000; stroke-width: 0.612226; stroke-linejoin: miter"/>
   </g>
   <g id="patch_44">
    <path d="M 347.692991 189 
L 352.87843 189 
L 352.87843 155.466234 
L 347.692991 155.466234 
z
" clip-path="url(#pa73aebc33d)" style="fill: #f8f8ff; stroke: #000000; stroke-width: 0.612226; stroke-linejoin: miter"/>
   </g>
   <g id="patch_45">
    <path d="M 352.87843 189 
L 358.063869 189 
L 358.063869 150.171429 
L 352.87843 150.171429 
z
" clip-path="url(#pa73aebc33d)" style="fill: #f8f8ff; stroke: #000000; stroke-width: 0.612226; stroke-linejoin: miter"/>
   </g>
   <g id="patch_46">
    <path d="M 358.063869 189 
L 363.249308 189 
L 363.249308 143.111688 
L 358.063869 143.111688 
z
" clip-path="url(#pa73aebc33d)" style="fill: #f8f8ff; stroke: #000000; stroke-width: 0.612226; stroke-linejoin: miter"/>
   </g>
   <g id="patch_47">
    <path d="M 363.249308 189 
L 368.434747 189 
L 368.434747 137.816883 
L 363.249308 137.816883 
z
" clip-path="url(#pa73aebc33d)" style="fill: #f8f8ff; stroke: #000000; stroke-width: 0.612226; stroke-linejoin: miter"/>
   </g>
   <g id="patch_48">
    <path d="M 368.434747 189 
L 373.620186 189 
L 373.620186 143.111688 
L 368.434747 143.111688 
z
" clip-path="url(#pa73aebc33d)" style="fill: #f8f8ff; stroke: #000000; stroke-width: 0.612226; stroke-linejoin: miter"/>
   </g>
   <g id="patch_49">
    <path d="M 373.620186 189 
L 378.805625 189 
L 378.805625 121.932468 
L 373.620186 121.932468 
z
" clip-path="url(#pa73aebc33d)" style="fill: #f8f8ff; stroke: #000000; stroke-width: 0.612226; stroke-linejoin: miter"/>
   </g>
   <g id="patch_50">
    <path d="M 378.805625 189 
L 383.991064 189 
L 383.991064 125.462338 
L 378.805625 125.462338 
z
" clip-path="url(#pa73aebc33d)" style="fill: #f8f8ff; stroke: #000000; stroke-width: 0.612226; stroke-linejoin: miter"/>
   </g>
   <g id="patch_51">
    <path d="M 383.991064 189 
L 389.176503 189 
L 389.176503 116.637662 
L 383.991064 116.637662 
z
" clip-path="url(#pa73aebc33d)" style="fill: #f8f8ff; stroke: #000000; stroke-width: 0.612226; stroke-linejoin: miter"/>
   </g>
   <g id="patch_52">
    <path d="M 389.176503 189 
L 394.361942 189 
L 394.361942 107.812987 
L 389.176503 107.812987 
z
" clip-path="url(#pa73aebc33d)" style="fill: #f8f8ff; stroke: #000000; stroke-width: 0.612226; stroke-linejoin: miter"/>
   </g>
   <g id="patch_53">
    <path d="M 394.361942 189 
L 399.547381 189 
L 399.547381 95.458442 
L 394.361942 95.458442 
z
" clip-path="url(#pa73aebc33d)" style="fill: #f8f8ff; stroke: #000000; stroke-width: 0.612226; stroke-linejoin: miter"/>
   </g>
   <g id="patch_54">
    <path d="M 399.547381 189 
L 404.73282 189 
L 404.73282 100.753247 
L 399.547381 100.753247 
z
" clip-path="url(#pa73aebc33d)" style="fill: #f8f8ff; stroke: #000000; stroke-width: 0.612226; stroke-linejoin: miter"/>
   </g>
   <g id="patch_55">
    <path d="M 404.73282 189 
L 409.918259 189 
L 409.918259 90.163636 
L 404.73282 90.163636 
z
" clip-path="url(#pa73aebc33d)" style="fill: #f8f8ff; stroke: #000000; stroke-width: 0.612226; stroke-linejoin: miter"/>
   </g>
   <g id="patch_56">
    <path d="M 409.918259 189 
L 415.103698 189 
L 415.103698 70.749351 
L 409.918259 70.749351 
z
" clip-path="url(#pa73aebc33d)" style="fill: #f8f8ff; stroke: #000000; stroke-width: 0.612226; stroke-linejoin: miter"/>
   </g>
   <g id="patch_57">
    <path d="M 415.103698 189 
L 420.289138 189 
L 420.289138 56.62987 
L 415.103698 56.62987 
z
" clip-path="url(#pa73aebc33d)" style="fill: #f8f8ff; stroke: #000000; stroke-width: 0.612226; stroke-linejoin: miter"/>
   </g>
   <g id="patch_58">
    <path d="M 420.289138 189 
L 425.474577 189 
L 425.474577 33.685714 
L 420.289138 33.685714 
z
" clip-path="url(#pa73aebc33d)" style="fill: #f8f8ff; stroke: #000000; stroke-width: 0.612226; stroke-linejoin: miter"/>
   </g>
   <g id="patch_59">
    <path d="M 425.474577 189 
L 430.660016 189 
L 430.660016 51.335065 
L 425.474577 51.335065 
z
" clip-path="url(#pa73aebc33d)" style="fill: #f8f8ff; stroke: #000000; stroke-width: 0.612226; stroke-linejoin: miter"/>
   </g>
   <g id="patch_60">
    <path d="M 430.660016 189 
L 435.845455 189 
L 435.845455 35.450649 
L 430.660016 35.450649 
z
" clip-path="url(#pa73aebc33d)" style="fill: #f8f8ff; stroke: #000000; stroke-width: 0.612226; stroke-linejoin: miter"/>
   </g>
   <g id="line2d_1">
    <path d="M 281.864087 189 
L 281.864087 42.228 
" clip-path="url(#pa73aebc33d)" style="fill: none; stroke: #dc143c; stroke-width: 0.6; stroke-linecap: round"/>
   </g>
   <g id="line2d_2">
    <path d="M 199.125994 189 
L 199.125994 42.228 
" clip-path="url(#pa73aebc33d)" style="fill: none; stroke-dasharray: 0.6,0.99; stroke-dashoffset: 0; stroke: #000000; stroke-width: 0.6"/>
   </g>
   <g id="line2d_3">
    <path d="M 80.754545 189 
L 80.754545 42.228 
" clip-path="url(#pa73aebc33d)" style="fill: none; stroke-dasharray: 2.22,0.96; stroke-dashoffset: 0; stroke: #000000; stroke-width: 0.6"/>
   </g>
   <g id="patch_61">
    <path d="M 63 189 
L 453.6 189 
" style="fill: none; stroke: #262626; stroke-width: 1.875; stroke-linejoin: miter; stroke-linecap: square"/>
   </g>
   <g id="text_1">
    <!-- .05 -->
    <g style="fill: #dc143c" transform="translate(281.864087 198.177662)scale(0.108 -0.108)">
     <defs>
      <path id="ArialMT-2e" d="M 581 0 
L 581 641 
L 1222 641 
L 1222 0 
L 581 0 
z
" transform="scale(0.015625)"/>
      <path id="ArialMT-30" d="M 266 2259 
Q 266 3072 433 3567 
Q 600 4063 929 4331 
Q 1259 4600 1759 4600 
Q 2128 4600 2406 4451 
Q 2684 4303 2865 4023 
Q 3047 3744 3150 3342 
Q 3253 2941 3253 2259 
Q 3253 1453 3087 958 
Q 2922 463 2592 192 
Q 2263 -78 1759 -78 
Q 1097 -78 719 397 
Q 266 969 266 2259 
z
M 844 2259 
Q 844 1131 1108 757 
Q 1372 384 1759 384 
Q 2147 384 2411 759 
Q 2675 1134 2675 2259 
Q 2675 3391 2411 3762 
Q 2147 4134 1753 4134 
Q 1366 4134 1134 3806 
Q 844 3388 844 2259 
z
" transform="scale(0.015625)"/>
      <path id="ArialMT-35" d="M 266 1200 
L 856 1250 
Q 922 819 1161 601 
Q 1400 384 1738 384 
Q 2144 384 2425 690 
Q 2706 997 2706 1503 
Q 2706 1984 2436 2262 
Q 2166 2541 1728 2541 
Q 1456 2541 1237 2417 
Q 1019 2294 894 2097 
L 366 2166 
L 809 4519 
L 3088 4519 
L 3088 3981 
L 1259 3981 
L 1013 2750 
Q 1425 3038 1878 3038 
Q 2478 3038 2890 2622 
Q 3303 2206 3303 1553 
Q 3303 931 2941 478 
Q 2500 -78 1738 -78 
Q 1113 -78 717 272 
Q 322 622 266 1200 
z
" transform="scale(0.015625)"/>
     </defs>
     <use xlink:href="#ArialMT-2e"/>
     <use xlink:href="#ArialMT-30" x="27.783203"/>
     <use xlink:href="#ArialMT-35" x="83.398438"/>
    </g>
   </g>
   <g id="text_2">
    <!-- .01 -->
    <g transform="translate(199.125994 198.177662)scale(0.108 -0.108)">
     <defs>
      <path id="ArialMT-31" d="M 2384 0 
L 1822 0 
L 1822 3584 
Q 1619 3391 1289 3197 
Q 959 3003 697 2906 
L 697 3450 
Q 1169 3672 1522 3987 
Q 1875 4303 2022 4600 
L 2384 4600 
L 2384 0 
z
" transform="scale(0.015625)"/>
     </defs>
     <use xlink:href="#ArialMT-2e"/>
     <use xlink:href="#ArialMT-30" x="27.783203"/>
     <use xlink:href="#ArialMT-31" x="83.398438"/>
    </g>
   </g>
   <g id="text_3">
    <!-- .001 -->
    <g transform="translate(80.754545 198.177662)scale(0.108 -0.108)">
     <use xlink:href="#ArialMT-2e"/>
     <use xlink:href="#ArialMT-30" x="27.783203"/>
     <use xlink:href="#ArialMT-30" x="83.398438"/>
     <use xlink:href="#ArialMT-31" x="139.013672"/>
    </g>
   </g>
  </g>
 </g>
 <defs>
  <clipPath id="pa73aebc33d">
   <rect x="63" y="25.92" width="390.6" height="163.08"/>
  </clipPath>
 </defs>
</svg>
