<?xml version="1.0" encoding="utf-8" standalone="no"?>
<!DOCTYPE svg PUBLIC "-//W3C//DTD SVG 1.1//EN"
  "http://www.w3.org/Graphics/SVG/1.1/DTD/svg11.dtd">
<svg xmlns:xlink="http://www.w3.org/1999/xlink" width="504pt" height="216pt" viewBox="0 0 504 216" xmlns="http://www.w3.org/2000/svg" version="1.1">
 <metadata>
  <rdf:RDF xmlns:dc="http://purl.org/dc/elements/1.1/" xmlns:cc="http://creativecommons.org/ns#" xmlns:rdf="http://www.w3.org/1999/02/22-rdf-syntax-ns#">
   <cc:Work>
    <dc:type rdf:resource="http://purl.org/dc/dcmitype/StillImage"/>
    <dc:date>2022-02-16T14:25:48.482087</dc:date>
    <dc:format>image/svg+xml</dc:format>
    <dc:creator>
     <cc:Agent>
      <dc:title>Matplotlib v3.5.1, https://matplotlib.org/</dc:title>
     </cc:Agent>
    </dc:creator>
   </cc:Work>
  </rdf:RDF>
 </metadata>
 <defs>
  <style type="text/css">*{stroke-linejoin: round; stroke-linecap: butt}</style>
 </defs>
 <g id="figure_1">
  <g id="patch_1">
   <path d="M 0 216 
L 504 216 
L 504 0 
L 0 0 
z
" style="fill: #ffffff"/>
  </g>
  <g id="axes_1">
   <g id="patch_2">
    <path d="M 63 189 
L 453.6 189 
L 453.6 25.92 
L 63 25.92 
z
" style="fill: #ffffff"/>
   </g>
   <g id="patch_3">
    <path d="M 100.026968 189 
L 105.816942 189 
L 105.816942 187.767347 
L 100.026968 187.767347 
z
" clip-path="url(#pbad5ed6326)" style="fill: #dc143c; stroke: #000000; stroke-width: 0.612226; stroke-linejoin: miter"/>
   </g>
   <g id="patch_4">
    <path d="M 105.816942 189 
L 111.606916 189 
L 111.606916 189 
L 105.816942 189 
z
" clip-path="url(#pbad5ed6326)" style="fill: #dc143c; stroke: #000000; stroke-width: 0.612226; stroke-linejoin: miter"/>
   </g>
   <g id="patch_5">
    <path d="M 111.606916 189 
L 117.39689 189 
L 117.39689 189 
L 111.606916 189 
z
" clip-path="url(#pbad5ed6326)" style="fill: #dc143c; stroke: #000000; stroke-width: 0.612226; stroke-linejoin: miter"/>
   </g>
   <g id="patch_6">
    <path d="M 117.39689 189 
L 123.186864 189 
L 123.186864 187.767347 
L 117.39689 187.767347 
z
" clip-path="url(#pbad5ed6326)" style="fill: #dc143c; stroke: #000000; stroke-width: 0.612226; stroke-linejoin: miter"/>
   </g>
   <g id="patch_7">
    <path d="M 123.186864 189 
L 128.976838 189 
L 128.976838 189 
L 123.186864 189 
z
" clip-path="url(#pbad5ed6326)" style="fill: #dc143c; stroke: #000000; stroke-width: 0.612226; stroke-linejoin: miter"/>
   </g>
   <g id="patch_8">
    <path d="M 128.976838 189 
L 134.766812 189 
L 134.766812 189 
L 128.976838 189 
z
" clip-path="url(#pbad5ed6326)" style="fill: #dc143c; stroke: #000000; stroke-width: 0.612226; stroke-linejoin: miter"/>
   </g>
   <g id="patch_9">
    <path d="M 134.766812 189 
L 140.556786 189 
L 140.556786 189 
L 134.766812 189 
z
" clip-path="url(#pbad5ed6326)" style="fill: #dc143c; stroke: #000000; stroke-width: 0.612226; stroke-linejoin: miter"/>
   </g>
   <g id="patch_10">
    <path d="M 140.556786 189 
L 146.34676 189 
L 146.34676 189 
L 140.556786 189 
z
" clip-path="url(#pbad5ed6326)" style="fill: #dc143c; stroke: #000000; stroke-width: 0.612226; stroke-linejoin: miter"/>
   </g>
   <g id="patch_11">
    <path d="M 146.34676 189 
L 152.136733 189 
L 152.136733 189 
L 146.34676 189 
z
" clip-path="url(#pbad5ed6326)" style="fill: #dc143c; stroke: #000000; stroke-width: 0.612226; stroke-linejoin: miter"/>
   </g>
   <g id="patch_12">
    <path d="M 152.136733 189 
L 157.926707 189 
L 157.926707 189 
L 152.136733 189 
z
" clip-path="url(#pbad5ed6326)" style="fill: #dc143c; stroke: #000000; stroke-width: 0.612226; stroke-linejoin: miter"/>
   </g>
   <g id="patch_13">
    <path d="M 157.926707 189 
L 163.716681 189 
L 163.716681 187.767347 
L 157.926707 187.767347 
z
" clip-path="url(#pbad5ed6326)" style="fill: #dc143c; stroke: #000000; stroke-width: 0.612226; stroke-linejoin: miter"/>
   </g>
   <g id="patch_14">
    <path d="M 163.716681 189 
L 169.506655 189 
L 169.506655 189 
L 163.716681 189 
z
" clip-path="url(#pbad5ed6326)" style="fill: #dc143c; stroke: #000000; stroke-width: 0.612226; stroke-linejoin: miter"/>
   </g>
   <g id="patch_15">
    <path d="M 169.506655 189 
L 175.296629 189 
L 175.296629 189 
L 169.506655 189 
z
" clip-path="url(#pbad5ed6326)" style="fill: #dc143c; stroke: #000000; stroke-width: 0.612226; stroke-linejoin: miter"/>
   </g>
   <g id="patch_16">
    <path d="M 175.296629 189 
L 181.086603 189 
L 181.086603 189 
L 175.296629 189 
z
" clip-path="url(#pbad5ed6326)" style="fill: #dc143c; stroke: #000000; stroke-width: 0.612226; stroke-linejoin: miter"/>
   </g>
   <g id="patch_17">
    <path d="M 181.086603 189 
L 186.876577 189 
L 186.876577 189 
L 181.086603 189 
z
" clip-path="url(#pbad5ed6326)" style="fill: #dc143c; stroke: #000000; stroke-width: 0.612226; stroke-linejoin: miter"/>
   </g>
   <g id="patch_18">
    <path d="M 186.876577 189 
L 192.666551 189 
L 192.666551 189 
L 186.876577 189 
z
" clip-path="url(#pbad5ed6326)" style="fill: #dc143c; stroke: #000000; stroke-width: 0.612226; stroke-linejoin: miter"/>
   </g>
   <g id="patch_19">
    <path d="M 192.666551 189 
L 198.456525 189 
L 198.456525 189 
L 192.666551 189 
z
" clip-path="url(#pbad5ed6326)" style="fill: #dc143c; stroke: #000000; stroke-width: 0.612226; stroke-linejoin: miter"/>
   </g>
   <g id="patch_20">
    <path d="M 198.456525 189 
L 204.246499 189 
L 204.246499 187.767347 
L 198.456525 187.767347 
z
" clip-path="url(#pbad5ed6326)" style="fill: #dc143c; stroke: #000000; stroke-width: 0.612226; stroke-linejoin: miter"/>
   </g>
   <g id="patch_21">
    <path d="M 204.246499 189 
L 210.036472 189 
L 210.036472 189 
L 204.246499 189 
z
" clip-path="url(#pbad5ed6326)" style="fill: #dc143c; stroke: #000000; stroke-width: 0.612226; stroke-linejoin: miter"/>
   </g>
   <g id="patch_22">
    <path d="M 210.036472 189 
L 215.826446 189 
L 215.826446 189 
L 210.036472 189 
z
" clip-path="url(#pbad5ed6326)" style="fill: #dc143c; stroke: #000000; stroke-width: 0.612226; stroke-linejoin: miter"/>
   </g>
   <g id="patch_23">
    <path d="M 215.826446 189 
L 221.61642 189 
L 221.61642 187.767347 
L 215.826446 187.767347 
z
" clip-path="url(#pbad5ed6326)" style="fill: #dc143c; stroke: #000000; stroke-width: 0.612226; stroke-linejoin: miter"/>
   </g>
   <g id="patch_24">
    <path d="M 221.61642 189 
L 227.406394 189 
L 227.406394 187.767347 
L 221.61642 187.767347 
z
" clip-path="url(#pbad5ed6326)" style="fill: #dc143c; stroke: #000000; stroke-width: 0.612226; stroke-linejoin: miter"/>
   </g>
   <g id="patch_25">
    <path d="M 227.406394 189 
L 233.196368 189 
L 233.196368 186.534694 
L 227.406394 186.534694 
z
" clip-path="url(#pbad5ed6326)" style="fill: #dc143c; stroke: #000000; stroke-width: 0.612226; stroke-linejoin: miter"/>
   </g>
   <g id="patch_26">
    <path d="M 233.196368 189 
L 238.986342 189 
L 238.986342 186.534694 
L 233.196368 186.534694 
z
" clip-path="url(#pbad5ed6326)" style="fill: #dc143c; stroke: #000000; stroke-width: 0.612226; stroke-linejoin: miter"/>
   </g>
   <g id="patch_27">
    <path d="M 238.986342 189 
L 244.776316 189 
L 244.776316 186.534694 
L 238.986342 186.534694 
z
" clip-path="url(#pbad5ed6326)" style="fill: #dc143c; stroke: #000000; stroke-width: 0.612226; stroke-linejoin: miter"/>
   </g>
   <g id="patch_28">
    <path d="M 244.776316 189 
L 250.56629 189 
L 250.56629 186.534694 
L 244.776316 186.534694 
z
" clip-path="url(#pbad5ed6326)" style="fill: #dc143c; stroke: #000000; stroke-width: 0.612226; stroke-linejoin: miter"/>
   </g>
   <g id="patch_29">
    <path d="M 250.56629 189 
L 256.356264 189 
L 256.356264 185.302041 
L 250.56629 185.302041 
z
" clip-path="url(#pbad5ed6326)" style="fill: #dc143c; stroke: #000000; stroke-width: 0.612226; stroke-linejoin: miter"/>
   </g>
   <g id="patch_30">
    <path d="M 256.356264 189 
L 262.146238 189 
L 262.146238 185.302041 
L 256.356264 185.302041 
z
" clip-path="url(#pbad5ed6326)" style="fill: #dc143c; stroke: #000000; stroke-width: 0.612226; stroke-linejoin: miter"/>
   </g>
   <g id="patch_31">
    <path d="M 262.146238 189 
L 267.936211 189 
L 267.936211 185.302041 
L 262.146238 185.302041 
z
" clip-path="url(#pbad5ed6326)" style="fill: #dc143c; stroke: #000000; stroke-width: 0.612226; stroke-linejoin: miter"/>
   </g>
   <g id="patch_32">
    <path d="M 267.936211 189 
L 273.726185 189 
L 273.726185 182.836735 
L 267.936211 182.836735 
z
" clip-path="url(#pbad5ed6326)" style="fill: #dc143c; stroke: #000000; stroke-width: 0.612226; stroke-linejoin: miter"/>
   </g>
   <g id="patch_33">
    <path d="M 273.726185 189 
L 279.516159 189 
L 279.516159 185.302041 
L 273.726185 185.302041 
z
" clip-path="url(#pbad5ed6326)" style="fill: #dc143c; stroke: #000000; stroke-width: 0.612226; stroke-linejoin: miter"/>
   </g>
   <g id="patch_34">
    <path d="M 279.516159 189 
L 285.306133 189 
L 285.306133 185.302041 
L 279.516159 185.302041 
z
" clip-path="url(#pbad5ed6326)" style="fill: #dc143c; stroke: #000000; stroke-width: 0.612226; stroke-linejoin: miter"/>
   </g>
   <g id="patch_35">
    <path d="M 285.306133 189 
L 291.096107 189 
L 291.096107 179.138776 
L 285.306133 179.138776 
z
" clip-path="url(#pbad5ed6326)" style="fill: #f8f8ff; stroke: #000000; stroke-width: 0.612226; stroke-linejoin: miter"/>
   </g>
   <g id="patch_36">
    <path d="M 291.096107 189 
L 296.886081 189 
L 296.886081 177.906122 
L 291.096107 177.906122 
z
" clip-path="url(#pbad5ed6326)" style="fill: #f8f8ff; stroke: #000000; stroke-width: 0.612226; stroke-linejoin: miter"/>
   </g>
   <g id="patch_37">
    <path d="M 296.886081 189 
L 302.676055 189 
L 302.676055 181.604082 
L 296.886081 181.604082 
z
" clip-path="url(#pbad5ed6326)" style="fill: #f8f8ff; stroke: #000000; stroke-width: 0.612226; stroke-linejoin: miter"/>
   </g>
   <g id="patch_38">
    <path d="M 302.676055 189 
L 308.466029 189 
L 308.466029 184.069388 
L 302.676055 184.069388 
z
" clip-path="url(#pbad5ed6326)" style="fill: #f8f8ff; stroke: #000000; stroke-width: 0.612226; stroke-linejoin: miter"/>
   </g>
   <g id="patch_39">
    <path d="M 308.466029 189 
L 314.256003 189 
L 314.256003 177.906122 
L 308.466029 177.906122 
z
" clip-path="url(#pbad5ed6326)" style="fill: #f8f8ff; stroke: #000000; stroke-width: 0.612226; stroke-linejoin: miter"/>
   </g>
   <g id="patch_40">
    <path d="M 314.256003 189 
L 320.045977 189 
L 320.045977 175.440816 
L 314.256003 175.440816 
z
" clip-path="url(#pbad5ed6326)" style="fill: #f8f8ff; stroke: #000000; stroke-width: 0.612226; stroke-linejoin: miter"/>
   </g>
   <g id="patch_41">
    <path d="M 320.045977 189 
L 325.83595 189 
L 325.83595 174.208163 
L 320.045977 174.208163 
z
" clip-path="url(#pbad5ed6326)" style="fill: #f8f8ff; stroke: #000000; stroke-width: 0.612226; stroke-linejoin: miter"/>
   </g>
   <g id="patch_42">
    <path d="M 325.83595 189 
L 331.625924 189 
L 331.625924 161.881633 
L 325.83595 161.881633 
z
" clip-path="url(#pbad5ed6326)" style="fill: #f8f8ff; stroke: #000000; stroke-width: 0.612226; stroke-linejoin: miter"/>
   </g>
   <g id="patch_43">
    <path d="M 331.625924 189 
L 337.415898 189 
L 337.415898 168.044898 
L 331.625924 168.044898 
z
" clip-path="url(#pbad5ed6326)" style="fill: #f8f8ff; stroke: #000000; stroke-width: 0.612226; stroke-linejoin: miter"/>
   </g>
   <g id="patch_44">
    <path d="M 337.415898 189 
L 343.205872 189 
L 343.205872 165.579592 
L 337.415898 165.579592 
z
" clip-path="url(#pbad5ed6326)" style="fill: #f8f8ff; stroke: #000000; stroke-width: 0.612226; stroke-linejoin: miter"/>
   </g>
   <g id="patch_45">
    <path d="M 343.205872 189 
L 348.995846 189 
L 348.995846 174.208163 
L 343.205872 174.208163 
z
" clip-path="url(#pbad5ed6326)" style="fill: #f8f8ff; stroke: #000000; stroke-width: 0.612226; stroke-linejoin: miter"/>
   </g>
   <g id="patch_46">
    <path d="M 348.995846 189 
L 354.78582 189 
L 354.78582 166.812245 
L 348.995846 166.812245 
z
" clip-path="url(#pbad5ed6326)" style="fill: #f8f8ff; stroke: #000000; stroke-width: 0.612226; stroke-linejoin: miter"/>
   </g>
   <g id="patch_47">
    <path d="M 354.78582 189 
L 360.575794 189 
L 360.575794 164.346939 
L 354.78582 164.346939 
z
" clip-path="url(#pbad5ed6326)" style="fill: #f8f8ff; stroke: #000000; stroke-width: 0.612226; stroke-linejoin: miter"/>
   </g>
   <g id="patch_48">
    <path d="M 360.575794 189 
L 366.365768 189 
L 366.365768 152.020408 
L 360.575794 152.020408 
z
" clip-path="url(#pbad5ed6326)" style="fill: #f8f8ff; stroke: #000000; stroke-width: 0.612226; stroke-linejoin: miter"/>
   </g>
   <g id="patch_49">
    <path d="M 366.365768 189 
L 372.155742 189 
L 372.155742 144.62449 
L 366.365768 144.62449 
z
" clip-path="url(#pbad5ed6326)" style="fill: #f8f8ff; stroke: #000000; stroke-width: 0.612226; stroke-linejoin: miter"/>
   </g>
   <g id="patch_50">
    <path d="M 372.155742 189 
L 377.945716 189 
L 377.945716 155.718367 
L 372.155742 155.718367 
z
" clip-path="url(#pbad5ed6326)" style="fill: #f8f8ff; stroke: #000000; stroke-width: 0.612226; stroke-linejoin: miter"/>
   </g>
   <g id="patch_51">
    <path d="M 377.945716 189 
L 383.735689 189 
L 383.735689 137.228571 
L 377.945716 137.228571 
z
" clip-path="url(#pbad5ed6326)" style="fill: #f8f8ff; stroke: #000000; stroke-width: 0.612226; stroke-linejoin: miter"/>
   </g>
   <g id="patch_52">
    <path d="M 383.735689 189 
L 389.525663 189 
L 389.525663 137.228571 
L 383.735689 137.228571 
z
" clip-path="url(#pbad5ed6326)" style="fill: #f8f8ff; stroke: #000000; stroke-width: 0.612226; stroke-linejoin: miter"/>
   </g>
   <g id="patch_53">
    <path d="M 389.525663 189 
L 395.315637 189 
L 395.315637 131.065306 
L 389.525663 131.065306 
z
" clip-path="url(#pbad5ed6326)" style="fill: #f8f8ff; stroke: #000000; stroke-width: 0.612226; stroke-linejoin: miter"/>
   </g>
   <g id="patch_54">
    <path d="M 395.315637 189 
L 401.105611 189 
L 401.105611 122.436735 
L 395.315637 122.436735 
z
" clip-path="url(#pbad5ed6326)" style="fill: #f8f8ff; stroke: #000000; stroke-width: 0.612226; stroke-linejoin: miter"/>
   </g>
   <g id="patch_55">
    <path d="M 401.105611 189 
L 406.895585 189 
L 406.895585 103.946939 
L 401.105611 103.946939 
z
" clip-path="url(#pbad5ed6326)" style="fill: #f8f8ff; stroke: #000000; stroke-width: 0.612226; stroke-linejoin: miter"/>
   </g>
   <g id="patch_56">
    <path d="M 406.895585 189 
L 412.685559 189 
L 412.685559 117.506122 
L 406.895585 117.506122 
z
" clip-path="url(#pbad5ed6326)" style="fill: #f8f8ff; stroke: #000000; stroke-width: 0.612226; stroke-linejoin: miter"/>
   </g>
   <g id="patch_57">
    <path d="M 412.685559 189 
L 418.475533 189 
L 418.475533 86.689796 
L 412.685559 86.689796 
z
" clip-path="url(#pbad5ed6326)" style="fill: #f8f8ff; stroke: #000000; stroke-width: 0.612226; stroke-linejoin: miter"/>
   </g>
   <g id="patch_58">
    <path d="M 418.475533 189 
L 424.265507 189 
L 424.265507 79.293878 
L 418.475533 79.293878 
z
" clip-path="url(#pbad5ed6326)" style="fill: #f8f8ff; stroke: #000000; stroke-width: 0.612226; stroke-linejoin: miter"/>
   </g>
   <g id="patch_59">
    <path d="M 424.265507 189 
L 430.055481 189 
L 430.055481 70.665306 
L 424.265507 70.665306 
z
" clip-path="url(#pbad5ed6326)" style="fill: #f8f8ff; stroke: #000000; stroke-width: 0.612226; stroke-linejoin: miter"/>
   </g>
   <g id="patch_60">
    <path d="M 430.055481 189 
L 435.845455 189 
L 435.845455 33.685714 
L 430.055481 33.685714 
z
" clip-path="url(#pbad5ed6326)" style="fill: #f8f8ff; stroke: #000000; stroke-width: 0.612226; stroke-linejoin: miter"/>
   </g>
   <g id="line2d_1">
    <path d="M 281.872255 189 
L 281.872255 42.228 
" clip-path="url(#pbad5ed6326)" style="fill: none; stroke: #dc143c; stroke-width: 0.6; stroke-linecap: round"/>
   </g>
   <g id="line2d_2">
    <path d="M 199.130802 189 
L 199.130802 42.228 
" clip-path="url(#pbad5ed6326)" style="fill: none; stroke-dasharray: 0.6,0.99; stroke-dashoffset: 0; stroke: #000000; stroke-width: 0.6"/>
   </g>
   <g id="line2d_3">
    <path d="M 80.754545 189 
L 80.754545 42.228 
" clip-path="url(#pbad5ed6326)" style="fill: none; stroke-dasharray: 2.22,0.96; stroke-dashoffset: 0; stroke: #000000; stroke-width: 0.6"/>
   </g>
   <g id="patch_61">
    <path d="M 63 189 
L 453.6 189 
" style="fill: none; stroke: #262626; stroke-width: 1.875; stroke-linejoin: miter; stroke-linecap: square"/>
   </g>
   <g id="text_1">
    <!-- .05 -->
    <g style="fill: #dc143c" transform="translate(281.872255 195.409796)scale(0.108 -0.108)">
     <defs>
      <path id="ArialMT-2e" d="M 581 0 
L 581 641 
L 1222 641 
L 1222 0 
L 581 0 
z
" transform="scale(0.015625)"/>
      <path id="ArialMT-30" d="M 266 2259 
Q 266 3072 433 3567 
Q 600 4063 929 4331 
Q 1259 4600 1759 4600 
Q 2128 4600 2406 4451 
Q 2684 4303 2865 4023 
Q 3047 3744 3150 3342 
Q 3253 2941 3253 2259 
Q 3253 1453 3087 958 
Q 2922 463 2592 192 
Q 2263 -78 1759 -78 
Q 1097 -78 719 397 
Q 266 969 266 2259 
z
M 844 2259 
Q 844 1131 1108 757 
Q 1372 384 1759 384 
Q 2147 384 2411 759 
Q 2675 1134 2675 2259 
Q 2675 3391 2411 3762 
Q 2147 4134 1753 4134 
Q 1366 4134 1134 3806 
Q 844 3388 844 2259 
z
" transform="scale(0.015625)"/>
      <path id="ArialMT-35" d="M 266 1200 
L 856 1250 
Q 922 819 1161 601 
Q 1400 384 1738 384 
Q 2144 384 2425 690 
Q 2706 997 2706 1503 
Q 2706 1984 2436 2262 
Q 2166 2541 1728 2541 
Q 1456 2541 1237 2417 
Q 1019 2294 894 2097 
L 366 2166 
L 809 4519 
L 3088 4519 
L 3088 3981 
L 1259 3981 
L 1013 2750 
Q 1425 3038 1878 3038 
Q 2478 3038 2890 2622 
Q 3303 2206 3303 1553 
Q 3303 931 2941 478 
Q 2500 -78 1738 -78 
Q 1113 -78 717 272 
Q 322 622 266 1200 
z
" transform="scale(0.015625)"/>
     </defs>
     <use xlink:href="#ArialMT-2e"/>
     <use xlink:href="#ArialMT-30" x="27.783203"/>
     <use xlink:href="#ArialMT-35" x="83.398438"/>
    </g>
   </g>
   <g id="text_2">
    <!-- .01 -->
    <g transform="translate(199.130802 195.409796)scale(0.108 -0.108)">
     <defs>
      <path id="ArialMT-31" d="M 2384 0 
L 1822 0 
L 1822 3584 
Q 1619 3391 1289 3197 
Q 959 3003 697 2906 
L 697 3450 
Q 1169 3672 1522 3987 
Q 1875 4303 2022 4600 
L 2384 4600 
L 2384 0 
z
" transform="scale(0.015625)"/>
     </defs>
     <use xlink:href="#ArialMT-2e"/>
     <use xlink:href="#ArialMT-30" x="27.783203"/>
     <use xlink:href="#ArialMT-31" x="83.398438"/>
    </g>
   </g>
   <g id="text_3">
    <!-- .001 -->
    <g transform="translate(80.754545 195.409796)scale(0.108 -0.108)">
     <use xlink:href="#ArialMT-2e"/>
     <use xlink:href="#ArialMT-30" x="27.783203"/>
     <use xlink:href="#ArialMT-30" x="83.398438"/>
     <use xlink:href="#ArialMT-31" x="139.013672"/>
    </g>
   </g>
  </g>
 </g>
 <defs>
  <clipPath id="pbad5ed6326">
   <rect x="63" y="25.92" width="390.6" height="163.08"/>
  </clipPath>
 </defs>
</svg>
